<svg width="3149" height="3102" viewBox="0 0 3149 3102" fill="none" xmlns="http://www.w3.org/2000/svg">
<g filter="url(#filter0_d)">
<path d="M1833.31 592.654C1774.48 534.082 1945.01 408.238 1744.56 351.382C1477.1 275.522 713.087 0.257812 713.087 0.257812L25.3809 1294.01C25.3809 1294.01 215.565 1509.77 280.458 1580.85C345.35 1651.93 895.89 1904.33 1000.83 1944.84C1105.77 1985.35 1093.44 1940.08 1104.18 1954.37C1114.91 1968.67 1077.94 2015.14 1093.44 2052.08C1108.95 2089.02 1326.49 2254.42 1470.81 2319.98C1615.13 2385.54 1305.26 2923.62 1885 3016.03C2464.74 3108.44 2392.62 2616.71 2434.01 2544.32C2475.41 2471.93 2600.81 2582.56 2665.7 2544.32C2730.59 2506.07 2721.89 2359.5 2797.14 2305.71C2872.39 2251.91 2895.95 2277.43 2996.85 2243.64C3097.76 2209.85 3143.54 1991.72 3115.15 1940.8C3086.76 1889.89 3007.04 1803.65 2992.13 1774.69C2977.49 1746.24 2970.78 1728.44 2953.81 1683.38L2952.87 1680.9C2935.21 1634 2974.76 1587.67 3015.04 1504.35C3055.31 1421.03 3129.17 1324.28 3022.89 1230.57C2916.61 1136.85 2769.06 1260.86 2705.54 1167.81C2642.01 1074.76 2715.18 1009.19 2574.01 949.885C2432.85 890.576 2162.63 1077.62 2105.02 1033.73C2047.42 989.842 2132.47 883.705 2092.55 827.155C2052.64 770.605 1892.14 651.225 1833.31 592.654Z" fill="white"/>
</g>
<defs>
<filter id="filter0_d" x="0.380859" y="0.257812" width="3148.06" height="3101.29" filterUnits="userSpaceOnUse" color-interpolation-filters="sRGB">
<feFlood flood-opacity="0" result="BackgroundImageFix"/>
<feColorMatrix in="SourceAlpha" type="matrix" values="0 0 0 0 0 0 0 0 0 0 0 0 0 0 0 0 0 0 127 0"/>
<feOffset dy="49"/>
<feGaussianBlur stdDeviation="12.5"/>
<feColorMatrix type="matrix" values="0 0 0 0 0 0 0 0 0 0 0 0 0 0 0 0 0 0 0.25 0"/>
<feBlend mode="normal" in2="BackgroundImageFix" result="effect1_dropShadow"/>
<feBlend mode="normal" in="SourceGraphic" in2="effect1_dropShadow" result="shape"/>
</filter>
</defs>
</svg>
