<svg width="3067" height="3022" viewBox="0 0 3067 3022" fill="none" xmlns="http://www.w3.org/2000/svg">
<g filter="url(#filter0_d)">
<path d="M1802.95 609.397C1746.47 553.161 1910.18 432.336 1717.75 377.748C1461 304.914 672.418 0.181641 672.418 0.181641L25.8477 1221.87C25.8477 1221.87 249.962 1489.93 312.257 1558.18C374.552 1626.43 868.339 1842.23 977.253 1892.67C1086.17 1943.11 1125.91 1895.85 1123.93 1916.1C1121.94 1936.36 1017.6 1961.52 1123.93 2072.99C1230.25 2184.46 1316.41 2204.88 1454.96 2267.83C1593.5 2330.78 1296.04 2847.39 1852.57 2936.12C2409.1 3024.84 2339.87 2552.73 2379.6 2483.22C2419.34 2413.72 2539.73 2519.94 2602.02 2483.22C2664.31 2446.5 2655.96 2305.77 2728.2 2254.12C2800.43 2202.48 2823.05 2226.98 2919.91 2194.53C3016.78 2162.09 3060.73 1952.66 3033.48 1903.77C3006.23 1854.89 2929.7 1772.09 2915.38 1744.29C2901.32 1716.97 2894.89 1699.88 2878.59 1656.62L2877.69 1654.24C2860.74 1609.21 2898.71 1564.73 2937.37 1484.73C2976.03 1404.73 3046.93 1311.84 2944.91 1221.87C2842.88 1131.89 2701.24 1250.95 2640.26 1161.61C2579.28 1072.27 2649.52 1009.32 2514 952.38C2378.48 895.437 2119.08 1075.02 2063.78 1032.88C2008.49 990.743 2090.13 888.839 2051.81 834.545C2013.5 780.25 1859.42 665.632 1802.95 609.397Z" fill="white"/>
</g>
<defs>
<filter id="filter0_d" x="0.847656" y="0.181641" width="3065.59" height="3021" filterUnits="userSpaceOnUse" color-interpolation-filters="sRGB">
<feFlood flood-opacity="0" result="BackgroundImageFix"/>
<feColorMatrix in="SourceAlpha" type="matrix" values="0 0 0 0 0 0 0 0 0 0 0 0 0 0 0 0 0 0 127 0"/>
<feOffset dy="49"/>
<feGaussianBlur stdDeviation="12.5"/>
<feColorMatrix type="matrix" values="0 0 0 0 0 0 0 0 0 0 0 0 0 0 0 0 0 0 0.25 0"/>
<feBlend mode="normal" in2="BackgroundImageFix" result="effect1_dropShadow"/>
<feBlend mode="normal" in="SourceGraphic" in2="effect1_dropShadow" result="shape"/>
</filter>
</defs>
</svg>
