<svg width="2980" height="2937" viewBox="0 0 2980 2937" fill="none" xmlns="http://www.w3.org/2000/svg">
<g filter="url(#filter0_d)">
<path d="M1751.66 591.851C1696.79 537.219 1855.85 419.837 1668.89 366.805C1419.42 296.047 653.22 0 653.22 0L25 1186.86C25 1186.86 242.754 1447.29 303.281 1513.59C363.808 1579.89 843.581 1789.54 949.403 1838.55C1055.23 1887.55 1093.85 1841.64 1091.92 1861.31C1089.98 1880.99 988.609 1905.43 1091.92 2013.73C1195.22 2122.02 1278.94 2141.86 1413.55 2203.01C1548.16 2264.17 1259.14 2766.06 1799.88 2852.25C2340.61 2938.45 2273.35 2479.79 2311.95 2412.27C2350.56 2344.74 2467.53 2447.94 2528.06 2412.27C2588.58 2376.59 2580.47 2239.87 2650.65 2189.7C2720.84 2139.53 2742.81 2163.33 2836.93 2131.81C2931.05 2100.29 2973.75 1896.83 2947.27 1849.34C2920.79 1801.85 2846.44 1721.41 2832.53 1694.39C2818.87 1667.86 2812.61 1651.25 2796.78 1609.22L2795.91 1606.91C2779.43 1563.17 2816.32 1519.95 2853.89 1442.24C2891.45 1364.52 2960.34 1274.28 2861.21 1186.86C2762.08 1099.45 2624.46 1215.12 2565.21 1128.33C2505.96 1041.53 2574.21 980.378 2442.54 925.058C2310.87 869.738 2058.83 1044.21 2005.1 1003.27C1951.37 962.329 2030.7 863.329 1993.47 810.582C1956.24 757.835 1806.53 646.484 1751.66 591.851Z" fill="white"/>
</g>
<defs>
<filter id="filter0_d" x="0" y="0" width="2980" height="2937" filterUnits="userSpaceOnUse" color-interpolation-filters="sRGB">
<feFlood flood-opacity="0" result="BackgroundImageFix"/>
<feColorMatrix in="SourceAlpha" type="matrix" values="0 0 0 0 0 0 0 0 0 0 0 0 0 0 0 0 0 0 127 0"/>
<feOffset dy="49"/>
<feGaussianBlur stdDeviation="12.5"/>
<feColorMatrix type="matrix" values="0 0 0 0 0 0 0 0 0 0 0 0 0 0 0 0 0 0 0.25 0"/>
<feBlend mode="normal" in2="BackgroundImageFix" result="effect1_dropShadow"/>
<feBlend mode="normal" in="SourceGraphic" in2="effect1_dropShadow" result="shape"/>
</filter>
</defs>
</svg>
