<svg width="2955" height="2870" viewBox="0 0 2955 2870" fill="none" xmlns="http://www.w3.org/2000/svg">
<g filter="url(#filter0_d)">
<path d="M1760.05 587.227C1706.72 534.097 1861.33 419.942 1679.6 368.367C1437.12 299.554 580.712 0.560547 580.712 0.560547L25.2773 1071.23C25.2773 1071.23 293.418 1419.15 352.249 1483.63C411.08 1548.11 829.33 1772.42 933.87 1814.92C1038.41 1857.42 1047.55 1782.75 1081.34 1814.92C1115.13 1847.09 997.072 1873.7 1045.96 1964.65C1094.85 2055.61 1300.57 2094.63 1431.41 2154.1C1562.25 2213.58 1281.33 2701.67 1806.92 2785.5C2332.51 2869.32 2267.12 2423.27 2304.65 2357.6C2342.18 2291.94 2455.87 2392.3 2514.7 2357.6C2573.52 2322.91 2565.64 2189.95 2633.86 2141.16C2702.08 2092.36 2723.44 2115.51 2814.92 2084.85C2906.4 2054.2 2947.9 1856.33 2922.17 1810.15C2896.43 1763.96 2824.16 1685.74 2810.64 1659.46C2797.36 1633.66 2791.28 1617.51 2775.89 1576.63L2775.05 1574.38C2759.03 1531.85 2794.89 1489.82 2831.4 1414.24C2867.92 1338.66 2934.88 1250.9 2838.52 1165.88C2742.17 1080.87 2608.4 1193.37 2550.81 1108.96C2493.22 1024.55 2559.56 965.075 2431.57 911.275C2303.59 857.476 2058.61 1027.15 2006.39 987.335C1954.17 947.521 2031.27 851.243 1995.08 799.946C1958.9 748.648 1813.39 640.358 1760.05 587.227Z" fill="white"/>
</g>
<defs>
<filter id="filter0_d" x="0.277344" y="0.560547" width="2954.4" height="2869.39" filterUnits="userSpaceOnUse" color-interpolation-filters="sRGB">
<feFlood flood-opacity="0" result="BackgroundImageFix"/>
<feColorMatrix in="SourceAlpha" type="matrix" values="0 0 0 0 0 0 0 0 0 0 0 0 0 0 0 0 0 0 127 0"/>
<feOffset dy="49"/>
<feGaussianBlur stdDeviation="12.5"/>
<feColorMatrix type="matrix" values="0 0 0 0 0 0 0 0 0 0 0 0 0 0 0 0 0 0 0.25 0"/>
<feBlend mode="normal" in2="BackgroundImageFix" result="effect1_dropShadow"/>
<feBlend mode="normal" in="SourceGraphic" in2="effect1_dropShadow" result="shape"/>
</filter>
</defs>
</svg>
