<svg width="2875" height="2758" viewBox="0 0 2875 2758" fill="none" xmlns="http://www.w3.org/2000/svg">
<g filter="url(#filter0_d)">
<path d="M1739.18 587.1C1688.56 536.674 1835.29 428.331 1662.82 379.382C1432.7 314.072 550.25 0.478516 550.25 0.478516L25.6035 966.837C25.6035 966.837 347.262 1376.67 403.096 1437.87C458.93 1499.06 931.708 1744.44 959.532 1759.93C987.357 1775.42 1081.14 1698.77 1088.72 1742.06C1096.3 1785.35 958.044 1804.15 1053.34 1904.11C1148.64 2004.06 1303.1 2017.76 1427.28 2074.2C1551.45 2130.65 1284.84 2593.89 1783.65 2673.45C2282.46 2753.01 2220.41 2329.67 2256.03 2267.35C2291.64 2205.02 2399.54 2300.27 2455.37 2267.35C2511.2 2234.42 2503.72 2108.23 2568.46 2061.92C2633.21 2015.6 2653.48 2037.57 2740.3 2008.48C2827.12 1979.39 2866.51 1791.59 2842.08 1747.76C2817.66 1703.93 2749.07 1629.68 2736.24 1604.75C2723.64 1580.25 2717.86 1564.93 2703.26 1526.13L2702.46 1524C2687.26 1483.63 2721.29 1443.74 2755.94 1372.01C2790.59 1300.27 2854.14 1216.98 2762.7 1136.3C2671.25 1055.61 2544.3 1162.38 2489.65 1082.27C2434.99 1002.16 2497.94 945.711 2376.48 894.65C2255.02 843.59 2022.52 1004.62 1972.96 966.837C1923.4 929.05 1996.57 837.674 1962.23 788.988C1927.89 740.303 1789.79 637.526 1739.18 587.1Z" fill="white"/>
</g>
<defs>
<filter id="filter0_d" x="0.603516" y="0.478516" width="2873.61" height="2756.89" filterUnits="userSpaceOnUse" color-interpolation-filters="sRGB">
<feFlood flood-opacity="0" result="BackgroundImageFix"/>
<feColorMatrix in="SourceAlpha" type="matrix" values="0 0 0 0 0 0 0 0 0 0 0 0 0 0 0 0 0 0 127 0"/>
<feOffset dy="49"/>
<feGaussianBlur stdDeviation="12.5"/>
<feColorMatrix type="matrix" values="0 0 0 0 0 0 0 0 0 0 0 0 0 0 0 0 0 0 0.25 0"/>
<feBlend mode="normal" in2="BackgroundImageFix" result="effect1_dropShadow"/>
<feBlend mode="normal" in="SourceGraphic" in2="effect1_dropShadow" result="shape"/>
</filter>
</defs>
</svg>
