<svg width="2539" height="2395" viewBox="0 0 2539 2395" fill="none" xmlns="http://www.w3.org/2000/svg">
<g filter="url(#filter0_d)">
<path d="M1650.29 668.207C1610.91 628.455 1725.06 543.044 1590.89 504.456C1411.86 452.971 371.376 0.467773 371.376 0.467773L25.3066 587.489C25.3066 587.489 567.446 1290.65 610.882 1338.89C654.318 1387.14 843.6 1544.67 971.991 1518.85C1100.38 1493.03 1117.12 1474.37 1128.21 1489.45C1139.29 1504.53 1026.92 1632.23 1101.06 1711.03C1175.19 1789.83 1311.05 1796.04 1407.65 1840.54C1504.25 1885.04 1296.84 2250.23 1684.89 2312.95C2072.94 2375.66 2024.67 2041.93 2052.38 1992.8C2080.08 1943.66 2164.02 2018.75 2207.46 1992.8C2250.89 1966.84 2245.07 1867.36 2295.44 1830.85C2345.81 1794.34 2361.57 1811.66 2429.12 1788.73C2496.66 1765.79 2527.3 1617.75 2508.3 1583.19C2489.3 1548.64 2448.32 1493.63 2438.34 1473.97C2428.36 1454.31 2425.52 1441.45 2413.7 1409.63C2401.87 1377.8 2432.85 1353.38 2459.81 1296.83C2486.76 1240.28 2517.68 1164.76 2446.54 1101.16C2375.4 1037.55 2276.64 1121.72 2234.12 1058.56C2191.6 995.409 2240.58 950.911 2146.09 910.659C2051.6 870.406 1870.72 997.354 1832.17 967.566C1793.61 937.778 1850.53 865.742 1823.82 827.362C1797.1 788.982 1689.67 707.959 1650.29 668.207Z" fill="white"/>
</g>
<defs>
<filter id="filter0_d" x="0.306641" y="0.467773" width="2538.54" height="2394.3" filterUnits="userSpaceOnUse" color-interpolation-filters="sRGB">
<feFlood flood-opacity="0" result="BackgroundImageFix"/>
<feColorMatrix in="SourceAlpha" type="matrix" values="0 0 0 0 0 0 0 0 0 0 0 0 0 0 0 0 0 0 127 0"/>
<feOffset dy="49"/>
<feGaussianBlur stdDeviation="12.5"/>
<feColorMatrix type="matrix" values="0 0 0 0 0 0 0 0 0 0 0 0 0 0 0 0 0 0 0.25 0"/>
<feBlend mode="normal" in2="BackgroundImageFix" result="effect1_dropShadow"/>
<feBlend mode="normal" in="SourceGraphic" in2="effect1_dropShadow" result="shape"/>
</filter>
</defs>
</svg>
