<svg width="2534" height="2362" viewBox="0 0 2534 2362" fill="none" xmlns="http://www.w3.org/2000/svg">
<g filter="url(#filter0_d)">
<path d="M1690.2 769.526C1651.53 733.031 1683.36 574.204 1551.58 538.778C1375.77 491.512 311.399 0.701172 311.399 0.701172L25.6758 682.483C25.6758 682.483 626.737 1340.96 669.396 1385.25C712.055 1429.54 902.529 1557.51 1028.29 1523.47C1154.05 1489.42 1176.7 1452.31 1176.7 1495.71C1176.7 1539.12 1077.99 1654.55 1150.8 1726.89C1223.61 1799.23 1357.03 1804.94 1451.9 1845.79C1546.77 1886.64 1343.07 2221.9 1724.18 2279.48C2105.29 2337.06 2029.9 2047 2057.11 2001.9C2084.32 1956.79 2194.74 2009.4 2237.39 1985.57C2280.05 1961.74 2274.33 1870.41 2323.8 1836.89C2373.27 1803.38 2388.75 1819.28 2455.09 1798.22C2521.42 1777.17 2506.71 1623.24 2501.45 1614.31C2496.2 1605.38 2461.79 1524.07 2451.98 1506.03C2442.35 1488.3 2437.95 1477.2 2426.78 1449.12L2426.18 1447.59C2414.56 1418.37 2440.56 1389.5 2467.04 1337.58C2493.51 1285.67 2542.07 1225.39 2472.2 1167C2402.33 1108.6 2305.34 1185.87 2263.58 1127.89C2221.82 1069.91 2269.92 1029.06 2177.12 992.109C2084.32 955.155 1937.09 1055.54 1863.53 1043.44C1789.97 1031.35 1866.88 923.028 1840.64 887.793C1814.4 852.558 1728.87 806.02 1690.2 769.526Z" fill="white"/>
</g>
<defs>
<filter id="filter0_d" x="0.675781" y="0.701172" width="2532.58" height="2360.31" filterUnits="userSpaceOnUse" color-interpolation-filters="sRGB">
<feFlood flood-opacity="0" result="BackgroundImageFix"/>
<feColorMatrix in="SourceAlpha" type="matrix" values="0 0 0 0 0 0 0 0 0 0 0 0 0 0 0 0 0 0 127 0"/>
<feOffset dy="49"/>
<feGaussianBlur stdDeviation="12.5"/>
<feColorMatrix type="matrix" values="0 0 0 0 0 0 0 0 0 0 0 0 0 0 0 0 0 0 0.25 0"/>
<feBlend mode="normal" in2="BackgroundImageFix" result="effect1_dropShadow"/>
<feBlend mode="normal" in="SourceGraphic" in2="effect1_dropShadow" result="shape"/>
</filter>
</defs>
</svg>
