<svg width="2478" height="2213" viewBox="0 0 2478 2213" fill="none" xmlns="http://www.w3.org/2000/svg">
<g filter="url(#filter0_d)">
<path d="M1677.53 884.557C1613.03 859.64 1698.87 776.973 1542.34 678.443C1312.01 533.462 363.161 0 363.161 0L25 733.352C25 733.352 844.486 1339.41 952.802 1397.16C1059.8 1454.21 1232.96 1407.19 1268.64 1397.5L1269.9 1397.16C1302.56 1388.3 1340.18 1381.02 1340.18 1425.25C1340.18 1469.47 1216.09 1579.55 1290.15 1653.25C1364.22 1726.96 1494.03 1719.44 1590.53 1761.06C1687.04 1802.68 1624.2 1986.59 1667.19 2039.05C1710.19 2091.5 1841.24 2185.27 1937.16 2112.16C2033.07 2039.05 2008.28 1932.39 2051.67 1908.11C2095.06 1883.83 2234.29 1956.87 2272.44 1895.3C2310.59 1833.74 2227.41 1757.75 2298.48 1757.75C2369.55 1757.75 2396.42 1749.08 2422.88 1716.86C2449.34 1684.64 2459.35 1619.39 2448.97 1580.55C2438.59 1541.72 2427.1 1526.92 2408.87 1497.53C2390.64 1468.14 2351.76 1478.14 2378.69 1425.25C2405.62 1372.35 2493.95 1313.32 2422.88 1253.83C2351.81 1194.34 2277.13 1256.72 2234.66 1197.65C2192.18 1138.58 2246.46 1088.59 2140.97 1084.89C2035.49 1081.18 1901.72 1135.19 1863.57 1119.59C1825.41 1103.98 1843.72 988.647 1815.2 947.755C1786.67 906.862 1742.02 909.475 1677.53 884.557Z" fill="white"/>
</g>
<defs>
<filter id="filter0_d" x="0" y="0" width="2478" height="2213" filterUnits="userSpaceOnUse" color-interpolation-filters="sRGB">
<feFlood flood-opacity="0" result="BackgroundImageFix"/>
<feColorMatrix in="SourceAlpha" type="matrix" values="0 0 0 0 0 0 0 0 0 0 0 0 0 0 0 0 0 0 127 0"/>
<feOffset dy="49"/>
<feGaussianBlur stdDeviation="12.5"/>
<feColorMatrix type="matrix" values="0 0 0 0 0 0 0 0 0 0 0 0 0 0 0 0 0 0 0.25 0"/>
<feBlend mode="normal" in2="BackgroundImageFix" result="effect1_dropShadow"/>
<feBlend mode="normal" in="SourceGraphic" in2="effect1_dropShadow" result="shape"/>
</filter>
</defs>
</svg>
