<svg width="1440" height="900" viewBox="0 0 1440 900" fill="none" xmlns="http://www.w3.org/2000/svg">
<g filter="url(#filter0_i)">
<path d="M91.1425 -468.795C-31.9654 -407.726 -113.674 -340.787 -143.605 -206.69C-175.915 -61.9293 29.3319 11.3483 -18.2387 151.837C-55.2306 261.084 -254.155 292.244 -342.867 326.64C-430.71 360.699 -574.183 532.076 -545.948 621.943C-497.111 777.384 -100.547 764.791 32.6026 858.739C254.904 1015.59 28.4079 1286.99 292.71 1351.6C480.545 1397.51 548.221 1130 741.221 1141.88C952.11 1154.87 976.833 1411.74 1184.15 1452.52C1394.96 1493.98 1452.03 1248.45 1500.8 1038.56L1502.12 1032.88C1534.38 894.137 1240.05 811.03 1408.62 621.943C1530.43 485.311 1581.8 764.425 1660.5 704.128C1767.78 621.943 1776.33 672.983 1860.6 478.179C1940.79 292.791 1733.65 175.931 1555.3 122.53C1450.43 91.1295 1343.96 131.404 1277.76 10.5796C1201.57 -128.472 1426.99 -220.621 1386.96 -314.35C1343.35 -416.441 1637.13 -494.202 1555.3 -569.234C1485.86 -632.903 1414.13 -622.684 1319.91 -622.138C1196.03 -621.42 1141.16 -533.006 1017.45 -526.572C829.382 -516.791 720.556 -790.32 562.853 -687.423C488.178 -638.699 505.182 -551.747 432.645 -499.895C323.711 -422.024 211.104 -528.303 91.1425 -468.795Z" fill="#F8F8F8"/>
</g>
<g filter="url(#filter1_i)">
<path d="M262.198 -174.685C181.201 -134.505 127.442 -90.4638 107.749 -2.23617C86.4915 93.0068 166.059 109.578 134.761 202.01C110.423 273.888 35.0142 326.03 -23.3524 348.66C-81.1473 371.069 -175.543 483.824 -156.967 542.951C-124.835 645.221 86.8542 711.011 174.458 772.822C320.718 876.021 220.923 980.51 394.817 1023.02C518.399 1053.22 562.926 877.219 689.908 885.037C828.659 893.58 844.925 1062.59 981.325 1089.42C1121.28 1116.94 1304.25 1143.35 1336.55 1004.45C1357.77 913.166 1276.98 880.387 1288.33 787.357C1296.23 722.606 1295.81 672.211 1336.55 621.257C1423.75 512.176 1584.56 604.365 1640.01 476.196C1692.77 354.223 1658.23 229.823 1554.4 146.841C1491.72 96.7418 1333.48 196.964 1270.82 146.841C1218.45 104.951 1186.17 13.3662 1220.06 -48.7528C1255.04 -112.867 1279.36 -191.401 1225.52 -240.767C1179.83 -282.657 1132.64 -275.933 1070.65 -275.574C989.146 -275.102 953.041 -216.932 871.646 -212.698C747.912 -206.263 676.312 -386.228 572.553 -318.528C523.421 -286.471 534.609 -229.262 486.885 -195.146C415.213 -143.913 341.125 -213.837 262.198 -174.685Z" fill="#F7F7F7"/>
</g>
<g filter="url(#filter2_i)">
<path d="M314.875 14.8995C253.482 47.2171 213.051 82.0031 199.552 150.086C184.981 223.582 191.719 261.947 169.395 333.469C152.035 389.086 146.912 470.982 102.557 489.417C58.6363 507.671 -8.88667 528.349 6.43733 573.397C32.9432 651.314 192.991 669.559 261.307 715.41C375.365 791.961 304.238 902.384 438.387 931.844C533.724 952.781 587.811 838.295 685.348 841.983C791.925 846.013 784.338 954.019 889.444 972.127C997.29 990.707 1138.11 1007.65 1160.35 900.437C1174.97 829.979 1179.64 787.027 1186.65 715.41C1191.53 665.563 1235.81 648.677 1266.13 608.822C1331.03 523.502 1379.57 544.335 1419.76 444.942C1458.01 350.354 1392.98 299.967 1311.84 238.162C1262.85 200.847 1209.33 187.419 1160.35 150.086C1119.42 118.885 1106.29 41.9563 1084.97 -4.90045C1061.74 -55.9373 1094.73 -16.4634 1052.53 -53.3763C1016.73 -84.6987 980.654 -78.6779 933.116 -77.2729C870.612 -75.4255 843.979 -30.1157 781.627 -25.3832C686.84 -18.189 628.649 -155.026 550.298 -101.169C513.198 -75.6672 522.82 -31.957 486.836 -4.90045C432.797 35.7326 374.699 -16.5919 314.875 14.8995Z" fill="#EEEEEE"/>
</g>
<g filter="url(#filter3_i)">
<path d="M464.67 46.9937C416.982 72.028 378.358 102.194 367.873 154.934C356.555 211.867 293.745 193.683 276.405 249.087C262.921 292.17 245.841 372.187 228.894 405.416C189.71 482.248 177.807 534.642 189.71 569.537C210.298 629.895 265.522 665.236 318.587 700.754C407.182 760.053 360.468 855.587 464.67 878.408C538.724 894.627 619.799 772.065 695.561 774.921C778.345 778.043 793.951 864.381 875.593 878.408C959.363 892.801 1068.75 905.922 1086.02 822.875C1097.38 768.295 1096.84 770.887 1102.28 715.41C1106.08 676.797 1111.15 672.115 1134.7 641.242C1185.11 575.15 1228.13 581.477 1259.35 504.483C1289.06 431.212 1266.72 357.729 1203.69 309.852C1165.64 280.947 1160.31 278.006 1122.27 249.087C1090.47 224.917 1046.92 191.231 1030.35 154.934C1012.31 115.399 1035.05 112.61 1002.27 84.016C974.464 59.7526 946.441 64.4165 909.516 65.5049C860.965 66.9359 840.277 102.035 791.845 105.7C718.219 111.273 673.018 5.27409 612.158 46.9937C583.34 66.7487 579.649 44.5459 551.698 65.5049C509.723 96.9807 511.138 22.5993 464.67 46.9937Z" fill="#E6E6E6"/>
</g>
<g filter="url(#filter4_i)">
<path d="M519.26 196.292C480.458 212.399 459.508 244.955 431.368 265.739C400.397 288.613 380.184 290.669 366.075 326.315C355.104 354.033 341.206 405.515 327.418 426.894C295.534 476.326 285.849 510.035 295.534 532.486C312.286 571.319 357.22 594.056 400.397 616.908C472.484 655.06 434.474 716.524 519.26 731.206C579.514 741.641 646.931 711.78 708.576 713.618C775.935 715.627 787.184 722.182 853.613 731.206C921.774 740.467 1010.78 748.908 1024.83 695.477C1034.07 660.362 1033.63 662.03 1038.06 626.337C1041.15 601.494 1045.28 598.482 1064.44 578.619C1105.46 536.097 1140.46 540.167 1165.86 490.631C1190.04 443.49 1171.86 396.213 1120.58 365.41C1089.61 346.813 1085.28 344.921 1054.32 326.315C1028.45 310.764 993.013 289.091 979.536 265.739C964.857 240.303 983.356 238.509 956.689 220.112C934.061 204.501 911.26 207.502 881.215 208.202C841.711 209.123 846.418 217.753 807.01 220.112C747.103 223.697 767.492 196.293 672.916 174.477C646.928 168.482 604.19 160.99 581.447 174.475C547.293 194.726 557.069 180.598 519.26 196.292Z" fill="#D8D8D8"/>
</g>
<g filter="url(#filter5_i)">
<path d="M574.071 267.474C545.165 279.748 533.785 301.141 515.397 320.395C485.521 351.678 470.463 339.394 459.952 366.557C451.778 387.68 441.425 426.911 431.153 443.202C407.4 480.872 400.185 506.56 407.4 523.668C419.88 553.261 453.355 570.588 485.521 588.002C539.224 617.075 510.908 663.914 574.071 675.102C618.96 683.054 669.184 660.299 715.108 661.7C765.289 663.23 773.669 668.225 823.158 675.102C873.936 682.159 940.241 688.592 950.712 647.875C957.594 621.116 957.269 622.387 960.57 595.187C962.868 576.256 965.944 573.961 980.218 558.824C1010.78 526.42 1036.85 529.522 1055.78 491.773C1073.79 455.85 1060.25 419.822 1022.04 396.349C998.974 382.177 995.742 380.736 972.682 366.557C953.41 354.707 927.008 338.191 916.968 320.395C906.033 301.012 919.814 299.645 899.948 285.626C883.09 273.73 866.104 276.016 843.721 276.55C814.291 277.251 817.798 283.828 788.44 285.626C743.81 288.358 759 267.475 688.542 250.85C669.182 246.282 637.342 240.572 620.4 250.848C594.956 266.28 602.239 255.514 574.071 267.474Z" fill="#C9C9C9"/>
</g>
<g filter="url(#filter6_i)">
<path d="M632.107 333.685C613.758 342.327 598.897 352.741 594.862 370.946C590.507 390.599 566.34 384.322 559.668 403.448C554.479 418.32 547.908 445.942 541.387 457.412C526.309 483.935 521.729 502.021 526.309 514.067C534.231 534.902 555.48 547.102 575.898 559.363C609.988 579.833 592.013 612.811 632.107 620.689C660.601 626.287 692.482 610.266 721.634 611.252C753.487 612.33 758.806 615.847 790.22 620.689C822.453 625.657 864.541 630.187 871.188 601.519C875.557 582.678 875.35 583.573 877.446 564.422C878.904 551.093 880.857 549.477 889.918 538.819C909.315 516.005 925.867 518.189 937.88 491.61C949.312 466.317 940.717 440.951 916.465 424.424C901.823 414.446 899.772 413.431 885.134 403.448C872.9 395.104 856.141 383.476 849.768 370.946C842.827 357.299 851.575 356.336 838.964 346.465C828.264 338.09 817.481 339.7 803.273 340.075C784.592 340.569 786.818 345.2 768.182 346.465C739.853 348.389 749.495 333.686 704.77 321.98C692.481 318.764 672.27 314.744 661.515 321.979C645.364 332.845 649.987 325.264 632.107 333.685Z" fill="#C4C4C4"/>
</g>
<defs>
<filter id="filter0_i" x="-551.568" y="-710.608" width="2429.93" height="2190.75" filterUnits="userSpaceOnUse" color-interpolation-filters="sRGB">
<feFlood flood-opacity="0" result="BackgroundImageFix"/>
<feBlend mode="normal" in="SourceGraphic" in2="BackgroundImageFix" result="shape"/>
<feColorMatrix in="SourceAlpha" type="matrix" values="0 0 0 0 0 0 0 0 0 0 0 0 0 0 0 0 0 0 127 0" result="hardAlpha"/>
<feOffset dx="-2" dy="23"/>
<feGaussianBlur stdDeviation="23"/>
<feComposite in2="hardAlpha" operator="arithmetic" k2="-1" k3="1"/>
<feColorMatrix type="matrix" values="0 0 0 0 0 0 0 0 0 0 0 0 0 0 0 0 0 0 0.25 0"/>
<feBlend mode="normal" in2="shape" result="effect1_innerShadow"/>
</filter>
<filter id="filter1_i" x="-161.349" y="-333.782" width="1825.79" height="1468.19" filterUnits="userSpaceOnUse" color-interpolation-filters="sRGB">
<feFlood flood-opacity="0" result="BackgroundImageFix"/>
<feBlend mode="normal" in="SourceGraphic" in2="BackgroundImageFix" result="shape"/>
<feColorMatrix in="SourceAlpha" type="matrix" values="0 0 0 0 0 0 0 0 0 0 0 0 0 0 0 0 0 0 127 0" result="hardAlpha"/>
<feOffset dx="-2" dy="23"/>
<feGaussianBlur stdDeviation="23"/>
<feComposite in2="hardAlpha" operator="arithmetic" k2="-1" k3="1"/>
<feColorMatrix type="matrix" values="0 0 0 0 0 0 0 0 0 0 0 0 0 0 0 0 0 0 0.25 0"/>
<feBlend mode="normal" in2="shape" result="effect1_innerShadow"/>
</filter>
<filter id="filter2_i" x="2.21875" y="-113.757" width="1428.8" height="1122.63" filterUnits="userSpaceOnUse" color-interpolation-filters="sRGB">
<feFlood flood-opacity="0" result="BackgroundImageFix"/>
<feBlend mode="normal" in="SourceGraphic" in2="BackgroundImageFix" result="shape"/>
<feColorMatrix in="SourceAlpha" type="matrix" values="0 0 0 0 0 0 0 0 0 0 0 0 0 0 0 0 0 0 127 0" result="hardAlpha"/>
<feOffset dx="-2" dy="23"/>
<feGaussianBlur stdDeviation="23"/>
<feComposite in2="hardAlpha" operator="arithmetic" k2="-1" k3="1"/>
<feColorMatrix type="matrix" values="0 0 0 0 0 0 0 0 0 0 0 0 0 0 0 0 0 0 0.25 0"/>
<feBlend mode="normal" in2="shape" result="effect1_innerShadow"/>
</filter>
<filter id="filter3_i" x="183.299" y="37.2427" width="1089.05" height="874.817" filterUnits="userSpaceOnUse" color-interpolation-filters="sRGB">
<feFlood flood-opacity="0" result="BackgroundImageFix"/>
<feBlend mode="normal" in="SourceGraphic" in2="BackgroundImageFix" result="shape"/>
<feColorMatrix in="SourceAlpha" type="matrix" values="0 0 0 0 0 0 0 0 0 0 0 0 0 0 0 0 0 0 127 0" result="hardAlpha"/>
<feOffset dx="-2" dy="23"/>
<feGaussianBlur stdDeviation="23"/>
<feComposite in2="hardAlpha" operator="arithmetic" k2="-1" k3="1"/>
<feColorMatrix type="matrix" values="0 0 0 0 0 0 0 0 0 0 0 0 0 0 0 0 0 0 0.25 0"/>
<feBlend mode="normal" in2="shape" result="effect1_innerShadow"/>
</filter>
<filter id="filter4_i" x="289.945" y="166.918" width="886.491" height="594.141" filterUnits="userSpaceOnUse" color-interpolation-filters="sRGB">
<feFlood flood-opacity="0" result="BackgroundImageFix"/>
<feBlend mode="normal" in="SourceGraphic" in2="BackgroundImageFix" result="shape"/>
<feColorMatrix in="SourceAlpha" type="matrix" values="0 0 0 0 0 0 0 0 0 0 0 0 0 0 0 0 0 0 127 0" result="hardAlpha"/>
<feOffset dx="-2" dy="23"/>
<feGaussianBlur stdDeviation="23"/>
<feComposite in2="hardAlpha" operator="arithmetic" k2="-1" k3="1"/>
<feColorMatrix type="matrix" values="0 0 0 0 0 0 0 0 0 0 0 0 0 0 0 0 0 0 0.25 0"/>
<feBlend mode="normal" in2="shape" result="effect1_innerShadow"/>
</filter>
<filter id="filter5_i" x="402.727" y="245.09" width="660.928" height="458.235" filterUnits="userSpaceOnUse" color-interpolation-filters="sRGB">
<feFlood flood-opacity="0" result="BackgroundImageFix"/>
<feBlend mode="normal" in="SourceGraphic" in2="BackgroundImageFix" result="shape"/>
<feColorMatrix in="SourceAlpha" type="matrix" values="0 0 0 0 0 0 0 0 0 0 0 0 0 0 0 0 0 0 127 0" result="hardAlpha"/>
<feOffset dx="-2" dy="23"/>
<feGaussianBlur stdDeviation="23"/>
<feComposite in2="hardAlpha" operator="arithmetic" k2="-1" k3="1"/>
<feColorMatrix type="matrix" values="0 0 0 0 0 0 0 0 0 0 0 0 0 0 0 0 0 0 0.25 0"/>
<feBlend mode="normal" in2="shape" result="effect1_innerShadow"/>
</filter>
<filter id="filter6_i" x="522.612" y="317.925" width="420.268" height="329.441" filterUnits="userSpaceOnUse" color-interpolation-filters="sRGB">
<feFlood flood-opacity="0" result="BackgroundImageFix"/>
<feBlend mode="normal" in="SourceGraphic" in2="BackgroundImageFix" result="shape"/>
<feColorMatrix in="SourceAlpha" type="matrix" values="0 0 0 0 0 0 0 0 0 0 0 0 0 0 0 0 0 0 127 0" result="hardAlpha"/>
<feOffset dx="-2" dy="23"/>
<feGaussianBlur stdDeviation="23"/>
<feComposite in2="hardAlpha" operator="arithmetic" k2="-1" k3="1"/>
<feColorMatrix type="matrix" values="0 0 0 0 0 0 0 0 0 0 0 0 0 0 0 0 0 0 0.25 0"/>
<feBlend mode="normal" in2="shape" result="effect1_innerShadow"/>
</filter>
</defs>
</svg>
