<svg width="3366" height="3313" fill="none" xmlns="http://www.w3.org/2000/svg">
  <g filter="url(#filter0_d)">
    <path d="M1960.11 633.824c-62.97-62.667 119.57-197.313-94.99-258.145C1578.85 294.514 761.084 0 761.084 0L25 1384.23s203.563 230.85 273.021 306.9c69.458 76.05 658.727 346.1 771.049 389.45 112.32 43.34 99.13-5.1 110.62 10.19 11.48 15.3-28.08 65.02-11.49 104.54 16.59 39.52 249.43 216.49 403.91 286.64 154.47 70.15-177.2 645.85 443.33 744.72 620.52 98.88 543.33-427.24 587.63-504.69 44.31-77.46 178.54 40.92 247.99 0 69.45-40.92 60.15-197.75 140.69-255.3 80.54-57.56 105.75-30.26 213.76-66.41 108-36.16 157-269.54 126.62-324.02-30.39-54.47-115.71-146.74-131.67-177.73-15.68-30.44-22.86-49.49-41.02-97.69l-1-2.66c-18.91-50.17 23.42-99.74 66.53-188.89 43.11-89.15 122.16-192.66 8.4-292.93-113.75-100.27-271.68 32.41-339.67-67.15-67.99-99.56 10.32-169.71-140.78-233.16-151.09-63.459-440.32 136.67-501.98 89.71-61.65-46.96 29.37-160.521-13.35-221.026-42.72-60.504-214.51-188.232-277.48-250.9z" fill="#fff"/>
  </g>
  <defs>
    <filter id="filter0_d" x="0" y="0" width="3366" height="3313" filterUnits="userSpaceOnUse" color-interpolation-filters="sRGB">
      <feFlood flood-opacity="0" result="BackgroundImageFix"/>
      <feColorMatrix in="SourceAlpha" values="0 0 0 0 0 0 0 0 0 0 0 0 0 0 0 0 0 0 127 0"/>
      <feOffset dy="49"/>
      <feGaussianBlur stdDeviation="12.5"/>
      <feColorMatrix values="0 0 0 0 0 0 0 0 0 0 0 0 0 0 0 0 0 0 0.25 0"/>
      <feBlend in2="BackgroundImageFix" result="effect1_dropShadow"/>
      <feBlend in="SourceGraphic" in2="effect1_dropShadow" result="shape"/>
    </filter>
  </defs>
</svg>