<svg width="3304" height="3253" fill="none" xmlns="http://www.w3.org/2000/svg">
  <g filter="url(#filter0_d)">
    <path d="M1923.93 622.083c-61.79-61.507 117.33-193.658-93.22-253.363C1549.8 289.059 747.321 0 747.321 0L25 1358.59s199.757 226.57 267.916 301.21c68.159 74.65 646.41 339.69 756.634 382.23 110.22 42.55 97.27-5 108.55 10.01 11.27 15.02-27.56 63.82-11.28 102.61 16.29 38.78 244.78 212.47 396.36 281.32s-173.88 633.89 435.04 730.93c608.92 97.04 533.17-419.33 576.65-495.35 43.48-76.02 175.2 40.17 243.35 0 68.15-40.16 59.02-194.08 138.06-250.57 79.03-56.48 103.78-29.69 209.76-65.18 105.99-35.48 154.07-264.54 124.26-318.01-29.82-53.46-113.55-144.02-129.22-174.44-15.38-29.87-22.42-48.57-40.25-95.89l-.98-2.6c-18.56-49.24 22.99-97.9 65.29-185.39 42.3-87.5 119.88-189.09 8.25-287.51-111.64-98.41-266.61 31.82-333.33-65.9-66.72-97.71 10.13-166.56-138.14-228.844-148.27-62.281-432.1 134.144-492.6 88.054s28.83-157.55-13.1-216.934c-41.92-59.384-210.5-184.746-272.29-246.253z" fill="#fff"/>
  </g>
  <defs>
    <filter id="filter0_d" x="0" y="0" width="3304" height="3253" filterUnits="userSpaceOnUse" color-interpolation-filters="sRGB">
      <feFlood flood-opacity="0" result="BackgroundImageFix"/>
      <feColorMatrix in="SourceAlpha" values="0 0 0 0 0 0 0 0 0 0 0 0 0 0 0 0 0 0 127 0"/>
      <feOffset dy="49"/>
      <feGaussianBlur stdDeviation="12.5"/>
      <feColorMatrix values="0 0 0 0 0 0 0 0 0 0 0 0 0 0 0 0 0 0 0.25 0"/>
      <feBlend in2="BackgroundImageFix" result="effect1_dropShadow"/>
      <feBlend in="SourceGraphic" in2="effect1_dropShadow" result="shape"/>
    </filter>
  </defs>
</svg>