<svg width="3236" height="3187" fill="none" xmlns="http://www.w3.org/2000/svg">
  <g filter="url(#filter0_d)">
    <path d="M1884.25 609.168c-60.5-60.23 114.87-189.638-91.27-248.103C1517.93 283.057 732.227 0 732.227 0L25 1330.38s195.583 221.87 262.318 294.96c66.734 73.1 632.901 332.64 740.822 374.3 107.91 41.66 95.24-4.9 106.28 9.8 11.04 14.7-26.98 62.49-11.04 100.47 15.94 37.99 239.66 208.07 388.07 275.49 148.42 67.42-170.24 620.73 425.96 715.75 596.19 95.03 522.02-410.62 564.59-485.06 42.57-74.44 171.54 39.33 238.27 0 66.73-39.33 57.79-190.06 135.17-245.37s101.61-29.08 205.38-63.82c103.77-34.75 150.85-259.06 121.66-311.41-29.2-52.36-111.18-141.04-126.51-170.82-15.06-29.26-21.96-47.56-39.41-93.89l-.97-2.56c-18.17-48.22 22.51-95.86 63.93-181.54 41.42-85.68 117.37-185.17 8.07-281.54-109.3-96.37-261.03 31.15-326.36-64.53-65.32-95.69 9.92-163.11-135.25-224.097-145.18-60.988-423.07 131.357-482.3 86.217-59.24-45.13 28.22-154.271-12.83-212.422-41.05-58.151-206.1-180.91-266.6-241.14z" fill="#fff"/>
  </g>
  <defs>
    <filter id="filter0_d" x="0" y="0" width="3236" height="3187" filterUnits="userSpaceOnUse" color-interpolation-filters="sRGB">
      <feFlood flood-opacity="0" result="BackgroundImageFix"/>
      <feColorMatrix in="SourceAlpha" values="0 0 0 0 0 0 0 0 0 0 0 0 0 0 0 0 0 0 127 0"/>
      <feOffset dy="49"/>
      <feGaussianBlur stdDeviation="12.5"/>
      <feColorMatrix values="0 0 0 0 0 0 0 0 0 0 0 0 0 0 0 0 0 0 0.25 0"/>
      <feBlend in2="BackgroundImageFix" result="effect1_dropShadow"/>
      <feBlend in="SourceGraphic" in2="effect1_dropShadow" result="shape"/>
    </filter>
  </defs>
</svg>