<svg width="3149" height="3102" fill="none" xmlns="http://www.w3.org/2000/svg">
  <g filter="url(#filter0_d)">
    <path d="M1833.31 592.654c-58.83-58.572 111.7-184.416-88.75-241.272C1477.1 275.522 713.087.258 713.087.258L25.381 1294.01s190.184 215.76 255.077 286.84c64.892 71.08 615.432 323.48 720.372 363.99 104.94 40.51 92.61-4.76 103.35 9.53 10.73 14.3-26.24 60.77-10.74 97.71 15.51 36.94 233.05 202.34 377.37 267.9 144.32 65.56-165.55 603.64 414.19 696.05 579.74 92.41 507.62-399.32 549.01-471.71 41.4-72.39 166.8 38.24 231.69 0 64.89-38.25 56.19-184.82 131.44-238.61 75.25-53.8 98.81-28.28 199.71-62.07 100.91-33.79 146.69-251.92 118.3-302.84-28.39-50.91-108.11-137.15-123.02-166.11-14.64-28.45-21.35-46.25-38.32-91.31l-.94-2.48c-17.66-46.9 21.89-93.23 62.17-176.55 40.27-83.32 114.13-180.07 7.85-273.78-106.28-93.72-253.83 30.29-317.35-62.76-63.53-93.05 9.64-158.62-131.53-217.925-141.16-59.309-411.38 127.735-468.99 83.845-57.6-43.888 27.45-150.025-12.47-206.575-39.91-56.55-200.41-175.93-259.24-234.501z" fill="#fff"/>
  </g>
  <defs>
    <filter id="filter0_d" x=".381" y=".258" width="3148.06" height="3101.29" filterUnits="userSpaceOnUse" color-interpolation-filters="sRGB">
      <feFlood flood-opacity="0" result="BackgroundImageFix"/>
      <feColorMatrix in="SourceAlpha" values="0 0 0 0 0 0 0 0 0 0 0 0 0 0 0 0 0 0 127 0"/>
      <feOffset dy="49"/>
      <feGaussianBlur stdDeviation="12.5"/>
      <feColorMatrix values="0 0 0 0 0 0 0 0 0 0 0 0 0 0 0 0 0 0 0.25 0"/>
      <feBlend in2="BackgroundImageFix" result="effect1_dropShadow"/>
      <feBlend in="SourceGraphic" in2="effect1_dropShadow" result="shape"/>
    </filter>
  </defs>
</svg>