<svg width="3067" height="3022" fill="none" xmlns="http://www.w3.org/2000/svg">
  <g filter="url(#filter0_d)">
    <path d="M1802.95 609.397c-56.48-56.236 107.23-177.061-85.2-231.649C1461 304.914 672.418.182 672.418.182L25.848 1221.87s224.114 268.06 286.409 336.31c62.295 68.25 556.082 284.05 664.996 334.49 108.917 50.44 148.657 3.18 146.677 23.43-1.99 20.26-106.33 45.42 0 156.89 106.32 111.47 192.48 131.89 331.03 194.84 138.54 62.95-158.92 579.56 397.61 668.29 556.53 88.72 487.3-383.39 527.03-452.9 39.74-69.5 160.13 36.72 222.42 0 62.29-36.72 53.94-177.45 126.18-229.1 72.23-51.64 94.85-27.14 191.71-59.59 96.87-32.44 140.82-241.87 113.57-290.76-27.25-48.88-103.78-131.68-118.1-159.48-14.06-27.32-20.49-44.41-36.79-87.67l-.9-2.38c-16.95-45.03 21.02-89.51 59.68-169.51 38.66-80 109.56-172.89 7.54-262.86-102.03-89.98-243.67 29.08-304.65-60.26-60.98-89.34 9.26-152.29-126.26-209.23-135.52-56.943-394.92 122.64-450.22 80.5-55.29-42.137 26.35-144.041-11.97-198.335-38.31-54.295-192.39-168.913-248.86-225.148z" fill="#fff"/>
  </g>
  <defs>
    <filter id="filter0_d" x=".848" y=".182" width="3065.59" height="3021" filterUnits="userSpaceOnUse" color-interpolation-filters="sRGB">
      <feFlood flood-opacity="0" result="BackgroundImageFix"/>
      <feColorMatrix in="SourceAlpha" values="0 0 0 0 0 0 0 0 0 0 0 0 0 0 0 0 0 0 127 0"/>
      <feOffset dy="49"/>
      <feGaussianBlur stdDeviation="12.5"/>
      <feColorMatrix values="0 0 0 0 0 0 0 0 0 0 0 0 0 0 0 0 0 0 0.25 0"/>
      <feBlend in2="BackgroundImageFix" result="effect1_dropShadow"/>
      <feBlend in="SourceGraphic" in2="effect1_dropShadow" result="shape"/>
    </filter>
  </defs>
</svg>