<svg width="2980" height="2937" fill="none" xmlns="http://www.w3.org/2000/svg">
  <g filter="url(#filter0_d)">
    <path d="M1751.66 591.851c-54.87-54.632 104.19-172.014-82.77-225.046C1419.42 296.047 653.22 0 653.22 0L25 1186.86s217.754 260.43 278.281 326.73c60.527 66.3 540.3 275.95 646.122 324.96 105.827 49 144.447 3.09 142.517 22.76-1.94 19.68-103.311 44.12 0 152.42 103.3 108.29 187.02 128.13 321.63 189.28 134.61 61.16-154.41 563.05 386.33 649.24 540.73 86.2 473.47-372.46 512.07-439.98 38.61-67.53 155.58 35.67 216.11 0 60.52-35.68 52.41-172.4 122.59-222.57 70.19-50.17 92.16-26.37 186.28-57.89s136.82-234.98 110.34-282.47c-26.48-47.49-100.83-127.93-114.74-154.95-13.66-26.53-19.92-43.14-35.75-85.17l-.87-2.31c-16.48-43.74 20.41-86.96 57.98-164.67 37.56-77.72 106.45-167.96 7.32-255.38-99.13-87.41-236.75 28.26-296-58.53-59.25-86.8 9-147.952-122.67-203.272-131.67-55.32-383.71 119.152-437.44 78.212-53.73-40.941 25.6-139.941-11.63-192.688-37.23-52.747-186.94-164.098-241.81-218.731z" fill="#fff"/>
  </g>
  <defs>
    <filter id="filter0_d" x="0" y="0" width="2980" height="2937" filterUnits="userSpaceOnUse" color-interpolation-filters="sRGB">
      <feFlood flood-opacity="0" result="BackgroundImageFix"/>
      <feColorMatrix in="SourceAlpha" values="0 0 0 0 0 0 0 0 0 0 0 0 0 0 0 0 0 0 127 0"/>
      <feOffset dy="49"/>
      <feGaussianBlur stdDeviation="12.5"/>
      <feColorMatrix values="0 0 0 0 0 0 0 0 0 0 0 0 0 0 0 0 0 0 0.25 0"/>
      <feBlend in2="BackgroundImageFix" result="effect1_dropShadow"/>
      <feBlend in="SourceGraphic" in2="effect1_dropShadow" result="shape"/>
    </filter>
  </defs>
</svg>