<svg width="2955" height="2870" fill="none" xmlns="http://www.w3.org/2000/svg">
  <g filter="url(#filter0_d)">
    <path d="M1760.05 587.227c-53.33-53.13 101.28-167.285-80.45-218.86C1437.12 299.554 580.712.561 580.712.561L25.277 1071.23s268.141 347.92 326.972 412.4c58.831 64.48 477.081 288.79 581.621 331.29 104.54 42.5 113.68-32.17 147.47 0 33.79 32.17-84.268 58.78-35.38 149.73 48.89 90.96 254.61 129.98 385.45 189.45 130.84 59.48-150.08 547.57 375.51 631.4 525.59 83.82 460.2-362.23 497.73-427.9 37.53-65.66 151.22 34.7 210.05 0 58.82-34.69 50.94-167.65 119.16-216.44 68.22-48.8 89.58-25.65 181.06-56.31 91.48-30.65 132.98-228.52 107.25-274.7-25.74-46.19-98.01-124.41-111.53-150.69-13.28-25.8-19.36-41.95-34.75-82.83l-.84-2.25c-16.02-42.53 19.84-84.56 56.35-160.14 36.52-75.58 103.48-163.34 7.12-248.36-96.35-85.01-230.12 27.49-287.71-56.92-57.59-84.41 8.75-143.885-119.24-197.685-127.98-53.799-372.96 115.875-425.18 76.06-52.22-39.814 24.88-136.092-11.31-187.389-36.18-51.298-181.69-159.588-235.03-212.719z" fill="#fff"/>
  </g>
  <defs>
    <filter id="filter0_d" x=".277" y=".561" width="2954.4" height="2869.39" filterUnits="userSpaceOnUse" color-interpolation-filters="sRGB">
      <feFlood flood-opacity="0" result="BackgroundImageFix"/>
      <feColorMatrix in="SourceAlpha" values="0 0 0 0 0 0 0 0 0 0 0 0 0 0 0 0 0 0 127 0"/>
      <feOffset dy="49"/>
      <feGaussianBlur stdDeviation="12.5"/>
      <feColorMatrix values="0 0 0 0 0 0 0 0 0 0 0 0 0 0 0 0 0 0 0.25 0"/>
      <feBlend in2="BackgroundImageFix" result="effect1_dropShadow"/>
      <feBlend in="SourceGraphic" in2="effect1_dropShadow" result="shape"/>
    </filter>
  </defs>
</svg>