<svg width="1440" height="900" viewBox="0 0 1440 900" fill="none" xmlns="http://www.w3.org/2000/svg">
<g filter="url(#filter0_i)">
<path d="M-37.0407 -654.864C-187.528 -580.199 -287.409 -498.358 -323.996 -334.407C-363.492 -157.419 -112.598 -67.8284 -170.748 103.936C-215.967 237.505 -459.133 275.602 -567.575 317.655C-674.954 359.296 -850.336 568.826 -815.821 678.699C-756.123 868.746 -271.362 853.349 -108.6 968.212C163.141 1159.98 -113.728 1491.8 209.357 1570.79C438.965 1626.93 521.693 1299.86 757.617 1314.39C1015.41 1330.27 1045.63 1644.33 1299.05 1694.18C1556.75 1744.88 1626.5 1444.69 1686.13 1188.07L1687.75 1181.13C1727.18 1011.49 1367.39 909.882 1573.45 678.699C1722.35 511.65 1785.14 852.901 1881.35 779.181C2012.48 678.699 2022.93 741.103 2125.94 502.93C2223.97 276.27 1970.76 133.395 1752.75 68.1055C1624.55 29.7141 1494.41 78.9552 1413.48 -68.7682C1320.35 -238.776 1595.9 -351.44 1546.96 -466.036C1493.67 -590.855 1852.78 -685.927 1752.75 -777.663C1667.87 -855.505 1580.18 -843.011 1465.01 -842.344C1313.58 -841.467 1246.5 -733.37 1095.28 -725.503C865.384 -713.544 732.356 -1047.97 539.579 -922.163C448.296 -862.593 469.082 -756.282 380.413 -692.887C247.251 -597.681 109.6 -727.619 -37.0407 -654.864Z" fill="#F8F8F8"/>
</g>
<g filter="url(#filter1_i)">
<path d="M172.058 -295.277C73.0469 -246.153 7.33146 -192.306 -16.7403 -84.437C-42.7261 32.0094 54.538 52.2693 16.2788 165.279C-13.4724 253.159 -105.652 316.909 -176.999 344.578C-247.648 371.975 -363.038 509.833 -340.33 582.122C-301.052 707.16 -42.2827 787.596 64.804 863.168C243.592 989.342 121.603 1117.09 334.171 1169.06C485.239 1206 539.668 990.806 694.891 1000.37C864.501 1010.81 884.385 1217.44 1051.12 1250.24C1222.2 1283.9 1445.87 1316.19 1485.34 1146.37C1511.29 1034.76 1412.53 994.68 1426.4 880.939C1436.06 801.773 1435.55 740.159 1485.34 677.861C1591.94 544.496 1788.52 657.209 1856.3 500.506C1920.79 351.379 1878.57 199.284 1751.65 97.8283C1675.03 36.5759 1481.6 159.11 1405 97.8283C1340.98 46.6121 1301.52 -65.3612 1342.95 -141.309C1385.72 -219.697 1415.44 -315.714 1349.62 -376.071C1293.78 -427.286 1236.08 -419.066 1160.31 -418.627C1060.68 -418.05 1016.55 -346.929 917.049 -341.753C765.795 -333.885 678.271 -553.914 551.436 -471.143C491.378 -431.949 505.054 -362.004 446.715 -320.294C359.104 -257.654 268.538 -343.145 172.058 -295.277Z" fill="#F7F7F7"/>
</g>
<g filter="url(#filter2_i)">
<path d="M236.451 -63.4866C161.404 -23.9745 111.981 18.5557 95.4803 101.795C77.6679 191.654 85.9042 238.56 58.6156 326.004C37.3954 394.003 31.1325 494.131 -23.0872 516.67C-76.7758 538.987 -159.316 564.27 -140.584 619.345C-108.183 714.609 87.4599 736.916 170.97 792.974C310.395 886.567 223.448 1021.57 387.432 1057.59C503.972 1083.19 570.089 943.217 689.318 947.726C819.597 952.653 810.323 1084.7 938.805 1106.84C1070.64 1129.56 1242.78 1150.27 1269.96 1019.19C1287.83 933.049 1293.54 880.535 1302.11 792.974C1308.07 732.03 1362.21 711.384 1399.26 662.657C1478.6 558.343 1537.93 583.815 1587.06 462.294C1633.82 346.648 1554.33 285.044 1455.14 209.479C1395.26 163.858 1329.83 147.439 1269.96 101.795C1219.93 63.6481 1203.88 -30.4064 1177.81 -87.6946C1149.42 -150.093 1189.74 -101.832 1138.17 -146.962C1094.4 -185.258 1050.3 -177.897 992.19 -176.179C915.785 -173.92 883.228 -118.523 807.009 -112.737C691.142 -103.941 620.008 -271.242 524.233 -205.395C478.881 -174.216 490.643 -120.775 446.657 -87.6946C380.599 -38.0157 309.58 -101.989 236.451 -63.4866Z" fill="#EEEEEE"/>
</g>
<g filter="url(#filter3_i)">
<path d="M419.559 -24.2476C361.266 6.36002 314.052 43.2422 301.235 107.723C287.399 177.33 210.621 155.099 189.424 222.836C172.941 275.511 152.063 373.342 131.347 413.968C83.4474 507.905 68.8971 571.963 83.4474 614.627C108.615 688.422 176.12 731.631 240.987 775.056C349.287 847.557 292.183 964.359 419.559 992.26C510.083 1012.09 609.189 862.242 701.801 865.735C802.997 869.552 822.073 975.11 921.872 992.26C1024.27 1009.86 1157.98 1025.9 1179.1 924.364C1192.98 857.634 1192.32 860.802 1198.98 792.974C1203.61 745.765 1209.82 740.042 1238.6 702.295C1300.23 621.49 1352.81 629.225 1390.98 535.091C1427.29 445.507 1399.99 355.665 1322.94 297.129C1276.43 261.789 1269.91 258.194 1223.41 222.836C1184.54 193.286 1131.3 152.1 1111.05 107.723C1089 59.3862 1116.79 55.9766 1076.73 21.0168C1042.73 -8.64829 1008.48 -2.94609 963.34 -1.61538C903.992 0.134239 878.703 43.0467 819.499 47.5288C729.498 54.3424 674.244 -75.255 599.85 -24.2476C564.622 -0.0946579 560.11 -27.2404 525.943 -1.61538C474.632 36.8678 476.363 -54.0728 419.559 -24.2476Z" fill="#E6E6E6"/>
</g>
<g filter="url(#filter4_i)">
<path d="M486.29 158.289C438.859 177.981 413.25 217.785 378.852 243.196C340.992 271.162 316.284 273.676 299.037 317.257C285.626 351.147 268.638 414.089 251.782 440.227C212.808 500.664 200.969 541.878 212.808 569.327C233.286 616.805 288.212 644.605 340.992 672.543C429.112 719.189 382.649 794.337 486.29 812.288C559.946 825.045 642.356 788.537 717.711 790.784C800.051 793.24 813.801 801.254 895.004 812.288C978.325 823.609 1087.12 833.931 1104.3 768.605C1115.6 725.672 1115.06 727.711 1120.48 684.072C1124.25 653.698 1129.3 650.016 1152.72 625.731C1202.86 573.742 1245.65 578.719 1276.7 518.155C1306.25 460.519 1284.03 402.716 1221.34 365.056C1183.49 342.319 1178.19 340.005 1140.35 317.257C1108.73 298.245 1065.41 271.747 1048.93 243.196C1030.99 212.097 1053.6 209.903 1021.01 187.411C993.345 168.325 965.473 171.994 928.745 172.85C880.456 173.975 886.21 184.527 838.037 187.411C764.807 191.795 789.731 158.29 674.12 131.617C642.352 124.287 590.109 115.127 562.309 131.614C520.559 156.373 532.509 139.1 486.29 158.289Z" fill="#D8D8D8"/>
</g>
<g filter="url(#filter5_i)">
<path d="M553.292 245.317C517.957 260.324 504.047 286.479 481.569 310.02C445.048 348.267 426.641 333.248 413.793 366.458C403.801 392.284 391.146 440.249 378.588 460.167C349.553 506.223 340.734 537.629 349.553 558.546C364.809 594.727 405.728 615.911 445.048 637.202C510.696 672.748 476.081 730.014 553.292 743.693C608.164 753.415 669.558 725.594 725.696 727.307C787.037 729.178 797.281 735.285 857.776 743.693C919.848 752.321 1000.9 760.186 1013.7 710.405C1022.11 677.688 1021.71 679.242 1025.75 645.987C1028.56 622.841 1032.32 620.035 1049.77 601.529C1087.12 561.911 1119 565.703 1142.13 519.551C1164.14 475.63 1147.59 431.582 1100.89 402.883C1072.69 385.556 1068.74 383.793 1040.56 366.458C1017 351.97 984.723 331.778 972.45 310.02C959.083 286.321 975.929 284.65 951.644 267.51C931.038 252.965 910.273 255.761 882.912 256.413C846.938 257.271 851.224 265.312 815.337 267.51C760.782 270.85 779.349 245.318 693.222 224.992C669.555 219.407 630.635 212.426 609.925 224.99C578.822 243.857 587.724 230.694 553.292 245.317Z" fill="#C9C9C9"/>
</g>
<g filter="url(#filter6_i)">
<path d="M624.236 326.269C601.806 336.834 583.64 349.566 578.708 371.825C573.384 395.853 543.842 388.179 535.686 411.562C529.343 429.745 521.31 463.516 513.339 477.54C494.909 509.967 489.31 532.08 494.909 546.808C504.592 572.282 530.567 587.197 555.526 602.188C597.197 627.215 575.225 667.535 624.236 677.166C659.067 684.011 698.038 664.423 733.673 665.629C772.611 666.946 779.113 671.246 817.513 677.166C856.915 683.241 908.363 688.779 916.489 653.728C921.829 630.693 921.577 631.787 924.138 608.373C925.921 592.076 928.308 590.101 939.384 577.071C963.095 549.177 983.329 551.847 998.013 519.352C1011.99 488.427 1001.48 457.414 971.835 437.208C953.937 425.008 951.429 423.767 933.536 411.562C918.582 401.361 898.096 387.144 890.305 371.825C881.82 355.139 892.513 353.962 877.098 341.894C864.018 331.654 850.837 333.622 833.469 334.081C810.634 334.685 813.354 340.347 790.574 341.894C755.944 344.246 767.73 326.269 713.059 311.958C698.037 308.026 673.331 303.111 660.185 311.957C640.441 325.241 646.093 315.973 624.236 326.269Z" fill="#C4C4C4"/>
</g>
<defs>
<filter id="filter0_i" x="-822.246" y="-950.51" width="2969.9" height="2673.34" filterUnits="userSpaceOnUse" color-interpolation-filters="sRGB">
<feFlood flood-opacity="0" result="BackgroundImageFix"/>
<feBlend mode="normal" in="SourceGraphic" in2="BackgroundImageFix" result="shape"/>
<feColorMatrix in="SourceAlpha" type="matrix" values="0 0 0 0 0 0 0 0 0 0 0 0 0 0 0 0 0 0 127 0" result="hardAlpha"/>
<feOffset dx="-2" dy="23"/>
<feGaussianBlur stdDeviation="23"/>
<feComposite in2="hardAlpha" operator="arithmetic" k2="-1" k3="1"/>
<feColorMatrix type="matrix" values="0 0 0 0 0 0 0 0 0 0 0 0 0 0 0 0 0 0 0.25 0"/>
<feBlend mode="normal" in2="shape" result="effect1_innerShadow"/>
</filter>
<filter id="filter1_i" x="-345.241" y="-489.793" width="2231.41" height="1789.92" filterUnits="userSpaceOnUse" color-interpolation-filters="sRGB">
<feFlood flood-opacity="0" result="BackgroundImageFix"/>
<feBlend mode="normal" in="SourceGraphic" in2="BackgroundImageFix" result="shape"/>
<feColorMatrix in="SourceAlpha" type="matrix" values="0 0 0 0 0 0 0 0 0 0 0 0 0 0 0 0 0 0 127 0" result="hardAlpha"/>
<feOffset dx="-2" dy="23"/>
<feGaussianBlur stdDeviation="23"/>
<feComposite in2="hardAlpha" operator="arithmetic" k2="-1" k3="1"/>
<feColorMatrix type="matrix" values="0 0 0 0 0 0 0 0 0 0 0 0 0 0 0 0 0 0 0.25 0"/>
<feBlend mode="normal" in2="shape" result="effect1_innerShadow"/>
</filter>
<filter id="filter2_i" x="-145.296" y="-220.786" width="1746.12" height="1367.44" filterUnits="userSpaceOnUse" color-interpolation-filters="sRGB">
<feFlood flood-opacity="0" result="BackgroundImageFix"/>
<feBlend mode="normal" in="SourceGraphic" in2="BackgroundImageFix" result="shape"/>
<feColorMatrix in="SourceAlpha" type="matrix" values="0 0 0 0 0 0 0 0 0 0 0 0 0 0 0 0 0 0 127 0" result="hardAlpha"/>
<feOffset dx="-2" dy="23"/>
<feGaussianBlur stdDeviation="23"/>
<feComposite in2="hardAlpha" operator="arithmetic" k2="-1" k3="1"/>
<feColorMatrix type="matrix" values="0 0 0 0 0 0 0 0 0 0 0 0 0 0 0 0 0 0 0.25 0"/>
<feBlend mode="normal" in2="shape" result="effect1_innerShadow"/>
</filter>
<filter id="filter3_i" x="76.0557" y="-36.1694" width="1330.81" height="1064.45" filterUnits="userSpaceOnUse" color-interpolation-filters="sRGB">
<feFlood flood-opacity="0" result="BackgroundImageFix"/>
<feBlend mode="normal" in="SourceGraphic" in2="BackgroundImageFix" result="shape"/>
<feColorMatrix in="SourceAlpha" type="matrix" values="0 0 0 0 0 0 0 0 0 0 0 0 0 0 0 0 0 0 127 0" result="hardAlpha"/>
<feOffset dx="-2" dy="23"/>
<feGaussianBlur stdDeviation="23"/>
<feComposite in2="hardAlpha" operator="arithmetic" k2="-1" k3="1"/>
<feColorMatrix type="matrix" values="0 0 0 0 0 0 0 0 0 0 0 0 0 0 0 0 0 0 0.25 0"/>
<feBlend mode="normal" in2="shape" result="effect1_innerShadow"/>
</filter>
<filter id="filter4_i" x="206.421" y="122.375" width="1083.2" height="721.291" filterUnits="userSpaceOnUse" color-interpolation-filters="sRGB">
<feFlood flood-opacity="0" result="BackgroundImageFix"/>
<feBlend mode="normal" in="SourceGraphic" in2="BackgroundImageFix" result="shape"/>
<feColorMatrix in="SourceAlpha" type="matrix" values="0 0 0 0 0 0 0 0 0 0 0 0 0 0 0 0 0 0 127 0" result="hardAlpha"/>
<feOffset dx="-2" dy="23"/>
<feGaussianBlur stdDeviation="23"/>
<feComposite in2="hardAlpha" operator="arithmetic" k2="-1" k3="1"/>
<feColorMatrix type="matrix" values="0 0 0 0 0 0 0 0 0 0 0 0 0 0 0 0 0 0 0.25 0"/>
<feBlend mode="normal" in2="shape" result="effect1_innerShadow"/>
</filter>
<filter id="filter5_i" x="344.285" y="217.949" width="807.475" height="555.129" filterUnits="userSpaceOnUse" color-interpolation-filters="sRGB">
<feFlood flood-opacity="0" result="BackgroundImageFix"/>
<feBlend mode="normal" in="SourceGraphic" in2="BackgroundImageFix" result="shape"/>
<feColorMatrix in="SourceAlpha" type="matrix" values="0 0 0 0 0 0 0 0 0 0 0 0 0 0 0 0 0 0 127 0" result="hardAlpha"/>
<feOffset dx="-2" dy="23"/>
<feGaussianBlur stdDeviation="23"/>
<feComposite in2="hardAlpha" operator="arithmetic" k2="-1" k3="1"/>
<feColorMatrix type="matrix" values="0 0 0 0 0 0 0 0 0 0 0 0 0 0 0 0 0 0 0.25 0"/>
<feBlend mode="normal" in2="shape" result="effect1_innerShadow"/>
</filter>
<filter id="filter6_i" x="490.834" y="306.999" width="513.292" height="397.662" filterUnits="userSpaceOnUse" color-interpolation-filters="sRGB">
<feFlood flood-opacity="0" result="BackgroundImageFix"/>
<feBlend mode="normal" in="SourceGraphic" in2="BackgroundImageFix" result="shape"/>
<feColorMatrix in="SourceAlpha" type="matrix" values="0 0 0 0 0 0 0 0 0 0 0 0 0 0 0 0 0 0 127 0" result="hardAlpha"/>
<feOffset dx="-2" dy="23"/>
<feGaussianBlur stdDeviation="23"/>
<feComposite in2="hardAlpha" operator="arithmetic" k2="-1" k3="1"/>
<feColorMatrix type="matrix" values="0 0 0 0 0 0 0 0 0 0 0 0 0 0 0 0 0 0 0.25 0"/>
<feBlend mode="normal" in2="shape" result="effect1_innerShadow"/>
</filter>
</defs>
</svg>
