<svg width="2875" height="2758" fill="none" xmlns="http://www.w3.org/2000/svg">
  <g filter="url(#filter0_d)">
    <path d="M1739.18 587.1c-50.62-50.426 96.11-158.769-76.36-207.718C1432.7 314.072 550.25.479 550.25.479L25.604 966.837s321.658 409.833 377.492 471.033c55.834 61.19 528.612 306.57 556.436 322.06 27.825 15.49 121.608-61.16 129.188-17.87 7.58 43.29-130.676 62.09-35.38 162.05 95.3 99.95 249.76 113.65 373.94 170.09 124.17 56.45-142.44 519.69 356.37 599.25 498.81 79.56 436.76-343.78 472.38-406.1 35.61-62.33 143.51 32.92 199.34 0 55.83-32.93 48.35-159.12 113.09-205.43 64.75-46.32 85.02-24.35 171.84-53.44 86.82-29.09 126.21-216.89 101.78-260.72-24.42-43.83-93.01-118.08-105.84-143.01-12.6-24.5-18.38-39.82-32.98-78.62l-.8-2.13c-15.2-40.37 18.83-80.26 53.48-151.99 34.65-71.74 98.2-155.03 6.76-235.71-91.45-80.69-218.4 26.08-273.05-54.03-54.66-80.11 8.29-136.559-113.17-187.62-121.46-51.06-353.96 109.97-403.52 72.187-49.56-37.787 23.61-129.163-10.73-177.849-34.34-48.685-172.44-151.462-223.05-201.888z" fill="#fff"/>
  </g>
  <defs>
    <filter id="filter0_d" x=".604" y=".479" width="2873.61" height="2756.89" filterUnits="userSpaceOnUse" color-interpolation-filters="sRGB">
      <feFlood flood-opacity="0" result="BackgroundImageFix"/>
      <feColorMatrix in="SourceAlpha" values="0 0 0 0 0 0 0 0 0 0 0 0 0 0 0 0 0 0 127 0"/>
      <feOffset dy="49"/>
      <feGaussianBlur stdDeviation="12.5"/>
      <feColorMatrix values="0 0 0 0 0 0 0 0 0 0 0 0 0 0 0 0 0 0 0.25 0"/>
      <feBlend in2="BackgroundImageFix" result="effect1_dropShadow"/>
      <feBlend in="SourceGraphic" in2="effect1_dropShadow" result="shape"/>
    </filter>
  </defs>
</svg>