<svg width="2810" height="2643" viewBox="0 0 2810 2643" fill="none" xmlns="http://www.w3.org/2000/svg">
<g filter="url(#filter0_d)">
<path d="M1741.84 599.233C1694.27 551.851 1832.16 450.045 1670.08 404.05C1453.82 342.682 505.376 0.626953 505.376 0.626953L25.0664 888.224C25.0664 888.224 433.778 1341.16 486.248 1398.66C538.718 1456.16 950.764 1715.86 1014.57 1688.85C1078.37 1661.85 1079.83 1644.13 1121.89 1654.7C1156.07 1663.29 988.815 1748.3 1078.37 1842.23C1167.92 1936.15 1332.04 1943.56 1448.73 1996.59C1565.42 2049.63 1314.87 2484.92 1783.63 2559.68C2252.39 2634.44 2194.08 2236.64 2227.55 2178.08C2261.02 2119.52 2362.42 2209.02 2414.89 2178.08C2467.35 2147.14 2460.32 2028.56 2521.17 1985.05C2582.01 1941.53 2601.06 1962.17 2682.65 1934.84C2764.24 1907.5 2801.25 1731.04 2778.3 1689.85C2755.35 1648.66 2690.89 1578.9 2678.83 1555.47C2666.99 1532.45 2661.57 1518.05 2647.84 1481.6L2647.09 1479.59C2632.8 1441.66 2664.78 1404.18 2697.35 1336.77C2729.91 1269.37 2789.63 1191.1 2703.7 1115.29C2617.76 1039.47 2498.46 1139.8 2447.09 1064.52C2395.73 989.242 2454.89 936.203 2340.75 888.224C2226.61 840.245 2008.11 991.561 1961.54 956.054C1914.96 920.548 1983.73 834.686 1951.45 788.938C1919.18 743.191 1789.41 646.616 1741.84 599.233Z" fill="white"/>
</g>
<defs>
<filter id="filter0_d" x="0.0664062" y="0.626953" width="2809.93" height="2642.37" filterUnits="userSpaceOnUse" color-interpolation-filters="sRGB">
<feFlood flood-opacity="0" result="BackgroundImageFix"/>
<feColorMatrix in="SourceAlpha" type="matrix" values="0 0 0 0 0 0 0 0 0 0 0 0 0 0 0 0 0 0 127 0"/>
<feOffset dy="49"/>
<feGaussianBlur stdDeviation="12.5"/>
<feColorMatrix type="matrix" values="0 0 0 0 0 0 0 0 0 0 0 0 0 0 0 0 0 0 0.25 0"/>
<feBlend mode="normal" in2="BackgroundImageFix" result="effect1_dropShadow"/>
<feBlend mode="normal" in="SourceGraphic" in2="effect1_dropShadow" result="shape"/>
</filter>
</defs>
</svg>
