<svg width="2810" height="2643" fill="none" xmlns="http://www.w3.org/2000/svg">
  <g filter="url(#filter0_d)">
    <path d="M1741.84 599.233c-47.57-47.382 90.32-149.188-71.76-195.183C1453.82 342.682 505.376.627 505.376.627L25.066 888.224s408.712 452.936 461.182 510.436c52.47 57.5 464.516 317.2 528.322 290.19 63.8-27 65.26-44.72 107.32-34.15 34.18 8.59-133.075 93.6-43.52 187.53 89.55 93.92 253.67 101.33 370.36 154.36 116.69 53.04-133.86 488.33 334.9 563.09 468.76 74.76 410.45-323.04 443.92-381.6 33.47-58.56 134.87 30.94 187.34 0 52.46-30.94 45.43-149.52 106.28-193.03 60.84-43.52 79.89-22.88 161.48-50.21 81.59-27.34 118.6-203.8 95.65-244.99-22.95-41.19-87.41-110.95-99.47-134.38-11.84-23.02-17.26-37.42-30.99-73.87l-.75-2.01c-14.29-37.93 17.69-75.41 50.26-142.82 32.56-67.4 92.28-145.67 6.35-221.48-85.94-75.82-205.24 24.51-256.61-50.77-51.36-75.278 7.8-128.317-106.34-176.296-114.14-47.979-332.64 103.337-379.21 67.83-46.58-35.506 22.19-121.368-10.09-167.116-32.27-45.747-162.04-142.322-209.61-189.705z" fill="#fff"/>
  </g>
  <defs>
    <filter id="filter0_d" x=".066" y=".627" width="2809.93" height="2642.37" filterUnits="userSpaceOnUse" color-interpolation-filters="sRGB">
      <feFlood flood-opacity="0" result="BackgroundImageFix"/>
      <feColorMatrix in="SourceAlpha" values="0 0 0 0 0 0 0 0 0 0 0 0 0 0 0 0 0 0 127 0"/>
      <feOffset dy="49"/>
      <feGaussianBlur stdDeviation="12.5"/>
      <feColorMatrix values="0 0 0 0 0 0 0 0 0 0 0 0 0 0 0 0 0 0 0.25 0"/>
      <feBlend in2="BackgroundImageFix" result="effect1_dropShadow"/>
      <feBlend in="SourceGraphic" in2="effect1_dropShadow" result="shape"/>
    </filter>
  </defs>
</svg>