<svg width="2723" height="2503" fill="none" xmlns="http://www.w3.org/2000/svg">
  <g filter="url(#filter0_d)">
    <path d="M1701.36 520.439c-45.44-45.907 86.28-144.542-68.55-189.105C1426.23 271.877 448.986.771 448.986.771L25.328 654.248S451.83 1239.26 501.953 1294.97c50.122 55.71 366.228 277.98 443.342 277.98 77.115 0 140.565-71.89 161.775-51.63 21.22 20.26-125.039 112.41-39.49 203.41 85.55 91 242.31 98.17 353.78 149.56 111.48 51.39-127.86 473.12 319.92 545.55 447.79 72.43 392.08-312.98 424.05-369.72 31.98-56.74 128.84 29.98 178.96 0 50.12-29.97 43.4-144.86 101.52-187.02s76.32-22.16 154.26-48.65c77.94-26.48 113.3-197.45 91.37-237.35-21.93-39.91-83.5-107.5-95.02-130.2-11.31-22.3-16.49-36.25-29.6-71.56l-.72-1.95c-13.65-36.76 16.9-73.07 48.01-138.38 31.11-65.3 88.16-141.13 6.07-214.59-82.1-73.449-196.06 23.75-245.12-49.183-49.07-72.933 7.45-124.321-101.59-170.806-109.04-46.485-317.75 100.119-362.24 65.719-44.5-34.401 21.19-117.59-9.64-161.913-30.82-44.323-154.79-137.89-200.23-183.798z" fill="#fff"/>
  </g>
  <defs>
    <filter id="filter0_d" x=".328" y=".771" width="2722.51" height="2502.1" filterUnits="userSpaceOnUse" color-interpolation-filters="sRGB">
      <feFlood flood-opacity="0" result="BackgroundImageFix"/>
      <feColorMatrix in="SourceAlpha" values="0 0 0 0 0 0 0 0 0 0 0 0 0 0 0 0 0 0 127 0"/>
      <feOffset dy="49"/>
      <feGaussianBlur stdDeviation="12.5"/>
      <feColorMatrix values="0 0 0 0 0 0 0 0 0 0 0 0 0 0 0 0 0 0 0.25 0"/>
      <feBlend in2="BackgroundImageFix" result="effect1_dropShadow"/>
      <feBlend in="SourceGraphic" in2="effect1_dropShadow" result="shape"/>
    </filter>
  </defs>
</svg>