<svg width="2696" height="2541" fill="none" xmlns="http://www.w3.org/2000/svg">
  <g filter="url(#filter0_d)">
    <path d="M1710.08 628.385c-43.78-44.217 83.13-139.22-66.04-182.141C1445.01 388.976 420.746.701 420.746.701L25.414 734.17s480.802 586.56 529.093 640.22c48.29 53.67 276.776 284.62 419.14 243.38 142.363-41.25 133.553-48.06 144.683-36.94 11.13 11.12-101.29 119.85-18.87 207.49 82.42 87.65 233.46 94.56 340.86 144.06 107.4 49.49-123.19 455.7 308.23 525.46 431.42 69.76 377.75-301.45 408.55-356.1 30.81-54.65 124.13 28.87 172.41 0 48.29-28.88 41.82-139.53 97.82-180.14 55.99-40.61 73.52-21.34 148.62-46.85 75.09-25.51 109.15-190.19 88.03-228.62-21.13-38.44-80.45-103.54-91.55-125.4-10.9-21.48-15.89-34.92-28.52-68.94l-.69-1.87c-13.15-35.4 16.28-70.38 46.26-133.28 29.97-62.9 84.93-135.93 5.84-206.68s-188.89 22.87-236.16-47.38c-47.27-70.246 7.18-119.741-97.88-164.515-105.05-44.773-306.13 96.433-349 63.299-42.87-33.134 20.42-113.259-9.28-155.95-29.7-42.691-149.14-132.812-192.92-177.029z" fill="#fff"/>
  </g>
  <defs>
    <filter id="filter0_d" x=".414" y=".701" width="2694.73" height="2539.83" filterUnits="userSpaceOnUse" color-interpolation-filters="sRGB">
      <feFlood flood-opacity="0" result="BackgroundImageFix"/>
      <feColorMatrix in="SourceAlpha" values="0 0 0 0 0 0 0 0 0 0 0 0 0 0 0 0 0 0 127 0"/>
      <feOffset dy="49"/>
      <feGaussianBlur stdDeviation="12.5"/>
      <feColorMatrix values="0 0 0 0 0 0 0 0 0 0 0 0 0 0 0 0 0 0 0.25 0"/>
      <feBlend in2="BackgroundImageFix" result="effect1_dropShadow"/>
      <feBlend in="SourceGraphic" in2="effect1_dropShadow" result="shape"/>
    </filter>
  </defs>
</svg>