<svg width="2640" height="2510" fill="none" xmlns="http://www.w3.org/2000/svg">
  <g filter="url(#filter0_d)">
    <path d="M1693.52 672.769c-41.99-42.404 79.75-133.51-63.35-174.671C1439.24 443.179 364.188.394 364.188.394L25.508 721.556S538.645 1336.72 584.97 1388.18c46.326 51.46 252.929 250.05 389.5 210.49 136.569-39.55 133.279-53.24 143.099-40.51 9.81 12.73-88.89 142.92-9.82 226.97 79.07 84.06 223.96 90.68 326.99 138.15 103.03 47.46-118.18 437.01 295.69 503.91 413.86 66.9 362.38-289.09 391.93-341.5 29.55-52.41 119.07 27.69 165.39 0 46.33-27.69 40.12-133.8 93.84-172.75 53.72-38.94 70.53-20.47 142.57-44.93 72.03-24.46 104.72-182.38 84.45-219.24-20.27-36.86-77.18-99.29-87.82-120.26-10.45-20.59-15.24-33.48-27.36-66.1l-.67-1.8c-12.61-33.95 15.63-67.49 44.38-127.81 28.75-60.32 81.48-130.36 5.6-198.21-75.87-67.85-181.2 21.93-226.55-45.43-45.35-67.37 6.89-114.835-93.89-157.772s-293.68 92.482-334.8 60.703c-41.12-31.775 19.59-108.614-8.91-149.554-28.49-40.94-143.07-127.365-185.07-169.768z" fill="#fff"/>
  </g>
  <defs>
    <filter id="filter0_d" x=".508" y=".394" width="2639.02" height="2509.13" filterUnits="userSpaceOnUse" color-interpolation-filters="sRGB">
      <feFlood flood-opacity="0" result="BackgroundImageFix"/>
      <feColorMatrix in="SourceAlpha" values="0 0 0 0 0 0 0 0 0 0 0 0 0 0 0 0 0 0 127 0"/>
      <feOffset dy="49"/>
      <feGaussianBlur stdDeviation="12.5"/>
      <feColorMatrix values="0 0 0 0 0 0 0 0 0 0 0 0 0 0 0 0 0 0 0.25 0"/>
      <feBlend in2="BackgroundImageFix" result="effect1_dropShadow"/>
      <feBlend in="SourceGraphic" in2="effect1_dropShadow" result="shape"/>
    </filter>
  </defs>
</svg>