<svg width="2631" height="2501" fill="none" xmlns="http://www.w3.org/2000/svg">
  <g filter="url(#filter0_d)">
    <path d="M1687.85 670.129c-41.87-42.262 79.5-133.063-63.16-174.087C1434.35 441.306 362.631 0 362.631 0L25 718.754s511.548 613.106 557.731 664.396c46.182 51.29 252.145 249.21 388.293 209.79 136.146-39.42 132.866-53.06 142.656-40.38 9.78 12.69-88.61 142.45-9.79 226.22 78.82 83.77 223.27 90.37 325.98 137.68 102.71 47.31-117.82 435.55 294.77 502.23 412.58 66.68 361.26-288.12 390.71-340.36 29.46-52.23 118.71 27.6 164.89 0 46.18-27.59 39.99-133.36 93.54-172.17 53.55-38.81 70.32-20.4 142.13-44.78 71.81-24.38 104.39-181.77 84.19-218.51-20.2-36.74-76.94-98.96-87.55-119.86-10.42-20.53-15.19-33.37-27.27-65.88l-.67-1.79c-12.57-33.84 15.58-67.27 44.24-127.39 28.66-60.12 81.23-129.92 5.59-197.54s-180.64 21.86-225.85-45.28c-45.21-67.15 6.86-114.452-93.6-157.245-100.47-42.794-292.77 92.165-333.77 60.499-40.99-31.668 19.53-108.251-8.87-149.054-28.41-40.803-142.63-126.939-184.5-169.201z" fill="#fff"/>
  </g>
  <defs>
    <filter id="filter0_d" x="0" y="0" width="2631" height="2501" filterUnits="userSpaceOnUse" color-interpolation-filters="sRGB">
      <feFlood flood-opacity="0" result="BackgroundImageFix"/>
      <feColorMatrix in="SourceAlpha" values="0 0 0 0 0 0 0 0 0 0 0 0 0 0 0 0 0 0 127 0"/>
      <feOffset dy="49"/>
      <feGaussianBlur stdDeviation="12.5"/>
      <feColorMatrix values="0 0 0 0 0 0 0 0 0 0 0 0 0 0 0 0 0 0 0.25 0"/>
      <feBlend in2="BackgroundImageFix" result="effect1_dropShadow"/>
      <feBlend in="SourceGraphic" in2="effect1_dropShadow" result="shape"/>
    </filter>
  </defs>
</svg>