<svg width="2650" height="2428" fill="none" xmlns="http://www.w3.org/2000/svg">
  <g filter="url(#filter0_d)">
    <path d="M1728.58 639.281c-40.85-41.235 77.57-129.832-61.63-169.859C1481.24 416.016 449.533.39 449.533.39L25.875 639.28S605.25 1284.94 650.31 1334.99c45.061 50.04 272.367 234.8 405.21 196.33 132.84-38.46 112.89-31.77 120.04-17.47 7.15 14.3-93.66 125.42-16.75 207.15 76.91 81.74 217.84 88.19 318.05 134.34 100.22 46.16-114.95 424.97 287.61 490.03 402.56 65.06 352.48-281.12 381.23-332.09 28.74-50.96 115.82 26.93 160.88 0 45.05-26.92 39.02-130.12 91.27-167.99 52.25-37.87 68.6-19.9 138.67-43.69s101.86-177.36 82.15-213.2c-19.72-35.85-75.07-96.56-85.42-116.95-10.17-20.03-14.83-32.56-26.62-64.29l-.65-1.74c-12.26-33.01 15.2-65.63 43.17-124.29 27.96-58.66 79.25-126.77 5.45-192.75s-176.25 21.33-220.36-44.18c-44.11-65.511 6.69-111.669-91.33-153.423-98.02-41.754-285.66 89.929-325.66 59.03-40-30.9 19.06-105.622-8.66-145.434-27.71-39.812-139.16-123.857-180.01-165.092z" fill="#fff"/>
  </g>
  <defs>
    <filter id="filter0_d" x=".875" y=".39" width="2648.55" height="2427.09" filterUnits="userSpaceOnUse" color-interpolation-filters="sRGB">
      <feFlood flood-opacity="0" result="BackgroundImageFix"/>
      <feColorMatrix in="SourceAlpha" values="0 0 0 0 0 0 0 0 0 0 0 0 0 0 0 0 0 0 127 0"/>
      <feOffset dy="49"/>
      <feGaussianBlur stdDeviation="12.5"/>
      <feColorMatrix values="0 0 0 0 0 0 0 0 0 0 0 0 0 0 0 0 0 0 0.25 0"/>
      <feBlend in2="BackgroundImageFix" result="effect1_dropShadow"/>
      <feBlend in="SourceGraphic" in2="effect1_dropShadow" result="shape"/>
    </filter>
  </defs>
</svg>