<svg width="2539" height="2395" fill="none" xmlns="http://www.w3.org/2000/svg">
  <g filter="url(#filter0_d)">
    <path d="M1650.29 668.207c-39.38-39.752 74.77-125.163-59.4-163.751C1411.86 452.971 371.376.468 371.376.468L25.306 587.489s542.14 703.161 585.576 751.401c43.436 48.25 232.718 205.78 361.109 179.96 128.389-25.82 145.129-44.48 156.219-29.4 11.08 15.08-101.29 142.78-27.15 221.58 74.13 78.8 209.99 85.01 306.59 129.51 96.6 44.5-110.81 409.69 277.24 472.41 388.05 62.71 339.78-271.02 367.49-320.15 27.7-49.14 111.64 25.95 155.08 0 43.43-25.96 37.61-125.44 87.98-161.95 50.37-36.51 66.13-19.19 133.68-42.12 67.54-22.94 98.18-170.98 79.18-205.54-19-34.55-59.98-89.56-69.96-109.22-9.98-19.66-12.82-32.52-24.64-64.34-11.83-31.83 19.15-56.25 46.11-112.8 26.95-56.55 57.87-132.07-13.27-195.67-71.14-63.61-169.9 20.56-212.42-42.6-42.52-63.151 6.46-107.649-88.03-147.901-94.49-40.253-275.37 86.695-313.92 56.907-38.56-29.788 18.36-101.824-8.35-140.204-26.72-38.38-134.15-119.403-173.53-159.155z" fill="#fff"/>
  </g>
  <defs>
    <filter id="filter0_d" x=".307" y=".468" width="2538.54" height="2394.3" filterUnits="userSpaceOnUse" color-interpolation-filters="sRGB">
      <feFlood flood-opacity="0" result="BackgroundImageFix"/>
      <feColorMatrix in="SourceAlpha" values="0 0 0 0 0 0 0 0 0 0 0 0 0 0 0 0 0 0 127 0"/>
      <feOffset dy="49"/>
      <feGaussianBlur stdDeviation="12.5"/>
      <feColorMatrix values="0 0 0 0 0 0 0 0 0 0 0 0 0 0 0 0 0 0 0.25 0"/>
      <feBlend in2="BackgroundImageFix" result="effect1_dropShadow"/>
      <feBlend in="SourceGraphic" in2="effect1_dropShadow" result="shape"/>
    </filter>
  </defs>
</svg>