<svg width="2534" height="2362" fill="none" xmlns="http://www.w3.org/2000/svg">
  <g filter="url(#filter0_d)">
    <path d="M1690.2 769.526c-38.67-36.495-6.84-195.322-138.62-230.748C1375.77 491.512 311.399.701 311.399.701L25.676 682.483s601.061 658.477 643.72 702.767c42.659 44.29 233.133 172.26 358.894 138.22 125.76-34.05 148.41-71.16 148.41-27.76 0 43.41-98.71 158.84-25.9 231.18s206.23 78.05 301.1 118.9c94.87 40.85-108.83 376.11 272.28 433.69 381.11 57.58 305.72-232.48 332.93-277.58 27.21-45.11 137.63 7.5 180.28-16.33 42.66-23.83 36.94-115.16 86.41-148.68 49.47-33.51 64.95-17.61 131.29-38.67 66.33-21.05 51.62-174.98 46.36-183.91-5.25-8.93-39.66-90.24-49.47-108.28-9.63-17.73-14.03-28.83-25.2-56.91l-.6-1.53c-11.62-29.22 14.38-58.09 40.86-110.01 26.47-51.91 75.03-112.19 5.16-170.58-69.87-58.4-166.86 18.87-208.62-39.11-41.76-57.98 6.34-98.83-86.46-135.781-92.8-36.954-240.03 63.431-313.59 51.331-73.56-12.09 3.35-120.412-22.89-155.647-26.24-35.235-111.77-81.773-150.44-118.267z" fill="#fff"/>
  </g>
  <defs>
    <filter id="filter0_d" x=".676" y=".701" width="2532.58" height="2360.31" filterUnits="userSpaceOnUse" color-interpolation-filters="sRGB">
      <feFlood flood-opacity="0" result="BackgroundImageFix"/>
      <feColorMatrix in="SourceAlpha" values="0 0 0 0 0 0 0 0 0 0 0 0 0 0 0 0 0 0 127 0"/>
      <feOffset dy="49"/>
      <feGaussianBlur stdDeviation="12.5"/>
      <feColorMatrix values="0 0 0 0 0 0 0 0 0 0 0 0 0 0 0 0 0 0 0.25 0"/>
      <feBlend in2="BackgroundImageFix" result="effect1_dropShadow"/>
      <feBlend in="SourceGraphic" in2="effect1_dropShadow" result="shape"/>
    </filter>
  </defs>
</svg>