<svg width="2461" height="2175" fill="none" xmlns="http://www.w3.org/2000/svg">
  <g filter="url(#filter0_d)">
    <path d="M1679.22 698.267c-35.74-33.733-6.33-180.54-128.1-213.284C1388.65 441.293 302.862.308 302.862.308L25.76 529.489S696.477 1226.46 735.898 1267.4c39.421 40.93 208.601 133.56 324.812 102.1 116.22-31.47 155.42-90.2 155.42-50.08 0 40.12-102.66 196.89-35.37 263.76 67.28 66.87 190.58 72.14 278.25 109.9 87.67 37.76-100.57 347.65 251.61 400.87 352.18 53.22 282.51-214.88 307.66-256.58 25.14-41.69 127.18 6.94 166.6-15.09 39.41-22.03 34.13-106.44 79.84-137.42 45.72-30.98 60.03-16.29 121.32-35.75 61.3-19.46 47.71-161.73 42.85-169.99-4.86-8.26-36.65-83.41-45.71-100.09-8.9-16.38-12.97-26.64-23.29-52.59l-.56-1.43c-10.73-27 13.29-53.69 37.76-101.67 24.47-47.99 69.33-103.71 4.77-157.68-64.56-53.98-154.2 17.44-192.78-36.15-38.59-53.588 5.86-91.347-79.9-125.504-85.76-34.158-228.56 64.398-296.53 53.221-67.98-11.176-13.52-127.494-37.76-160.062-24.25-32.569-79.93-65.165-115.67-98.898z" fill="#fff"/>
  </g>
  <defs>
    <filter id="filter0_d" x=".76" y=".308" width="2459.42" height="2174.6" filterUnits="userSpaceOnUse" color-interpolation-filters="sRGB">
      <feFlood flood-opacity="0" result="BackgroundImageFix"/>
      <feColorMatrix in="SourceAlpha" values="0 0 0 0 0 0 0 0 0 0 0 0 0 0 0 0 0 0 127 0"/>
      <feOffset dy="49"/>
      <feGaussianBlur stdDeviation="12.5"/>
      <feColorMatrix values="0 0 0 0 0 0 0 0 0 0 0 0 0 0 0 0 0 0 0.25 0"/>
      <feBlend in2="BackgroundImageFix" result="effect1_dropShadow"/>
      <feBlend in="SourceGraphic" in2="effect1_dropShadow" result="shape"/>
    </filter>
  </defs>
</svg>