<svg width="2283" height="2021" fill="none" xmlns="http://www.w3.org/2000/svg">
  <g filter="url(#filter0_d)">
    <path d="M1557.39 646.922c-33.12-31.266-5.86-167.338-118.72-197.688C1288.1 408.739 281.812 0 281.812 0L25 490.485s621.607 646.005 658.141 683.945c36.534 37.95 193.327 123.81 301.033 94.64 107.706-29.17 144.036-83.61 144.036-46.42s-95.14 182.5-32.78 244.48c62.35 61.97 176.62 66.86 257.87 101.86s-93.2 322.23 233.19 371.56c326.39 49.33 261.83-199.17 285.13-237.82 23.31-38.64 117.87 6.43 154.4-13.99 36.54-20.41 31.64-98.66 74-127.37 42.37-28.72 55.63-15.09 112.44-33.13 56.81-18.04 44.21-149.91 39.71-157.56-4.5-7.66-33.97-77.31-42.37-92.77-8.24-15.19-12.02-24.7-21.58-48.75l-.52-1.32c-9.95-25.03 12.32-49.77 35-94.24 22.67-44.48 64.25-96.13 4.42-146.153-59.84-50.027-142.91 16.173-178.67-33.5-35.76-49.673 5.43-84.671-74.05-116.331-79.47-31.66-211.82 59.689-274.82 49.33-62.99-10.359-12.52-118.171-34.99-148.358-22.47-30.187-74.08-60.4-107.2-91.666z" fill="#fff"/>
  </g>
  <defs>
    <filter id="filter0_d" x="0" y="0" width="2283" height="2021" filterUnits="userSpaceOnUse" color-interpolation-filters="sRGB">
      <feFlood flood-opacity="0" result="BackgroundImageFix"/>
      <feColorMatrix in="SourceAlpha" values="0 0 0 0 0 0 0 0 0 0 0 0 0 0 0 0 0 0 127 0"/>
      <feOffset dy="49"/>
      <feGaussianBlur stdDeviation="12.5"/>
      <feColorMatrix values="0 0 0 0 0 0 0 0 0 0 0 0 0 0 0 0 0 0 0.25 0"/>
      <feBlend in2="BackgroundImageFix" result="effect1_dropShadow"/>
      <feBlend in="SourceGraphic" in2="effect1_dropShadow" result="shape"/>
    </filter>
  </defs>
</svg>