<svg width="2478" height="2213" fill="none" xmlns="http://www.w3.org/2000/svg">
  <g filter="url(#filter0_d)">
    <path d="M1677.53 884.557c-64.5-24.917 21.34-107.584-135.19-206.114C1312.01 533.462 363.161 0 363.161 0L25 733.352s819.486 606.058 927.802 663.808c106.998 57.05 280.158 10.03 315.838.34l1.26-.34c32.66-8.86 70.28-16.14 70.28 28.09 0 44.22-124.09 154.3-50.03 228 74.07 73.71 203.88 66.19 300.38 107.81 96.51 41.62 33.67 225.53 76.66 277.99 43 52.45 174.05 146.22 269.97 73.11 95.91-73.11 71.12-179.77 114.51-204.05s182.62 48.76 220.77-12.81c38.15-61.56-45.03-137.55 26.04-137.55s97.94-8.67 124.4-40.89c26.46-32.22 36.47-97.47 26.09-136.31-10.38-38.83-21.87-53.63-40.1-83.02-18.23-29.39-57.11-19.39-30.18-72.28 26.93-52.9 115.26-111.93 44.19-171.42-71.07-59.49-145.75 2.89-188.22-56.18-42.48-59.07 11.8-109.06-93.69-112.76-105.48-3.71-239.25 50.3-277.4 34.7-38.16-15.61-19.85-130.943-48.37-171.835-28.53-40.893-73.18-38.28-137.67-63.198z" fill="#fff"/>
  </g>
  <defs>
    <filter id="filter0_d" x="0" y="0" width="2478" height="2213" filterUnits="userSpaceOnUse" color-interpolation-filters="sRGB">
      <feFlood flood-opacity="0" result="BackgroundImageFix"/>
      <feColorMatrix in="SourceAlpha" values="0 0 0 0 0 0 0 0 0 0 0 0 0 0 0 0 0 0 127 0"/>
      <feOffset dy="49"/>
      <feGaussianBlur stdDeviation="12.5"/>
      <feColorMatrix values="0 0 0 0 0 0 0 0 0 0 0 0 0 0 0 0 0 0 0.25 0"/>
      <feBlend in2="BackgroundImageFix" result="effect1_dropShadow"/>
      <feBlend in="SourceGraphic" in2="effect1_dropShadow" result="shape"/>
    </filter>
  </defs>
</svg>