<svg width="2386" height="2132" fill="none" xmlns="http://www.w3.org/2000/svg">
  <g filter="url(#filter0_d)">
    <path d="M1614.46 851.334c-62-23.96 20.53-103.449-129.98-198.192C1263.03 513.733 350.734.776 350.734.776L25.602 705.941S813.516 1288.7 917.659 1344.23c102.871 54.86 269.361 9.65 303.671.33l1.21-.33c31.4-8.51 67.57-15.51 67.57 27.01s-119.31 148.37-48.1 219.24c71.21 70.87 196.02 63.64 288.81 103.67 92.79 40.02 32.37 216.86 73.71 267.3 41.34 50.44 167.34 140.6 259.56 70.3s68.39-172.86 110.11-196.21c41.71-23.34 175.57 46.89 212.26-12.31 36.68-59.2-43.29-132.26 25.04-132.26s94.16-8.34 119.6-39.32c25.44-30.98 35.07-93.73 25.09-131.07-9.99-37.34-21.03-51.58-38.56-79.83-17.53-28.26-54.91-18.65-29.02-69.51 25.9-50.86 110.82-107.62 42.49-164.83-68.33-57.21-140.13 2.79-180.97-54.02-40.84-56.8 11.34-104.86-90.08-108.42-101.42-3.57-230.03 48.37-266.71 33.36-36.69-15.01-19.08-125.907-46.51-165.228-27.43-39.32-70.36-36.809-132.37-60.768z" fill="#fff"/>
  </g>
  <defs>
    <filter id="filter0_d" x=".602" y=".776" width="2384.46" height="2130.78" filterUnits="userSpaceOnUse" color-interpolation-filters="sRGB">
      <feFlood flood-opacity="0" result="BackgroundImageFix"/>
      <feColorMatrix in="SourceAlpha" values="0 0 0 0 0 0 0 0 0 0 0 0 0 0 0 0 0 0 127 0"/>
      <feOffset dy="49"/>
      <feGaussianBlur stdDeviation="12.5"/>
      <feColorMatrix values="0 0 0 0 0 0 0 0 0 0 0 0 0 0 0 0 0 0 0.25 0"/>
      <feBlend in2="BackgroundImageFix" result="effect1_dropShadow"/>
      <feBlend in="SourceGraphic" in2="effect1_dropShadow" result="shape"/>
    </filter>
  </defs>
</svg>