<svg width="2344" height="1947" fill="none" xmlns="http://www.w3.org/2000/svg">
  <g filter="url(#filter0_d)">
    <path d="M1565.81 757.37c-81.89-51.633-10.74-142.984-143.5-197.397C1398.24 550.105 270.546.688 270.546.688L25.465 534.792S799.59 1079.65 837.259 1099.73c37.67 20.07 134.651 158.05 263.481 123.13 128.83-34.91 151.45-52.03 199.94-12.71 48.49 39.32-121.49 176.43-46.9 250.62 74.58 74.19 178.66 43.9 275.85 85.79 97.19 41.9 30.43 166.68 70.36 256.58 39.93 89.9 222.94 82.4 250.82 36.14 27.88-46.26 44.55-112.58 88.24-137.02 43.7-24.44 157.15 39.33 195.57-22.64 38.42-61.97-33.81-133.06 37.76-133.06s87.23-1.51 119.25-37.33c22.76-25.47 32.05-36.15 24.64-68.71-7.4-32.57-17.88-51.64-24.64-65.54-6.76-13.9-67.97-96.12-67.97-116.37 0-20.26 120.86-99 49.29-158.88-71.57-59.89-145.48-11.91-163.77-37.33-18.29-25.42-18.68-80.227-58.03-107.632-39.36-27.406-267.65 48.672-306.07 32.965-38.43-15.71-22.66-123.522-37.37-160.459-14.7-36.938-60.02-18.271-141.9-69.904z" fill="#fff"/>
  </g>
  <defs>
    <filter id="filter0_d" x=".465" y=".688" width="2343.31" height="1946.16" filterUnits="userSpaceOnUse" color-interpolation-filters="sRGB">
      <feFlood flood-opacity="0" result="BackgroundImageFix"/>
      <feColorMatrix in="SourceAlpha" values="0 0 0 0 0 0 0 0 0 0 0 0 0 0 0 0 0 0 127 0"/>
      <feOffset dy="49"/>
      <feGaussianBlur stdDeviation="12.5"/>
      <feColorMatrix values="0 0 0 0 0 0 0 0 0 0 0 0 0 0 0 0 0 0 0.25 0"/>
      <feBlend in2="BackgroundImageFix" result="effect1_dropShadow"/>
      <feBlend in="SourceGraphic" in2="effect1_dropShadow" result="shape"/>
    </filter>
  </defs>
</svg>