<svg width="6056" height="4668" fill="none" xmlns="http://www.w3.org/2000/svg">
  <g filter="url(#filter0_i)">
    <path d="M1316.56 546.154c-260.67 137.19-432.336 284.858-489.649 573.876-61.869 311.99 291.919 326.86 197.139 630.47-73.707 236.1-300.175 410.24-488.501 488.5-186.481 77.49-593.644 486.77-528.58 678 112.54 330.76 792.084 408.21 1082.141 602.85 484.28 324.97 182.28 793.72 751.86 918.78 404.79 88.88 634.44-397.12 1048.57-381.47 452.51 17.11 420.3 475.6 866.56 552.47 457.91 78.87 1055.81 150.78 1150.24-304.33 62.06-299.09 81.89-481.43 111.66-785.45 20.72-211.6 208.74-283.28 337.46-452.47 275.56-362.18 481.65-273.75 652.3-695.67 162.4-401.54-113.68-615.43-458.21-877.8-208.01-158.4-435.27-215.4-643.21-373.88-173.79-132.454-229.53-459.018-320.07-657.927-98.61-216.654 41.44-49.086-137.71-205.783-152.01-132.965-305.19-107.406-507.03-101.442-265.38 7.842-378.47 200.185-643.2 220.274-402.46 30.54-649.53-550.341-982.2-321.716-157.52 108.258-116.66 293.81-269.45 408.667-229.44 172.489-476.12-49.631-730.12 84.051z" fill="#fff"/>
  </g>
  <g filter="url(#filter1_i)">
    <path d="M1627.55 850c-234.96 116.527-95.88 625.63-153 881.5-61.67 276.22-680.503 328.33-680.503 864.83.001 310.9 715.353 488.41 969.463 667.67 424.27 299.29 39.59 794.92 544.02 918.19 358.49 87.61 328.33-422.83 696.68-400.16 402.48 24.78 449.67 514.92 845.33 592.73 405.99 79.83 936.75 156.42 1030.42-246.41 61.56-264.74-172.78-359.81-139.87-629.61 22.92-187.78 21.71-333.94 139.87-481.71 252.96-316.35 533.76-109.32 694.59-481.03 153.05-353.74 100.18-563.84-201-804.5-181.83-145.29-502.47 55.01-684.25-90.35-151.92-121.49-245.56-387.1-147.24-567.25 101.48-185.945 172.01-413.705 15.84-556.875-132.53-121.487-269.43-101.988-449.25-100.946-236.42 1.369-341.15 170.073-577.26 182.35-358.93 18.665-566.62-503.262-867.6-306.922-142.52 92.97-110.07 258.886-248.51 357.825-207.9 148.586-558.78 87.121-787.73 200.668z" fill="#FCFCFC"/>
  </g>
  <g filter="url(#filter2_i)">
    <path d="M2129.45 903.287c-203.71 101.033-338.92 211.773-388.44 433.613-53.47 239.49 286.16 360.71 207.44 593.13-61.21 180.74-390.37 232.29-537.17 289.19-145.35 56.35-382.76 339.87-336.04 488.54 80.82 257.15 737.02 236.32 957.34 391.74 367.84 259.49-6.94 708.48 430.4 815.36 310.81 75.96 422.8-366.6 742.16-346.94 348.96 21.48 389.87 446.45 732.92 513.9 348.84 68.6 443.26-337.59 523.97-684.83l2.18-9.39c53.38-229.54-433.65-367.03-154.71-679.84 201.56-226.04 286.55 235.71 416.79 135.96 177.51-135.96 191.65-51.52 331.09-373.8 132.7-306.7-210.06-500.03-505.18-588.37-173.53-51.95-349.7 14.68-459.24-185.21-126.07-230.04 246.93-382.48 180.69-537.55-72.15-168.892 413.96-297.536 278.55-421.666-114.89-105.33-233.59-88.424-389.49-87.521-204.98 1.188-295.79 147.455-500.5 158.1-311.19 16.182-491.26-436.334-752.22-266.105-123.56 80.606-95.43 224.457-215.45 310.239-180.26 128.825-366.59-46.998-565.09 51.45z" fill="#F9F9F9"/>
  </g>
  <g filter="url(#filter3_i)">
    <path d="M2445.05 1110.5c-138.25 53.21-340.17 38.39-393 189-57.03 162.58 177.26 420.49 105 576-56.19 120.93-221.43 229.75-319.5 257-97.11 26.98-161.97 345.28-147 452.99 25.89 186.31 296.54 80.49 420.27 207.65 206.6 212.3 22.79 374.34 288.06 486.04 188.52 79.39 538.78-40.82 738.17 0 217.87 44.61 67.83 144.63 277.5 220.82 215.13 78.17 543.78 194.83 629-42 56-155.65 22.22-211.19 63-372 28.38-111.93-14.56-306.79 62.5-387.5 164.97-172.79 389.21-111.94 508.5-325 113.52-202.76 144.27-172.73 0-340.5-87.1-101.29-662.43-166.18-749.5-267.5-72.77-84.68-68.95-165.24 0-267 71.16-105.03 251.76-289.89 178.5-388-62.17-83.25-205.64-91.9-304-104.5-129.33-16.569-210.93 9.95-341 0-197.74-15.119-279.93-248.643-461-152-85.74 45.761-73.3 257.7-157.32 307.38-126.17 74.6-263.47-102.73-398.18-50.88z" fill="#F2F2F2"/>
  </g>
  <g filter="url(#filter4_i)">
    <path d="M2474.22 1273.45c-130.1 64.53-216.46 135.25-248.09 276.95-34.15 152.95 182.77 230.38 132.49 378.82-39.09 115.44-249.33 148.36-343.08 184.7-92.84 35.99-244.47 217.07-214.63 312.03 51.62 164.24 470.72 150.94 611.44 250.2 234.94 165.74-4.43 452.51 274.9 520.77 198.51 48.51 270.04-234.15 474.01-221.59 222.88 13.72 249.01 285.14 468.11 328.22 222.8 43.82 283.1-215.61 334.66-437.39l1.39-6c34.09-146.6-295.08-92.87-116.92-292.66 128.73-144.37 201.12 9 284.3-54.71 113.38-86.84 122.41-32.91 211.47-238.75 84.76-195.88-134.16-319.36-322.65-375.78-110.84-33.18-223.36 9.37-293.32-118.29-80.52-146.93 157.71-244.29 115.41-343.33-46.09-107.87 264.39-190.04 177.91-269.32-73.39-67.27-149.2-56.47-248.77-55.9-130.92.76-188.92 94.18-319.66 100.98-198.76 10.34-313.77-278.683-480.44-169.96-78.92 51.48-60.95 143.36-137.61 198.15-115.13 82.28-234.14-30.02-360.92 32.86z" fill="#EDEDED"/>
  </g>
  <g filter="url(#filter5_i)">
    <path d="M2570.54 1606.2c-91.21 45.23-151.75 94.82-173.92 194.14-23.94 107.23 65.66 125.89 30.42 229.95-27.41 80.92-112.33 139.63-178.05 165.1-65.08 25.23-171.38 152.18-150.46 218.74 36.18 115.14 274.56 189.21 373.21 258.8 164.7 116.18 52.32 233.82 248.14 281.67 139.16 34.01 189.3-164.14 332.29-155.34 156.24 9.62 174.56 199.89 328.16 230.1 157.6 30.99 363.64 60.72 400-95.66 23.9-102.77-67.07-139.67-54.29-244.41 8.89-72.9 8.42-129.63 54.29-187 98.2-122.81 279.29-19.02 341.72-163.31 59.41-137.32 20.52-277.38-96.4-370.8-70.58-56.4-248.77 56.43-319.33 0-58.98-47.16-95.33-150.27-57.16-220.21 39.39-72.18 66.77-160.59 6.15-216.17-51.45-47.16-104.6-39.59-174.4-39.19-91.78.53-132.43 66.02-224.09 70.79-139.33 7.25-219.96-195.36-336.8-119.15-55.33 36.1-42.73 100.5-96.47 138.91-80.71 57.68-164.13-21.04-253.01 23.04z" fill="#E9E9E9"/>
  </g>
  <g filter="url(#filter6_i)">
    <path d="M2693.26 1771.94c-67.21 33.33-111.82 69.87-128.16 143.06-17.64 79.02 48.38 92.76 22.41 169.45-20.2 59.63-82.77 102.88-131.2 121.66-47.96 18.59-126.29 112.13-110.87 161.18 26.66 84.85 202.32 139.43 275.01 190.71 121.36 85.61 38.56 172.29 182.85 207.56 102.55 25.06 139.49-120.96 244.86-114.47 115.14 7.09 128.63 147.3 241.81 169.55 116.14 22.84 267.97 44.75 294.76-70.48 17.61-75.73-49.42-102.93-40.01-180.11 6.56-53.71 6.21-95.52 40.01-137.79 72.36-90.5 205.8-14.02 251.81-120.35 43.78-101.19 15.12-204.39-71.03-273.23-52.02-41.56-183.32 41.58-235.32 0-43.46-34.75-70.24-110.73-42.12-162.27 29.03-53.19 49.21-118.34 4.53-159.29-37.91-34.76-77.07-29.18-128.51-28.88-67.63.39-97.59 48.65-165.12 52.16-102.68 5.34-162.09-143.96-248.19-87.79-40.77 26.59-31.48 74.05-71.08 102.35-59.48 42.51-120.95-15.5-186.44 16.98z" fill="#DFDFDF"/>
  </g>
  <g filter="url(#filter7_i)">
    <path d="M2780.02 1870.98c-67.15 26.37-112.15 56.4-130.36 119.39-19.66 67.99 89.54 107.09 61.74 172.74-21.62 51.05-129.07 61.63-177.31 76.07-47.77 14.3-127.62 92.58-113.86 135.81 23.8 74.77 160.17 80.63 230.27 128.01 117.04 79.11 20.42 146.77 161.5 183 100.27 25.75 109.92-80.22 213.5-70.5 113.18 10.62 192.5 158.5 316.5 123.37 111.88-31.7 92.27-117.75 122-216.87 19.54-65.14 82.37-126.85 176-213 46.05-86.26 12.94-97.45-82.11-126.55-55.89-17.11-113.77-.25-147.45-58.97-38.76-67.58 96.12-134.84 8.49-254.84-36.35-49.79-73.34-5.94-139.96-5.5-101.27.67-155.45-131.4-241.87-85.92-40.92 21.54-33.15 63.15-72.97 86.22-59.8 34.64-118.67-18.16-184.11 7.54z" fill="#D4D4D4"/>
  </g>
  <g filter="url(#filter8_i)">
    <path d="M2781.69 1979.81c-103.89 58.49 24.25 185.41 11.55 231.34-13.72 49.58-196.25 88.87-196.25 186.09 0 56.51 151.75 48.38 196.25 83.24 74.29 58.2 30.04 111.77 120.49 138.75 64.28 19.17 63.46-73.77 130.12-66.29 72.84 8.17 76.94 97.58 148.06 115.31 72.97 18.19 168.62 36.94 189.3-35.34 13.59-47.5-8.43-60.62 0-109.3 5.87-33.88-12.66-66.7 10.13-92.44 48.81-55.13 97.9-14.98 130.48-81 31.01-62.82 22.62-80.27-29.86-126.7-31.69-28.04-91.01-15.77-122.68-43.82-26.47-23.44-41.05-72.51-21.56-104.32 20.12-32.82 41.09-73.55 33.49-111.3-7.85-39.02-53.49-41.03-86.07-42.47l-1.25-.06c-42.93-1.91-82.33 58.23-125.31 58.31-65.33.11-35.17-143.46-91.6-110.56-26.72 15.58-85.44 92.92-111.48 109.62-39.09 25.08-70.8-62.69-183.81.94z" fill="#CBCBCB"/>
  </g>
  <g filter="url(#filter9_i)">
    <path d="M2919.93 2032.78c-35.97 15.64-60.22 33.55-70.67 71.33-11.28 40.8 46.18 64.62 30.61 103.98-12.11 30.6-69.26 36.63-95.04 45.17-25.53 8.45-68.88 55.23-62.12 81.25 11.7 45 124.92 47.09 161.53 75.77 61.12 47.88-7.33 121.99 67.09 144.18 52.89 15.78 76.01-59.49 130.85-53.34 59.93 6.72 63.3 80.28 121.81 94.87 59.5 14.83 79.28-54.33 96.19-113.45l.46-1.59c11.18-39.08-71.53-66.98-20.77-118.46 36.68-37.19 47.32 43.09 70.62 27.03 31.76-21.89 33.47-7.22 60.27-61.53 25.52-51.69-31.86-87.96-81.93-105.73-29.45-10.45-60.37-.49-77.51-35.88-19.73-40.72 45.84-63.75 35.78-91.04-10.97-29.72 73.88-47.67 51.63-70.23-18.88-19.14-39.48-17.25-66.34-18.44-35.32-1.57-52.23 22.84-87.59 22.9-53.75.1-80.85-79.41-127.28-52.35-21.98 12.82-18.38 37.84-39.8 51.58-32.17 20.64-62.74-11.27-97.79 3.98z" fill="#C8C8C8"/>
  </g>
  <g filter="url(#filter10_i)">
    <path d="M2978.8 2088.59c-22.35 7.34-54.25 3.38-63.82 26.84-10.34 25.32 24.76 68.08 12.06 92.17-9.87 18.72-36.94 34.66-52.71 38.2-15.61 3.51-28.43 53.46-26.92 70.66 2.63 29.75 46.38 15.13 64.99 36.27 31.07 35.31.63 59.54 41.81 79.37 29.26 14.09 85.75-2.19 117.04 5.88 34.2 8.8 9.61 23.47 42.25 37.22 33.49 14.11 84.67 35.22 100.07-1.65 10.12-24.23 5.2-33.31 12.95-58.48 5.39-17.53.13-48.77 13-60.95 27.53-26.08 62.6-14.65 83.21-47.48 19.62-31.25 24.26-26.25 2.72-54-13.01-16.75-103.72-31.62-116.72-48.38-10.86-14.01-9.61-26.75 2.13-42.34 12.12-16.09 42.23-43.96 31.39-60.1-9.19-13.7-31.87-16.21-47.37-18.99-20.37-3.66-33.52-.1-54.07-2.72-31.23-3.97-42.41-41.65-71.89-27.77-13.96 6.57-13.67 40.28-27.39 47.49-20.6 10.82-40.96-18.39-62.73-11.24z" fill="#CACACA"/>
  </g>
  <g filter="url(#filter11_i)">
    <path d="M2986.98 2120.31c-20.37 8.86-34.1 19-40.02 40.4-6.39 23.11 26.15 36.6 17.33 58.89-6.86 17.33-39.22 20.75-53.83 25.58-14.45 4.79-39.01 31.29-35.18 46.02 6.63 25.49 70.75 26.67 91.49 42.92 34.62 27.12-4.15 69.09 38 81.66 29.95 8.93 43.05-33.7 74.11-30.22 33.94 3.81 35.85 45.47 68.99 53.74 33.7 8.4 44.9-30.77 54.48-64.25l.26-.91c6.33-22.13-40.51-37.93-11.77-67.09 20.78-21.06 26.81 24.4 40 15.31 17.99-12.4 18.96-4.09 34.14-34.85 14.45-29.27-18.05-49.81-46.41-59.88-16.67-5.92-34.19-.28-43.9-20.32-11.17-23.06 25.97-36.11 20.27-51.56-6.22-16.84 41.84-27.01 29.24-39.78-10.69-10.84-22.36-9.77-37.57-10.45-20.01-.89-29.58 12.94-49.61 12.97-30.44.06-45.79-44.97-72.09-29.64-12.45 7.25-10.41 21.43-22.54 29.21-18.22 11.68-35.54-6.38-55.39 2.25z" fill="#C7C7C7"/>
  </g>
  <g filter="url(#filter12_i)">
    <path d="M2994.73 2166.18c-13.97 6.07-23.38 13.02-27.44 27.69-4.38 15.84 8.86 19.3 2.82 34.59-4.71 11.88-17.83 20.01-27.84 23.32-9.91 3.29-26.75 21.45-24.12 31.55 4.54 17.48 39.6 30.33 53.81 41.47 23.74 18.59 6.06 35.32 34.96 43.94 20.53 6.12 29.51-23.1 50.81-20.72 23.27 2.61 24.57 31.18 47.29 36.84 23.32 5.81 53.87 11.8 60.48-11.29 4.34-15.17-8.97-21.37-6.28-36.92 1.88-10.82 2.23-19.3 9.52-27.53 15.59-17.61 41.86-.74 52.27-21.83 9.91-20.07 5.15-41.28-11.62-56.12-10.12-8.95-37.58 6.56-47.7-2.39-8.46-7.49-13.12-23.17-6.89-33.33 6.43-10.49 11.18-23.49 2.54-32.25-7.33-7.43-15.33-6.7-25.76-7.16-13.71-.61-20.28 8.87-34.01 8.89-20.87.04-31.39-30.83-49.42-20.33-8.53 4.98-7.14 14.7-15.45 20.03-12.49 8.01-24.37-4.37-37.97 1.55z" fill="#BFBFBF"/>
  </g>
  <g filter="url(#filter13_i)">
    <path d="M3016.7 2194.45c-10.29 4.47-17.23 9.6-20.22 20.41-3.23 11.67 6.53 14.22 2.07 25.48-3.46 8.76-13.13 14.75-20.51 17.19-7.3 2.42-19.71 15.8-17.77 23.25 3.35 12.87 29.18 22.35 39.65 30.55 17.49 13.7 4.47 26.03 25.76 32.38 15.13 4.51 21.75-17.02 37.44-15.26 17.15 1.92 18.11 22.97 34.85 27.14 17.18 4.29 39.7 8.7 44.57-8.32 3.2-11.18-6.61-15.74-4.63-27.2 1.38-7.98 1.65-14.23 7.01-20.29 11.49-12.97 30.85-.55 38.52-16.09 7.3-14.79 3.8-30.42-8.56-41.35-7.46-6.6-27.7 4.84-35.15-1.76-6.23-5.52-9.67-17.07-5.08-24.56 4.74-7.73 8.24-17.31 1.87-23.77-5.4-5.47-11.29-4.93-18.98-5.27-10.1-.45-14.94 6.53-25.06 6.55-15.38.03-23.13-22.72-36.42-14.98-6.29 3.67-5.25 10.83-11.38 14.76-9.21 5.9-17.96-3.22-27.98 1.14z" fill="#BBB"/>
  </g>
  <g filter="url(#filter14_i)">
    <path d="M3016.29 2211.19c-19.84 11.18 4.64 35.42 2.21 44.19-2.62 9.47-37.49 16.98-37.49 35.55 0 10.79 28.99 9.24 37.49 15.9 14.19 11.11 5.74 21.35 23.01 26.5 12.28 3.66 12.13-14.09 24.86-12.66 13.91 1.56 14.69 18.64 28.28 22.02 13.94 3.48 32.21 7.06 36.16-6.75 2.59-9.07-1.61-11.57 0-20.87 1.12-6.47-2.42-12.74 1.93-17.66 9.33-10.53 18.7-2.86 24.93-15.47 5.92-12 4.32-15.33-5.71-24.2-6.05-5.36-17.38-3.01-23.43-8.37-5.06-4.48-7.84-13.85-4.12-19.93 3.84-6.27 7.85-14.05 6.4-21.26-1.5-7.45-10.22-7.84-16.44-8.11l-.24-.01c-8.2-.37-15.73 11.12-23.94 11.13-12.47.03-16.41-19.97-27.19-13.69-5.1 2.98-6.62 10.33-11.6 13.52-7.46 4.79-13.52-11.98-35.11.17z" fill="silver"/>
  </g>
  <g filter="url(#filter15_i)">
    <path d="M3042.6 2221.63c-6.89 2.99-11.52 6.42-13.52 13.65-2.16 7.8 8.83 12.36 5.85 19.89-2.32 5.85-13.25 7.01-18.18 8.64-4.88 1.62-13.18 10.57-11.88 15.54 2.23 8.61 23.89 9.01 30.9 14.5 11.69 9.16-1.4 23.34 12.83 27.58 10.12 3.02 14.54-11.38 25.04-10.2 11.46 1.28 12.11 15.36 23.3 18.15 11.38 2.84 15.17-10.39 18.4-21.7l.09-.31c2.14-7.48-13.69-12.81-3.97-22.66 7.01-7.12 9.05 8.24 13.51 5.17 6.07-4.19 6.4-1.38 11.53-11.77 4.88-9.89-6.1-16.83-15.68-20.23-5.63-2-11.55-.09-14.83-6.86-3.77-7.79 8.77-12.2 6.85-17.42-2.1-5.68 14.13-9.12 9.88-13.43-3.62-3.67-7.56-3.31-12.7-3.53-6.75-.3-9.99 4.37-16.75 4.38-10.28.02-15.47-15.2-24.35-10.02-4.21 2.45-3.52 7.24-7.62 9.87-6.15 3.95-12-2.16-18.7.76z" fill="#BFBFBF"/>
  </g>
  <g filter="url(#filter16_i)">
    <path d="M3053.34 2234.4c-4.39 1.91-7.35 4.1-8.63 8.72-1.38 4.98 5.64 7.89 3.74 12.7-1.48 3.74-8.46 4.48-11.61 5.52-3.12 1.03-8.42 6.75-7.59 9.93 1.42 5.5 15.26 5.75 19.73 9.26 7.47 5.85-.89 14.9 8.2 17.62 6.46 1.92 9.29-7.27 15.99-6.52 7.32.82 7.73 9.81 14.88 11.59 7.27 1.81 9.69-6.64 11.76-13.86l.05-.2c1.37-4.77-8.74-8.18-2.54-14.47 4.48-4.55 5.79 5.26 8.63 3.3 3.88-2.67 4.09-.88 7.37-7.52 3.11-6.31-3.9-10.74-10.01-12.92-3.6-1.27-7.38-.06-9.48-4.38-2.41-4.97 5.61-7.79 4.38-11.12-1.34-3.63 9.02-5.83 6.31-8.58-2.31-2.34-4.83-2.11-8.11-2.26-4.32-.19-6.38 2.79-10.7 2.8-6.57.01-9.88-9.7-15.55-6.4-2.69 1.57-2.25 4.63-4.87 6.31-3.93 2.52-7.66-1.38-11.95.48z" fill="#BCBCBC"/>
  </g>
  <g filter="url(#filter17_i)">
    <path d="M3059.74 2251.19c-2.27.99-3.8 2.12-4.46 4.5-.72 2.58 1.44 3.14.45 5.63-.76 1.93-2.89 3.25-4.52 3.79-1.61.53-4.35 3.48-3.92 5.13.74 2.84 6.44 4.93 8.75 6.74 3.85 3.02.98 5.74 5.68 7.14 3.34 1 4.8-3.76 8.26-3.37 3.78.43 3.99 5.07 7.69 5.99 3.79.95 8.75 1.92 9.83-1.83.7-2.47-1.46-3.48-1.02-6.01.3-1.76.36-3.13 1.54-4.47 2.54-2.86 6.81-.12 8.5-3.55 1.61-3.26.84-6.71-1.89-9.12-1.64-1.46-6.11 1.06-7.75-.39-1.38-1.22-2.13-3.77-1.12-5.42 1.04-1.7 1.82-3.82.41-5.24-1.19-1.21-2.49-1.09-4.19-1.17-2.23-.1-3.29 1.45-5.52 1.45-3.4.01-5.11-5.01-8.04-3.3-1.39.8-1.16 2.38-2.51 3.25-2.03 1.3-3.96-.71-6.17.25z" fill="#BBB"/>
  </g>
  <defs>
    <filter id="filter0_i" x="-2" y="0" width="6057.55" height="4691" filterUnits="userSpaceOnUse" color-interpolation-filters="sRGB">
      <feFlood flood-opacity="0" result="BackgroundImageFix"/>
      <feBlend in="SourceGraphic" in2="BackgroundImageFix" result="shape"/>
      <feColorMatrix in="SourceAlpha" values="0 0 0 0 0 0 0 0 0 0 0 0 0 0 0 0 0 0 127 0" result="hardAlpha"/>
      <feOffset dx="-2" dy="23"/>
      <feGaussianBlur stdDeviation="23"/>
      <feComposite in2="hardAlpha" operator="arithmetic" k2="-1" k3="1"/>
      <feColorMatrix values="0 0 0 0 0 0 0 0 0 0 0 0 0 0 0 0 0 0 0.25 0"/>
      <feBlend in2="shape" result="effect1_innerShadow"/>
    </filter>
    <filter id="filter1_i" x="750.164" y="200.924" width="4952.56" height="4290.42" filterUnits="userSpaceOnUse" color-interpolation-filters="sRGB">
      <feFlood flood-opacity="0" result="BackgroundImageFix"/>
      <feBlend in="SourceGraphic" in2="BackgroundImageFix" result="shape"/>
      <feColorMatrix in="SourceAlpha" values="0 0 0 0 0 0 0 0 0 0 0 0 0 0 0 0 0 0 127 0" result="hardAlpha"/>
      <feOffset dx="-2" dy="23"/>
      <feGaussianBlur stdDeviation="23"/>
      <feComposite in2="hardAlpha" operator="arithmetic" k2="-1" k3="1"/>
      <feColorMatrix values="0 0 0 0 0 0 0 0 0 0 0 0 0 0 0 0 0 0 0.25 0"/>
      <feBlend in2="shape" result="effect1_innerShadow"/>
    </filter>
    <filter id="filter2_i" x="1035.1" y="457.926" width="4094.1" height="3679.13" filterUnits="userSpaceOnUse" color-interpolation-filters="sRGB">
      <feFlood flood-opacity="0" result="BackgroundImageFix"/>
      <feBlend in="SourceGraphic" in2="BackgroundImageFix" result="shape"/>
      <feColorMatrix in="SourceAlpha" values="0 0 0 0 0 0 0 0 0 0 0 0 0 0 0 0 0 0 127 0" result="hardAlpha"/>
      <feOffset dx="-2" dy="23"/>
      <feGaussianBlur stdDeviation="23"/>
      <feComposite in2="hardAlpha" operator="arithmetic" k2="-1" k3="1"/>
      <feColorMatrix values="0 0 0 0 0 0 0 0 0 0 0 0 0 0 0 0 0 0 0.25 0"/>
      <feBlend in2="shape" result="effect1_innerShadow"/>
    </filter>
    <filter id="filter3_i" x="1566.54" y="651.266" width="3379.18" height="3092.06" filterUnits="userSpaceOnUse" color-interpolation-filters="sRGB">
      <feFlood flood-opacity="0" result="BackgroundImageFix"/>
      <feBlend in="SourceGraphic" in2="BackgroundImageFix" result="shape"/>
      <feColorMatrix in="SourceAlpha" values="0 0 0 0 0 0 0 0 0 0 0 0 0 0 0 0 0 0 127 0" result="hardAlpha"/>
      <feOffset dx="-2" dy="23"/>
      <feGaussianBlur stdDeviation="23"/>
      <feComposite in2="hardAlpha" operator="arithmetic" k2="-1" k3="1"/>
      <feColorMatrix values="0 0 0 0 0 0 0 0 0 0 0 0 0 0 0 0 0 0 0.25 0"/>
      <feBlend in2="shape" result="effect1_innerShadow"/>
    </filter>
    <filter id="filter4_i" x="1774.55" y="989" width="2615.6" height="2358.14" filterUnits="userSpaceOnUse" color-interpolation-filters="sRGB">
      <feFlood flood-opacity="0" result="BackgroundImageFix"/>
      <feBlend in="SourceGraphic" in2="BackgroundImageFix" result="shape"/>
      <feColorMatrix in="SourceAlpha" values="0 0 0 0 0 0 0 0 0 0 0 0 0 0 0 0 0 0 127 0" result="hardAlpha"/>
      <feOffset dx="-2" dy="23"/>
      <feGaussianBlur stdDeviation="23"/>
      <feComposite in2="hardAlpha" operator="arithmetic" k2="-1" k3="1"/>
      <feColorMatrix values="0 0 0 0 0 0 0 0 0 0 0 0 0 0 0 0 0 0 0.25 0"/>
      <feBlend in2="shape" result="effect1_innerShadow"/>
    </filter>
    <filter id="filter5_i" x="2079.04" y="1406.79" width="2088.55" height="1683.51" filterUnits="userSpaceOnUse" color-interpolation-filters="sRGB">
      <feFlood flood-opacity="0" result="BackgroundImageFix"/>
      <feBlend in="SourceGraphic" in2="BackgroundImageFix" result="shape"/>
      <feColorMatrix in="SourceAlpha" values="0 0 0 0 0 0 0 0 0 0 0 0 0 0 0 0 0 0 127 0" result="hardAlpha"/>
      <feOffset dx="-2" dy="23"/>
      <feGaussianBlur stdDeviation="23"/>
      <feComposite in2="hardAlpha" operator="arithmetic" k2="-1" k3="1"/>
      <feColorMatrix values="0 0 0 0 0 0 0 0 0 0 0 0 0 0 0 0 0 0 0.25 0"/>
      <feBlend in2="shape" result="effect1_innerShadow"/>
    </filter>
    <filter id="filter6_i" x="2330.55" y="1625" width="1539.54" height="1246.6" filterUnits="userSpaceOnUse" color-interpolation-filters="sRGB">
      <feFlood flood-opacity="0" result="BackgroundImageFix"/>
      <feBlend in="SourceGraphic" in2="BackgroundImageFix" result="shape"/>
      <feColorMatrix in="SourceAlpha" values="0 0 0 0 0 0 0 0 0 0 0 0 0 0 0 0 0 0 127 0" result="hardAlpha"/>
      <feOffset dx="-2" dy="23"/>
      <feGaussianBlur stdDeviation="23"/>
      <feComposite in2="hardAlpha" operator="arithmetic" k2="-1" k3="1"/>
      <feColorMatrix values="0 0 0 0 0 0 0 0 0 0 0 0 0 0 0 0 0 0 0.25 0"/>
      <feBlend in2="shape" result="effect1_innerShadow"/>
    </filter>
    <filter id="filter7_i" x="2396.96" y="1730.4" width="1290.46" height="1056.72" filterUnits="userSpaceOnUse" color-interpolation-filters="sRGB">
      <feFlood flood-opacity="0" result="BackgroundImageFix"/>
      <feBlend in="SourceGraphic" in2="BackgroundImageFix" result="shape"/>
      <feColorMatrix in="SourceAlpha" values="0 0 0 0 0 0 0 0 0 0 0 0 0 0 0 0 0 0 127 0" result="hardAlpha"/>
      <feOffset dx="-2" dy="23"/>
      <feGaussianBlur stdDeviation="23"/>
      <feComposite in2="hardAlpha" operator="arithmetic" k2="-1" k3="1"/>
      <feColorMatrix values="0 0 0 0 0 0 0 0 0 0 0 0 0 0 0 0 0 0 0.25 0"/>
      <feBlend in2="shape" result="effect1_innerShadow"/>
    </filter>
    <filter id="filter8_i" x="2577.37" y="1830.75" width="991.808" height="893.501" filterUnits="userSpaceOnUse" color-interpolation-filters="sRGB">
      <feFlood flood-opacity="0" result="BackgroundImageFix"/>
      <feBlend in="SourceGraphic" in2="BackgroundImageFix" result="shape"/>
      <feColorMatrix in="SourceAlpha" values="0 0 0 0 0 0 0 0 0 0 0 0 0 0 0 0 0 0 127 0" result="hardAlpha"/>
      <feOffset dx="-2" dy="23"/>
      <feGaussianBlur stdDeviation="23"/>
      <feComposite in2="hardAlpha" operator="arithmetic" k2="-1" k3="1"/>
      <feColorMatrix values="0 0 0 0 0 0 0 0 0 0 0 0 0 0 0 0 0 0 0.25 0"/>
      <feBlend in2="shape" result="effect1_innerShadow"/>
    </filter>
    <filter id="filter9_i" x="2702.79" y="1947.33" width="736.928" height="686.778" filterUnits="userSpaceOnUse" color-interpolation-filters="sRGB">
      <feFlood flood-opacity="0" result="BackgroundImageFix"/>
      <feBlend in="SourceGraphic" in2="BackgroundImageFix" result="shape"/>
      <feColorMatrix in="SourceAlpha" values="0 0 0 0 0 0 0 0 0 0 0 0 0 0 0 0 0 0 127 0" result="hardAlpha"/>
      <feOffset dx="-2" dy="23"/>
      <feGaussianBlur stdDeviation="23"/>
      <feComposite in2="hardAlpha" operator="arithmetic" k2="-1" k3="1"/>
      <feColorMatrix values="0 0 0 0 0 0 0 0 0 0 0 0 0 0 0 0 0 0 0.25 0"/>
      <feBlend in2="shape" result="effect1_innerShadow"/>
    </filter>
    <filter id="filter10_i" x="2820.84" y="2012.12" width="554.332" height="529.874" filterUnits="userSpaceOnUse" color-interpolation-filters="sRGB">
      <feFlood flood-opacity="0" result="BackgroundImageFix"/>
      <feBlend in="SourceGraphic" in2="BackgroundImageFix" result="shape"/>
      <feColorMatrix in="SourceAlpha" values="0 0 0 0 0 0 0 0 0 0 0 0 0 0 0 0 0 0 127 0" result="hardAlpha"/>
      <feOffset dx="-2" dy="23"/>
      <feGaussianBlur stdDeviation="23"/>
      <feComposite in2="hardAlpha" operator="arithmetic" k2="-1" k3="1"/>
      <feColorMatrix values="0 0 0 0 0 0 0 0 0 0 0 0 0 0 0 0 0 0 0.25 0"/>
      <feBlend in2="shape" result="effect1_innerShadow"/>
    </filter>
    <filter id="filter11_i" x="2863.14" y="2071.92" width="418.243" height="398.946" filterUnits="userSpaceOnUse" color-interpolation-filters="sRGB">
      <feFlood flood-opacity="0" result="BackgroundImageFix"/>
      <feBlend in="SourceGraphic" in2="BackgroundImageFix" result="shape"/>
      <feColorMatrix in="SourceAlpha" values="0 0 0 0 0 0 0 0 0 0 0 0 0 0 0 0 0 0 127 0" result="hardAlpha"/>
      <feOffset dx="-2" dy="23"/>
      <feGaussianBlur stdDeviation="23"/>
      <feComposite in2="hardAlpha" operator="arithmetic" k2="-1" k3="1"/>
      <feColorMatrix values="0 0 0 0 0 0 0 0 0 0 0 0 0 0 0 0 0 0 0.25 0"/>
      <feBlend in2="shape" result="effect1_innerShadow"/>
    </filter>
    <filter id="filter12_i" x="2909" y="2133" width="325.444" height="286.149" filterUnits="userSpaceOnUse" color-interpolation-filters="sRGB">
      <feFlood flood-opacity="0" result="BackgroundImageFix"/>
      <feBlend in="SourceGraphic" in2="BackgroundImageFix" result="shape"/>
      <feColorMatrix in="SourceAlpha" values="0 0 0 0 0 0 0 0 0 0 0 0 0 0 0 0 0 0 127 0" result="hardAlpha"/>
      <feOffset dx="-2" dy="23"/>
      <feGaussianBlur stdDeviation="23"/>
      <feComposite in2="hardAlpha" operator="arithmetic" k2="-1" k3="1"/>
      <feColorMatrix values="0 0 0 0 0 0 0 0 0 0 0 0 0 0 0 0 0 0 0.25 0"/>
      <feBlend in2="shape" result="effect1_innerShadow"/>
    </filter>
    <filter id="filter13_i" x="2953" y="2170" width="240.341" height="216.91" filterUnits="userSpaceOnUse" color-interpolation-filters="sRGB">
      <feFlood flood-opacity="0" result="BackgroundImageFix"/>
      <feBlend in="SourceGraphic" in2="BackgroundImageFix" result="shape"/>
      <feColorMatrix in="SourceAlpha" values="0 0 0 0 0 0 0 0 0 0 0 0 0 0 0 0 0 0 127 0" result="hardAlpha"/>
      <feOffset dx="-2" dy="23"/>
      <feGaussianBlur stdDeviation="23"/>
      <feComposite in2="hardAlpha" operator="arithmetic" k2="-1" k3="1"/>
      <feColorMatrix values="0 0 0 0 0 0 0 0 0 0 0 0 0 0 0 0 0 0 0.25 0"/>
      <feBlend in2="shape" result="effect1_innerShadow"/>
    </filter>
    <filter id="filter14_i" x="2975.65" y="2190.44" width="190.492" height="181.56" filterUnits="userSpaceOnUse" color-interpolation-filters="sRGB">
      <feFlood flood-opacity="0" result="BackgroundImageFix"/>
      <feBlend in="SourceGraphic" in2="BackgroundImageFix" result="shape"/>
      <feColorMatrix in="SourceAlpha" values="0 0 0 0 0 0 0 0 0 0 0 0 0 0 0 0 0 0 127 0" result="hardAlpha"/>
      <feOffset dx="-2" dy="23"/>
      <feGaussianBlur stdDeviation="23"/>
      <feComposite in2="hardAlpha" operator="arithmetic" k2="-1" k3="1"/>
      <feColorMatrix values="0 0 0 0 0 0 0 0 0 0 0 0 0 0 0 0 0 0 0.25 0"/>
      <feBlend in2="shape" result="effect1_innerShadow"/>
    </filter>
    <filter id="filter15_i" x="2999.44" y="2205.29" width="142.598" height="149.987" filterUnits="userSpaceOnUse" color-interpolation-filters="sRGB">
      <feFlood flood-opacity="0" result="BackgroundImageFix"/>
      <feBlend in="SourceGraphic" in2="BackgroundImageFix" result="shape"/>
      <feColorMatrix in="SourceAlpha" values="0 0 0 0 0 0 0 0 0 0 0 0 0 0 0 0 0 0 127 0" result="hardAlpha"/>
      <feOffset dx="-2" dy="23"/>
      <feGaussianBlur stdDeviation="23"/>
      <feComposite in2="hardAlpha" operator="arithmetic" k2="-1" k3="1"/>
      <feColorMatrix values="0 0 0 0 0 0 0 0 0 0 0 0 0 0 0 0 0 0 0.25 0"/>
      <feBlend in2="shape" result="effect1_innerShadow"/>
    </filter>
    <filter id="filter16_i" x="3025.06" y="2223.96" width="91.799" height="104.105" filterUnits="userSpaceOnUse" color-interpolation-filters="sRGB">
      <feFlood flood-opacity="0" result="BackgroundImageFix"/>
      <feBlend in="SourceGraphic" in2="BackgroundImageFix" result="shape"/>
      <feColorMatrix in="SourceAlpha" values="0 0 0 0 0 0 0 0 0 0 0 0 0 0 0 0 0 0 127 0" result="hardAlpha"/>
      <feOffset dx="-2" dy="23"/>
      <feGaussianBlur stdDeviation="23"/>
      <feComposite in2="hardAlpha" operator="arithmetic" k2="-1" k3="1"/>
      <feColorMatrix values="0 0 0 0 0 0 0 0 0 0 0 0 0 0 0 0 0 0 0.25 0"/>
      <feBlend in2="shape" result="effect1_innerShadow"/>
    </filter>
    <filter id="filter17_i" x="3044.13" y="2245.8" width="54.579" height="65.777" filterUnits="userSpaceOnUse" color-interpolation-filters="sRGB">
      <feFlood flood-opacity="0" result="BackgroundImageFix"/>
      <feBlend in="SourceGraphic" in2="BackgroundImageFix" result="shape"/>
      <feColorMatrix in="SourceAlpha" values="0 0 0 0 0 0 0 0 0 0 0 0 0 0 0 0 0 0 127 0" result="hardAlpha"/>
      <feOffset dx="-2" dy="23"/>
      <feGaussianBlur stdDeviation="23"/>
      <feComposite in2="hardAlpha" operator="arithmetic" k2="-1" k3="1"/>
      <feColorMatrix values="0 0 0 0 0 0 0 0 0 0 0 0 0 0 0 0 0 0 0.25 0"/>
      <feBlend in2="shape" result="effect1_innerShadow"/>
    </filter>
  </defs>
</svg>