<svg width="6056" height="4668" viewBox="0 0 6056 4668" fill="none" xmlns="http://www.w3.org/2000/svg">
<g filter="url(#filter0_i)">
<path d="M1316.56 546.154C1055.89 683.344 884.224 831.012 826.911 1120.03C765.042 1432.02 1118.83 1446.89 1024.05 1750.5C950.343 1986.6 723.875 2160.74 535.549 2239C349.068 2316.49 -58.0947 2725.77 6.96911 2917C119.509 3247.76 799.053 3325.21 1089.11 3519.85C1573.39 3844.82 1271.39 4313.57 1840.97 4438.63C2245.76 4527.51 2475.41 4041.51 2889.54 4057.16C3342.05 4074.27 3309.84 4532.76 3756.1 4609.63C4214.01 4688.5 4811.91 4760.41 4906.34 4305.3C4968.4 4006.21 4988.23 3823.87 5018 3519.85C5038.72 3308.25 5226.74 3236.57 5355.46 3067.38C5631.02 2705.2 5837.11 2793.63 6007.76 2371.71C6170.16 1970.17 5894.08 1756.28 5549.55 1493.91C5341.54 1335.51 5114.28 1278.51 4906.34 1120.03C4732.55 987.576 4676.81 661.012 4586.27 462.103C4487.66 245.449 4627.71 413.017 4448.56 256.32C4296.55 123.355 4143.37 148.914 3941.53 154.878C3676.15 162.72 3563.06 355.063 3298.33 375.152C2895.87 405.692 2648.8 -175.189 2316.13 53.4362C2158.61 161.694 2199.47 347.246 2046.68 462.103C1817.24 634.592 1570.56 412.472 1316.56 546.154Z" fill="#FAFAFA"/>
</g>
<g filter="url(#filter1_i)">
<path d="M1627.55 850C1392.59 966.527 1531.67 1475.63 1474.55 1731.5C1412.88 2007.72 794.048 2059.83 794.048 2596.33C794.049 2907.23 1509.4 3084.74 1763.52 3264C2187.78 3563.29 1803.11 4058.92 2307.53 4182.19C2666.02 4269.8 2635.86 3759.36 3004.21 3782.03C3406.69 3806.81 3453.88 4296.95 3849.55 4374.76C4255.53 4454.59 4786.29 4531.18 4879.96 4128.35C4941.52 3863.61 4707.18 3768.54 4740.1 3498.74C4763.01 3310.96 4761.8 3164.8 4879.96 3017.03C5132.93 2700.68 5413.72 2907.71 5574.55 2536C5727.6 2182.26 5674.73 1972.16 5373.55 1731.5C5191.72 1586.21 4871.08 1786.51 4689.3 1641.15C4537.38 1519.66 4443.74 1254.05 4542.06 1073.9C4643.54 887.955 4714.07 660.195 4557.9 517.025C4425.37 395.538 4288.47 415.037 4108.65 416.079C3872.23 417.448 3767.5 586.152 3531.39 598.429C3172.46 617.094 2964.77 95.1673 2663.79 291.507C2521.27 384.477 2553.72 550.393 2415.28 649.332C2207.38 797.918 1856.5 736.453 1627.55 850Z" fill="#F9F9F9"/>
</g>
<g filter="url(#filter2_i)">
<path d="M2129.45 903.288C1925.74 1004.32 1790.53 1115.06 1741.01 1336.9C1687.54 1576.39 2027.17 1697.62 1948.45 1930.03C1887.24 2110.77 1558.08 2162.32 1411.28 2219.22C1265.93 2275.57 1028.52 2559.09 1075.24 2707.76C1156.06 2964.91 1812.26 2944.08 2032.58 3099.5C2400.42 3358.99 2025.64 3807.98 2462.98 3914.87C2773.79 3990.82 2885.78 3548.26 3205.14 3567.92C3554.1 3589.4 3595.01 4014.37 3938.06 4081.82C4286.9 4150.42 4381.32 3744.23 4462.03 3396.99L4464.21 3387.6C4517.59 3158.06 4030.56 3020.58 4309.5 2707.76C4511.06 2481.72 4596.05 2943.47 4726.29 2843.72C4903.8 2707.76 4917.94 2792.2 5057.38 2469.92C5190.08 2163.22 4847.32 1969.89 4552.2 1881.55C4378.67 1829.6 4202.5 1896.23 4092.96 1696.34C3966.89 1466.3 4339.88 1313.86 4273.65 1158.79C4201.5 989.899 4687.61 861.255 4552.2 737.125C4437.3 631.795 4318.61 648.701 4162.71 649.604C3957.72 650.791 3866.92 797.059 3662.21 807.704C3351.02 823.886 3170.95 371.37 2909.99 541.599C2786.42 622.205 2814.56 766.056 2694.53 851.837C2514.28 980.663 2327.95 804.84 2129.45 903.288Z" fill="#F9F9F9"/>
</g>
<g filter="url(#filter3_i)">
<path d="M2445.05 1110.5C2306.8 1163.71 2104.88 1148.89 2052.05 1299.5C1995.02 1462.08 2229.31 1719.99 2157.05 1875.5C2100.86 1996.43 1935.62 2105.25 1837.55 2132.5C1740.44 2159.48 1675.58 2477.78 1690.55 2585.49C1716.44 2771.8 1987.09 2665.98 2110.82 2793.14C2317.42 3005.44 2133.61 3167.48 2398.88 3279.18C2587.4 3358.57 2937.66 3238.36 3137.05 3279.18C3354.92 3323.79 3204.88 3423.81 3414.55 3500C3629.68 3578.17 3958.33 3694.83 4043.55 3458C4099.55 3302.35 4065.77 3246.81 4106.55 3086C4134.93 2974.07 4091.99 2779.21 4169.05 2698.5C4334.02 2525.71 4558.26 2586.56 4677.55 2373.5C4791.07 2170.74 4821.82 2200.77 4677.55 2033C4590.45 1931.71 4015.12 1866.82 3928.05 1765.5C3855.28 1680.82 3859.1 1600.26 3928.05 1498.5C3999.21 1393.47 4179.81 1208.61 4106.55 1110.5C4044.38 1027.25 3900.91 1018.6 3802.55 1006C3673.22 989.431 3591.62 1015.95 3461.55 1006C3263.81 990.881 3181.62 757.357 3000.55 854C2914.81 899.761 2927.25 1111.7 2843.23 1161.38C2717.06 1235.98 2579.76 1058.65 2445.05 1110.5Z" fill="#F2F2F2"/>
</g>
<g filter="url(#filter4_i)">
<path d="M2474.22 1273.45C2344.12 1337.98 2257.76 1408.7 2226.13 1550.4C2191.98 1703.35 2408.9 1780.78 2358.62 1929.22C2319.53 2044.66 2109.29 2077.58 2015.54 2113.92C1922.7 2149.91 1771.07 2330.99 1800.91 2425.95C1852.53 2590.19 2271.63 2576.89 2412.35 2676.15C2647.29 2841.89 2407.92 3128.66 2687.25 3196.92C2885.76 3245.43 2957.29 2962.77 3161.26 2975.33C3384.14 2989.05 3410.27 3260.47 3629.37 3303.55C3852.17 3347.37 3912.47 3087.94 3964.03 2866.16L3965.42 2860.16C3999.51 2713.56 3688.45 2625.74 3866.6 2425.95C3995.34 2281.58 4049.62 2576.5 4132.8 2512.79C4246.18 2425.95 4255.21 2479.88 4344.27 2274.04C4429.03 2078.16 4210.11 1954.68 4021.62 1898.26C3910.78 1865.08 3798.26 1907.63 3728.3 1779.97C3647.78 1633.04 3886.01 1535.68 3843.71 1436.64C3797.62 1328.77 4108.1 1246.6 4021.62 1167.32C3948.23 1100.05 3872.42 1110.85 3772.85 1111.42C3641.93 1112.18 3583.93 1205.6 3453.19 1212.4C3254.43 1222.74 3139.42 933.717 2972.75 1042.44C2893.83 1093.92 2911.8 1185.8 2835.14 1240.59C2720.01 1322.87 2601 1210.57 2474.22 1273.45Z" fill="#EDEDED"/>
</g>
<g filter="url(#filter5_i)">
<path d="M2570.54 1606.2C2479.33 1651.43 2418.79 1701.02 2396.62 1800.34C2372.68 1907.57 2462.28 1926.23 2427.03 2030.29C2399.63 2111.21 2314.71 2169.92 2248.99 2195.39C2183.91 2220.62 2077.61 2347.57 2098.53 2414.13C2134.71 2529.27 2373.09 2603.34 2471.74 2672.93C2636.43 2789.11 2524.06 2906.75 2719.88 2954.6C2859.04 2988.61 2909.18 2790.46 3052.17 2799.26C3208.41 2808.88 3226.73 2999.15 3380.33 3029.36C3537.93 3060.35 3743.97 3090.08 3780.33 2933.7C3804.23 2830.93 3713.26 2794.03 3726.03 2689.29C3734.93 2616.39 3734.46 2559.66 3780.33 2502.29C3878.53 2379.48 4059.62 2483.27 4122.05 2338.98C4181.46 2201.66 4142.57 2061.6 4025.65 1968.18C3955.07 1911.78 3776.88 2024.61 3706.32 1968.18C3647.34 1921.02 3610.99 1817.91 3649.16 1747.97C3688.55 1675.79 3715.93 1587.38 3655.3 1531.8C3603.86 1484.64 3550.71 1492.21 3480.91 1492.61C3389.13 1493.14 3348.48 1558.63 3256.82 1563.4C3117.49 1570.65 3036.86 1368.04 2920.02 1444.25C2864.69 1480.34 2877.29 1544.75 2823.55 1583.16C2742.84 1640.84 2659.41 1562.12 2570.54 1606.2Z" fill="#E9E9E9"/>
</g>
<g filter="url(#filter6_i)">
<path d="M2693.26 1771.94C2626.05 1805.27 2581.44 1841.81 2565.1 1915C2547.46 1994.02 2613.48 2007.76 2587.51 2084.45C2567.31 2144.08 2504.74 2187.33 2456.31 2206.11C2408.35 2224.7 2330.02 2318.24 2345.44 2367.29C2372.1 2452.14 2547.76 2506.72 2620.45 2558C2741.81 2643.61 2659.01 2730.29 2803.3 2765.56C2905.85 2790.62 2942.79 2644.6 3048.16 2651.09C3163.3 2658.18 3176.79 2798.39 3289.97 2820.64C3406.11 2843.48 3557.94 2865.39 3584.73 2750.16C3602.34 2674.43 3535.31 2647.23 3544.72 2570.05C3551.28 2516.34 3550.93 2474.53 3584.73 2432.26C3657.09 2341.76 3790.53 2418.24 3836.54 2311.91C3880.32 2210.72 3851.66 2107.52 3765.51 2038.68C3713.49 1997.12 3582.19 2080.26 3530.19 2038.68C3486.73 2003.93 3459.95 1927.95 3488.07 1876.41C3517.1 1823.22 3537.28 1758.07 3492.6 1717.12C3454.69 1682.36 3415.53 1687.94 3364.09 1688.24C3296.46 1688.63 3266.5 1736.89 3198.97 1740.4C3096.29 1745.74 3036.88 1596.44 2950.78 1652.61C2910.01 1679.2 2919.3 1726.66 2879.7 1754.96C2820.22 1797.47 2758.75 1739.46 2693.26 1771.94Z" fill="#DFDFDF"/>
</g>
<g filter="url(#filter7_i)">
<path d="M2858.96 1974.93C2810.98 1998.73 2779.12 2024.81 2767.46 2077.08C2754.86 2133.49 2834.87 2162.05 2816.33 2216.8C2801.91 2259.38 2724.36 2271.53 2689.78 2284.93C2655.54 2298.2 2599.61 2365 2610.62 2400.02C2629.65 2460.6 2784.24 2455.69 2836.15 2492.31C2922.8 2553.44 2834.51 2659.21 2937.54 2684.39C3010.76 2702.28 3037.14 2598.02 3112.38 2602.66C3194.58 2607.72 3204.22 2707.83 3285.03 2723.72C3367.21 2739.88 3389.46 2644.19 3408.47 2562.39L3408.99 2560.18C3421.56 2506.1 3306.83 2473.71 3372.54 2400.02C3420.02 2346.77 3440.04 2455.55 3470.73 2432.05C3512.54 2400.02 3515.88 2419.91 3548.72 2343.99C3579.99 2271.74 3499.24 2226.2 3429.72 2205.38C3388.83 2193.15 3347.33 2208.84 3321.53 2161.75C3291.83 2107.56 3379.7 2071.65 3364.09 2035.12C3347.1 1995.33 3461.61 1965.02 3429.72 1935.78C3402.65 1910.97 3374.68 1914.95 3337.96 1915.16C3289.67 1915.44 3268.28 1949.9 3220.05 1952.41C3146.74 1956.22 3104.32 1849.62 3042.84 1889.72C3013.74 1908.71 3020.36 1942.6 2992.09 1962.8C2949.62 1993.15 2905.73 1951.73 2858.96 1974.93Z" fill="#D4D4D4"/>
</g>
<g filter="url(#filter8_i)">
<path d="M2973.53 2118.07C2947.43 2131.02 2930.1 2145.21 2923.75 2173.64C2916.9 2204.33 2960.43 2219.86 2950.34 2249.65C2942.49 2272.81 2900.31 2279.42 2881.5 2286.71C2862.87 2293.93 2832.45 2330.26 2838.44 2349.31C2848.79 2382.27 2932.88 2379.6 2961.12 2399.52C3008.26 2432.77 2960.23 2490.31 3016.27 2504C3056.1 2513.74 3070.46 2457.02 3111.38 2459.54C3156.1 2462.3 3161.34 2516.75 3205.3 2525.4C3250.01 2534.19 3262.11 2482.14 3272.45 2437.64L3272.73 2436.43C3279.57 2407.02 3217.16 2389.4 3252.9 2349.31C3278.73 2320.35 3289.63 2379.52 3306.31 2366.74C3329.06 2349.31 3330.88 2360.13 3348.74 2318.83C3365.75 2279.53 3321.82 2254.76 3284.01 2243.44C3261.77 2236.78 3239.19 2245.32 3225.15 2219.7C3209 2190.22 3256.8 2170.69 3248.31 2150.82C3239.06 2129.17 3301.36 2112.69 3284.01 2096.78C3269.28 2083.28 3254.07 2085.45 3234.09 2085.56C3207.82 2085.72 3196.19 2104.46 3169.95 2105.82C3130.08 2107.9 3107 2049.91 3073.56 2071.72C3057.72 2082.05 3061.33 2100.49 3045.95 2111.48C3022.85 2127.99 2998.97 2105.46 2973.53 2118.07Z" fill="#D4D4D4"/>
</g>
<g filter="url(#filter9_i)">
<path d="M3030.85 2199.95C3018 2205.96 3007.59 2213.2 3004.76 2225.85C3001.71 2239.51 2984.78 2235.15 2980.11 2248.44C2976.47 2258.78 2971.87 2277.98 2967.3 2285.95C2956.74 2304.39 2953.53 2316.96 2956.74 2325.33C2962.29 2339.82 2977.17 2348.3 2991.47 2356.82C3015.35 2371.05 3002.76 2393.97 3030.85 2399.44C3050.81 2403.34 3073.14 2392.2 3093.56 2392.89C3115.88 2393.63 3119.6 2396.08 3141.61 2399.44C3164.19 2402.9 3193.67 2406.05 3198.33 2386.12C3201.39 2373.02 3201.24 2373.65 3202.71 2360.33C3203.73 2351.07 3205.1 2349.95 3211.45 2342.54C3225.04 2326.68 3236.63 2328.2 3245.05 2309.72C3253.05 2292.14 3247.03 2274.51 3230.04 2263.02C3219.79 2256.09 3218.35 2255.38 3208.1 2248.44C3199.53 2242.65 3187.79 2234.56 3183.32 2225.85C3178.46 2216.37 3184.59 2215.7 3175.75 2208.84C3168.26 2203.02 3160.71 2204.14 3150.75 2204.4C3137.67 2204.74 3139.23 2207.96 3126.17 2208.84C3106.33 2210.18 3113.08 2199.96 3081.75 2191.82C3073.14 2189.58 3058.98 2186.79 3051.45 2191.82C3040.14 2199.37 3043.37 2194.1 3030.85 2199.95Z" fill="#CECECE"/>
</g>
<g filter="url(#filter10_i)">
<path d="M3076.53 2260.96C3071.93 2263.13 3068.2 2265.75 3067.18 2270.32C3066.09 2275.26 3060.02 2273.68 3058.35 2278.49C3057.05 2282.23 3055.4 2289.17 3053.76 2292.05C3049.97 2298.71 3048.83 2303.26 3049.97 2306.28C3051.96 2311.52 3057.3 2314.59 3062.42 2317.67C3070.98 2322.81 3066.47 2331.1 3076.53 2333.08C3083.69 2334.48 3091.69 2330.46 3099.01 2330.7C3107 2330.98 3108.34 2331.86 3116.23 2333.08C3124.32 2334.32 3134.88 2335.46 3136.55 2328.26C3137.65 2323.53 3137.6 2323.75 3138.12 2318.94C3138.49 2315.59 3138.98 2315.18 3141.25 2312.5C3146.12 2306.77 3150.28 2307.32 3153.29 2300.64C3156.16 2294.29 3154.01 2287.91 3147.92 2283.76C3144.24 2281.25 3143.73 2281 3140.05 2278.49C3136.98 2276.39 3132.77 2273.47 3131.17 2270.32C3129.43 2266.89 3131.63 2266.65 3128.46 2264.17C3125.78 2262.07 3123.07 2262.47 3119.5 2262.57C3114.81 2262.69 3115.37 2263.85 3110.69 2264.17C3103.58 2264.65 3106 2260.96 3094.77 2258.02C3091.69 2257.21 3086.62 2256.2 3083.92 2258.02C3079.86 2260.75 3081.02 2258.84 3076.53 2260.96Z" fill="#CECECE"/>
</g>
<defs>
<filter id="filter0_i" x="-2" y="0" width="6057.55" height="4691" filterUnits="userSpaceOnUse" color-interpolation-filters="sRGB">
<feFlood flood-opacity="0" result="BackgroundImageFix"/>
<feBlend mode="normal" in="SourceGraphic" in2="BackgroundImageFix" result="shape"/>
<feColorMatrix in="SourceAlpha" type="matrix" values="0 0 0 0 0 0 0 0 0 0 0 0 0 0 0 0 0 0 127 0" result="hardAlpha"/>
<feOffset dx="-2" dy="23"/>
<feGaussianBlur stdDeviation="23"/>
<feComposite in2="hardAlpha" operator="arithmetic" k2="-1" k3="1"/>
<feColorMatrix type="matrix" values="0 0 0 0 0 0 0 0 0 0 0 0 0 0 0 0 0 0 0.25 0"/>
<feBlend mode="normal" in2="shape" result="effect1_innerShadow"/>
</filter>
<filter id="filter1_i" x="750.164" y="200.924" width="4952.56" height="4290.42" filterUnits="userSpaceOnUse" color-interpolation-filters="sRGB">
<feFlood flood-opacity="0" result="BackgroundImageFix"/>
<feBlend mode="normal" in="SourceGraphic" in2="BackgroundImageFix" result="shape"/>
<feColorMatrix in="SourceAlpha" type="matrix" values="0 0 0 0 0 0 0 0 0 0 0 0 0 0 0 0 0 0 127 0" result="hardAlpha"/>
<feOffset dx="-2" dy="23"/>
<feGaussianBlur stdDeviation="23"/>
<feComposite in2="hardAlpha" operator="arithmetic" k2="-1" k3="1"/>
<feColorMatrix type="matrix" values="0 0 0 0 0 0 0 0 0 0 0 0 0 0 0 0 0 0 0.25 0"/>
<feBlend mode="normal" in2="shape" result="effect1_innerShadow"/>
</filter>
<filter id="filter2_i" x="1035.1" y="457.927" width="4094.1" height="3679.13" filterUnits="userSpaceOnUse" color-interpolation-filters="sRGB">
<feFlood flood-opacity="0" result="BackgroundImageFix"/>
<feBlend mode="normal" in="SourceGraphic" in2="BackgroundImageFix" result="shape"/>
<feColorMatrix in="SourceAlpha" type="matrix" values="0 0 0 0 0 0 0 0 0 0 0 0 0 0 0 0 0 0 127 0" result="hardAlpha"/>
<feOffset dx="-2" dy="23"/>
<feGaussianBlur stdDeviation="23"/>
<feComposite in2="hardAlpha" operator="arithmetic" k2="-1" k3="1"/>
<feColorMatrix type="matrix" values="0 0 0 0 0 0 0 0 0 0 0 0 0 0 0 0 0 0 0.25 0"/>
<feBlend mode="normal" in2="shape" result="effect1_innerShadow"/>
</filter>
<filter id="filter3_i" x="1566.54" y="651.266" width="3379.18" height="3092.06" filterUnits="userSpaceOnUse" color-interpolation-filters="sRGB">
<feFlood flood-opacity="0" result="BackgroundImageFix"/>
<feBlend mode="normal" in="SourceGraphic" in2="BackgroundImageFix" result="shape"/>
<feColorMatrix in="SourceAlpha" type="matrix" values="0 0 0 0 0 0 0 0 0 0 0 0 0 0 0 0 0 0 127 0" result="hardAlpha"/>
<feOffset dx="-2" dy="23"/>
<feGaussianBlur stdDeviation="23"/>
<feComposite in2="hardAlpha" operator="arithmetic" k2="-1" k3="1"/>
<feColorMatrix type="matrix" values="0 0 0 0 0 0 0 0 0 0 0 0 0 0 0 0 0 0 0.25 0"/>
<feBlend mode="normal" in2="shape" result="effect1_innerShadow"/>
</filter>
<filter id="filter4_i" x="1774.55" y="989" width="2615.6" height="2358.14" filterUnits="userSpaceOnUse" color-interpolation-filters="sRGB">
<feFlood flood-opacity="0" result="BackgroundImageFix"/>
<feBlend mode="normal" in="SourceGraphic" in2="BackgroundImageFix" result="shape"/>
<feColorMatrix in="SourceAlpha" type="matrix" values="0 0 0 0 0 0 0 0 0 0 0 0 0 0 0 0 0 0 127 0" result="hardAlpha"/>
<feOffset dx="-2" dy="23"/>
<feGaussianBlur stdDeviation="23"/>
<feComposite in2="hardAlpha" operator="arithmetic" k2="-1" k3="1"/>
<feColorMatrix type="matrix" values="0 0 0 0 0 0 0 0 0 0 0 0 0 0 0 0 0 0 0.25 0"/>
<feBlend mode="normal" in2="shape" result="effect1_innerShadow"/>
</filter>
<filter id="filter5_i" x="2079.03" y="1406.79" width="2088.55" height="1683.51" filterUnits="userSpaceOnUse" color-interpolation-filters="sRGB">
<feFlood flood-opacity="0" result="BackgroundImageFix"/>
<feBlend mode="normal" in="SourceGraphic" in2="BackgroundImageFix" result="shape"/>
<feColorMatrix in="SourceAlpha" type="matrix" values="0 0 0 0 0 0 0 0 0 0 0 0 0 0 0 0 0 0 127 0" result="hardAlpha"/>
<feOffset dx="-2" dy="23"/>
<feGaussianBlur stdDeviation="23"/>
<feComposite in2="hardAlpha" operator="arithmetic" k2="-1" k3="1"/>
<feColorMatrix type="matrix" values="0 0 0 0 0 0 0 0 0 0 0 0 0 0 0 0 0 0 0.25 0"/>
<feBlend mode="normal" in2="shape" result="effect1_innerShadow"/>
</filter>
<filter id="filter6_i" x="2330.55" y="1625" width="1539.54" height="1246.6" filterUnits="userSpaceOnUse" color-interpolation-filters="sRGB">
<feFlood flood-opacity="0" result="BackgroundImageFix"/>
<feBlend mode="normal" in="SourceGraphic" in2="BackgroundImageFix" result="shape"/>
<feColorMatrix in="SourceAlpha" type="matrix" values="0 0 0 0 0 0 0 0 0 0 0 0 0 0 0 0 0 0 127 0" result="hardAlpha"/>
<feOffset dx="-2" dy="23"/>
<feGaussianBlur stdDeviation="23"/>
<feComposite in2="hardAlpha" operator="arithmetic" k2="-1" k3="1"/>
<feColorMatrix type="matrix" values="0 0 0 0 0 0 0 0 0 0 0 0 0 0 0 0 0 0 0.25 0"/>
<feBlend mode="normal" in2="shape" result="effect1_innerShadow"/>
</filter>
<filter id="filter7_i" x="2599.63" y="1870.01" width="966.013" height="884.306" filterUnits="userSpaceOnUse" color-interpolation-filters="sRGB">
<feFlood flood-opacity="0" result="BackgroundImageFix"/>
<feBlend mode="normal" in="SourceGraphic" in2="BackgroundImageFix" result="shape"/>
<feColorMatrix in="SourceAlpha" type="matrix" values="0 0 0 0 0 0 0 0 0 0 0 0 0 0 0 0 0 0 127 0" result="hardAlpha"/>
<feOffset dx="-2" dy="23"/>
<feGaussianBlur stdDeviation="23"/>
<feComposite in2="hardAlpha" operator="arithmetic" k2="-1" k3="1"/>
<feColorMatrix type="matrix" values="0 0 0 0 0 0 0 0 0 0 0 0 0 0 0 0 0 0 0.25 0"/>
<feBlend mode="normal" in2="shape" result="effect1_innerShadow"/>
</filter>
<filter id="filter8_i" x="2831.55" y="2061" width="526.399" height="491.529" filterUnits="userSpaceOnUse" color-interpolation-filters="sRGB">
<feFlood flood-opacity="0" result="BackgroundImageFix"/>
<feBlend mode="normal" in="SourceGraphic" in2="BackgroundImageFix" result="shape"/>
<feColorMatrix in="SourceAlpha" type="matrix" values="0 0 0 0 0 0 0 0 0 0 0 0 0 0 0 0 0 0 127 0" result="hardAlpha"/>
<feOffset dx="-2" dy="23"/>
<feGaussianBlur stdDeviation="23"/>
<feComposite in2="hardAlpha" operator="arithmetic" k2="-1" k3="1"/>
<feColorMatrix type="matrix" values="0 0 0 0 0 0 0 0 0 0 0 0 0 0 0 0 0 0 0.25 0"/>
<feBlend mode="normal" in2="shape" result="effect1_innerShadow"/>
</filter>
<filter id="filter9_i" x="2953.55" y="2189" width="295" height="236" filterUnits="userSpaceOnUse" color-interpolation-filters="sRGB">
<feFlood flood-opacity="0" result="BackgroundImageFix"/>
<feBlend mode="normal" in="SourceGraphic" in2="BackgroundImageFix" result="shape"/>
<feColorMatrix in="SourceAlpha" type="matrix" values="0 0 0 0 0 0 0 0 0 0 0 0 0 0 0 0 0 0 127 0" result="hardAlpha"/>
<feOffset dx="-2" dy="23"/>
<feGaussianBlur stdDeviation="23"/>
<feComposite in2="hardAlpha" operator="arithmetic" k2="-1" k3="1"/>
<feColorMatrix type="matrix" values="0 0 0 0 0 0 0 0 0 0 0 0 0 0 0 0 0 0 0.25 0"/>
<feBlend mode="normal" in2="shape" result="effect1_innerShadow"/>
</filter>
<filter id="filter10_i" x="3047.55" y="2257" width="107" height="100" filterUnits="userSpaceOnUse" color-interpolation-filters="sRGB">
<feFlood flood-opacity="0" result="BackgroundImageFix"/>
<feBlend mode="normal" in="SourceGraphic" in2="BackgroundImageFix" result="shape"/>
<feColorMatrix in="SourceAlpha" type="matrix" values="0 0 0 0 0 0 0 0 0 0 0 0 0 0 0 0 0 0 127 0" result="hardAlpha"/>
<feOffset dx="-2" dy="23"/>
<feGaussianBlur stdDeviation="23"/>
<feComposite in2="hardAlpha" operator="arithmetic" k2="-1" k3="1"/>
<feColorMatrix type="matrix" values="0 0 0 0 0 0 0 0 0 0 0 0 0 0 0 0 0 0 0.25 0"/>
<feBlend mode="normal" in2="shape" result="effect1_innerShadow"/>
</filter>
</defs>
</svg>
