<svg width="7363" height="6107" viewBox="0 0 7363 6107" fill="none" xmlns="http://www.w3.org/2000/svg">
<g filter="url(#filter0_i)">
<path d="M1534.54 724.245C1207.31 869.861 987.217 1035.3 894.586 1381.37C794.589 1754.96 1222.67 1801.26 1083.4 2162.05C975.111 2442.6 686.414 2635.79 451.659 2715.69C219.203 2794.8 113.87 3177.09 177.535 3414.3C287.657 3824.59 1105.98 3972.86 1442.37 4232.18C2004 4665.14 1698.77 5324.33 2379.87 5521.57C2863.91 5661.75 2872.74 5149.9 3373.96 5201.99C3921.65 5258.9 3634.53 5720.28 4169.86 5849.2C4719.15 5981.48 5438.86 6116.5 5589.8 5571.88C5689 5213.96 5727.63 4994.33 5788.04 4627.86C5830.08 4372.79 6008.78 4251.05 6178.48 4056.07C6541.77 3638.66 6839.92 3812.22 7080.69 3313.95C7309.82 2839.77 7198.08 2757.71 6801.01 2411.86C6561.29 2203.06 6049.46 2351.4 5832.6 1885.05C5729.06 1662.38 6101.59 1300.82 5637.98 689.056C5443.01 431.764 4456.8 689.751 4133.98 692.97C3643.23 697.865 3778.1 110.845 3205.71 207.186C2976.52 245.763 2621.7 553.468 2427.15 680.61C2134.97 871.549 1853.42 582.35 1534.54 724.245Z" fill="#F1F1F1"/>
</g>
<g filter="url(#filter1_i)">
<path d="M1849.56 1244.16C1588.89 1381.35 1417.22 1529.01 1359.91 1818.03C1298.04 2130.02 1651.83 2144.89 1557.05 2448.5C1483.34 2684.6 1256.87 2858.75 1068.55 2937C882.067 3014.49 816.289 3333.92 881.353 3525.15C993.893 3855.91 1673.44 3933.36 1963.5 4128C2447.78 4452.96 2232.92 5010.44 2802.5 5135.5C3207.29 5224.38 3186.87 4803.85 3601 4819.5C4053.51 4836.61 3842.84 5230.76 4289.1 5307.63C4747.01 5386.51 5344.91 5458.41 5439.34 5003.31C5501.4 4704.21 5521.23 4521.87 5551 4217.86C5571.72 4006.25 5711.78 3896.69 5840.5 3727.5C6116.06 3365.31 6370.11 3491.64 6540.76 3069.71C6703.16 2668.18 6607.03 2606.87 6262.5 2344.5C6054.49 2186.1 5642.5 2335.5 5439.34 1964.5C5342.34 1787.36 5628.5 1470.5 5215 993.502C5041.09 792.888 4245.74 1057.91 3981 1078C3578.55 1108.54 3657.5 619.501 3193 729.501C3007.01 773.547 2732.46 1045.25 2579.68 1160.1C2350.24 1332.59 2103.56 1110.47 1849.56 1244.16Z" fill="#EBEBEB"/>
</g>
<g filter="url(#filter2_i)">
<path d="M2160.55 1548C1925.59 1664.53 2064.67 2173.63 2007.55 2429.5C1945.88 2705.72 1327.05 2757.83 1327.05 3294.33C1327.05 3605.23 2042.4 3782.74 2296.51 3962C2720.78 4261.29 2336.1 4756.92 2840.53 4880.19C3199.02 4967.8 3168.86 4457.36 3537.21 4480.03C3939.69 4504.81 3986.88 4994.96 4382.54 5072.76C4788.53 5152.59 5319.29 5229.19 5412.96 4826.36C5474.52 4561.61 5240.17 4466.55 5273.09 4196.74C5296.01 4008.96 5294.8 3862.8 5412.96 3715.03C5665.92 3398.68 5946.72 3605.71 6107.55 3234C6260.6 2880.26 6207.73 2670.16 5906.55 2429.5C5724.72 2284.21 5404.08 2484.51 5222.3 2339.15C5070.38 2217.66 4976.74 1952.05 5075.06 1771.9C5176.54 1585.96 5247.07 1358.2 5090.89 1215.03C4958.37 1093.54 4821.47 1113.04 4641.65 1114.08C4405.23 1115.45 4300.5 1284.15 4064.39 1296.43C3705.46 1315.1 3497.77 793.169 3196.79 989.509C3054.27 1082.48 3086.72 1248.39 2948.28 1347.33C2740.38 1495.92 2389.5 1434.45 2160.55 1548Z" fill="#E4E4E4"/>
</g>
<g filter="url(#filter3_i)">
<path d="M2662.44 1601.29C2458.74 1702.32 2323.53 1813.06 2274.01 2034.91C2220.54 2274.39 2560.17 2395.62 2481.45 2628.04C2420.24 2808.77 2091.08 2860.32 1944.28 2917.22C1798.93 2973.57 1561.52 3257.09 1608.24 3405.76C1689.05 3662.92 2345.25 3642.08 2565.58 3797.51C2933.42 4056.99 2558.64 4505.99 2995.98 4612.87C3306.79 4688.83 3418.78 4246.26 3738.14 4265.92C4087.1 4287.41 4128.01 4712.37 4471.06 4779.83C4819.9 4848.42 4914.31 4442.23 4995.03 4094.99L4997.21 4085.6C5050.59 3856.07 4563.56 3718.58 4842.5 3405.76C5044.05 3179.72 5129.05 3641.48 5259.29 3541.72C5436.8 3405.76 5450.94 3490.2 5590.38 3167.92C5723.08 2861.23 5380.32 2667.9 5085.2 2579.55C4911.67 2527.61 4735.5 2594.23 4625.96 2394.35C4499.89 2164.31 4872.88 2011.86 4806.64 1856.8C4734.5 1687.9 5220.61 1559.26 5085.2 1435.13C4970.3 1329.8 4851.61 1346.7 4695.7 1347.61C4490.72 1348.79 4399.92 1495.06 4195.21 1505.71C3884.02 1521.89 3703.94 1069.37 3442.99 1239.6C3319.42 1320.21 3347.56 1464.06 3227.53 1549.84C3047.28 1678.67 2860.95 1502.84 2662.44 1601.29Z" fill="#E0E0E0"/>
</g>
<g filter="url(#filter4_i)">
<path d="M2978.05 1808.5C2839.8 1861.71 2637.88 1846.9 2585.05 1997.5C2528.02 2160.08 2762.31 2418 2690.05 2573.5C2633.86 2694.43 2468.62 2803.25 2370.55 2830.5C2273.44 2857.48 2208.58 3175.78 2223.55 3283.49C2249.44 3469.8 2520.08 3363.99 2643.82 3491.14C2850.42 3703.44 2666.61 3865.48 2931.88 3977.18C3120.4 4056.57 3470.66 3936.36 3670.05 3977.18C3887.92 4021.79 3737.88 4121.81 3947.55 4198C4162.68 4276.18 4491.33 4392.83 4576.55 4156C4632.55 4000.36 4598.77 3944.82 4639.55 3784C4667.93 3672.07 4624.99 3477.21 4702.05 3396.5C4867.02 3223.72 5091.26 3284.56 5210.55 3071.5C5324.07 2868.74 5354.82 2898.77 5210.55 2731C5123.45 2629.71 4548.12 2564.83 4461.05 2463.5C4388.28 2378.82 4392.1 2298.26 4461.05 2196.5C4532.21 2091.47 4712.81 1906.61 4639.55 1808.5C4577.38 1725.25 4433.91 1716.6 4335.55 1704C4206.22 1687.43 4124.62 1713.95 3994.55 1704C3796.81 1688.88 3714.62 1455.36 3533.55 1552C3447.81 1597.76 3460.25 1809.7 3376.23 1859.38C3250.06 1933.98 3112.76 1756.65 2978.05 1808.5Z" fill="#D9D9D9"/>
</g>
<g filter="url(#filter5_i)">
<path d="M3007.22 1971.45C2877.11 2035.98 2790.76 2106.71 2759.13 2248.4C2724.98 2401.35 2941.9 2478.78 2891.62 2627.23C2852.53 2742.66 2642.29 2775.58 2548.54 2811.93C2455.7 2847.91 2304.07 3029 2333.91 3123.95C2385.52 3288.19 2804.63 3274.89 2945.35 3374.16C3180.29 3539.89 2940.92 3826.66 3220.25 3894.92C3418.76 3943.44 3490.29 3660.77 3694.26 3673.33C3917.14 3687.05 3943.27 3958.47 4162.37 4001.56C4385.17 4045.37 4445.47 3785.94 4497.03 3564.16L4498.42 3558.16C4532.51 3411.56 4235.34 3438.3 4413.5 3238.5C4542.23 3094.13 4582.62 3274.5 4665.8 3210.79C4779.18 3123.95 4788.21 3177.88 4877.27 2972.05C4962.03 2776.16 4743.11 2652.68 4554.62 2596.26C4443.78 2563.08 4331.26 2605.64 4261.3 2477.97C4180.78 2331.04 4419.01 2233.68 4376.7 2134.64C4330.62 2026.77 4641.1 1944.6 4554.62 1865.32C4481.23 1798.05 4405.42 1808.85 4305.85 1809.42C4174.93 1810.18 4116.93 1903.6 3986.19 1910.4C3787.43 1920.74 3672.42 1631.72 3505.75 1740.44C3426.83 1791.93 3444.8 1883.8 3368.14 1938.59C3253.01 2020.87 3134 1908.57 3007.22 1971.45Z" fill="#D2D2D2"/>
</g>
<g filter="url(#filter6_i)">
<path d="M3103.54 2304.2C3012.33 2349.43 2951.79 2399.02 2929.62 2498.35C2905.68 2605.57 2995.28 2624.23 2960.03 2728.29C2932.63 2809.21 2847.71 2867.92 2781.99 2893.4C2716.91 2918.62 2610.61 3045.57 2631.53 3112.13C2667.71 3227.27 2906.09 3301.34 3004.74 3370.93C3169.43 3487.11 3057.06 3604.75 3252.88 3652.61C3392.04 3686.61 3442.18 3488.46 3585.17 3497.26C3741.41 3506.88 3759.73 3697.16 3913.33 3727.36C4070.93 3758.35 4276.97 3788.08 4313.33 3631.71C4337.23 3528.93 4246.25 3492.03 4259.03 3387.29C4267.93 3314.39 4267.46 3257.66 4313.33 3200.29C4411.53 3077.49 4592.62 3181.28 4655.05 3036.98C4714.46 2899.66 4675.57 2759.61 4558.65 2666.18C4488.07 2609.78 4309.88 2722.61 4239.32 2666.18C4180.34 2619.02 4143.99 2515.91 4182.16 2445.98C4221.55 2373.8 4248.93 2285.38 4188.3 2229.8C4136.86 2182.64 4083.71 2190.21 4013.91 2190.61C3922.13 2191.15 3881.48 2256.64 3789.82 2261.4C3650.49 2268.65 3569.86 2066.04 3453.02 2142.26C3397.69 2178.35 3410.29 2242.75 3356.55 2281.16C3275.84 2338.84 3192.41 2260.12 3103.54 2304.2Z" fill="#CACACA"/>
</g>
<g filter="url(#filter7_i)">
<path d="M3226.25 2469.94C3159.04 2503.27 3114.44 2539.81 3098.1 2613.01C3080.46 2692.02 3146.48 2705.77 3120.51 2782.45C3100.31 2842.08 3037.74 2885.34 2989.31 2904.11C2941.35 2922.7 2863.02 3016.24 2878.44 3065.29C2905.1 3150.14 3080.76 3204.72 3153.45 3256C3274.81 3341.61 3192.01 3428.3 3336.3 3463.56C3438.85 3488.62 3518.13 3362.52 3623.5 3369C3738.63 3376.09 3709.79 3496.39 3822.97 3518.64C3939.11 3541.48 4090.94 3563.39 4117.73 3448.16C4135.34 3372.43 4068.3 3345.23 4077.72 3268.05C4084.28 3214.34 4083.93 3172.53 4117.73 3130.26C4190.09 3039.76 4323.53 3116.24 4369.54 3009.91C4413.32 2908.73 4384.66 2805.52 4298.51 2736.68C4246.49 2695.12 4115.19 2778.26 4063.19 2736.68C4019.73 2701.93 3992.95 2625.95 4021.07 2574.41C4050.1 2521.23 4070.28 2456.07 4025.6 2415.12C3987.69 2380.37 3948.53 2385.94 3897.09 2386.24C3829.46 2386.63 3799.5 2434.89 3731.97 2438.4C3629.29 2443.74 3569.88 2294.44 3483.78 2350.61C3443.01 2377.2 3452.3 2424.66 3412.7 2452.97C3353.22 2495.47 3291.75 2437.46 3226.25 2469.94Z" fill="#C4C4C4"/>
</g>
<g filter="url(#filter8_i)">
<path d="M3391.96 2672.93C3343.97 2696.73 3312.12 2722.82 3300.46 2775.08C3287.86 2831.5 3367.87 2860.05 3349.33 2914.81C3334.91 2957.38 3257.36 2969.53 3222.78 2982.93C3188.54 2996.21 3132.61 3063 3143.62 3098.02C3162.65 3158.6 3317.24 3153.69 3369.14 3190.31C3455.8 3251.44 3367.51 3357.21 3470.54 3382.39C3543.76 3400.29 3570.14 3296.03 3645.37 3300.66C3727.58 3305.72 3737.22 3405.83 3818.03 3421.72C3900.21 3437.88 3922.46 3342.19 3941.47 3260.39L3941.99 3258.18C3954.56 3204.1 3839.83 3171.72 3905.54 3098.02C3953.02 3044.77 3973.04 3153.55 4003.72 3130.05C4045.54 3098.02 4048.88 3117.91 4081.72 3041.99C4112.99 2969.74 4032.24 2924.2 3962.71 2903.39C3921.83 2891.15 3880.33 2906.84 3854.53 2859.75C3824.83 2805.56 3912.7 2769.65 3897.09 2733.12C3880.1 2693.33 3994.61 2663.03 3962.71 2633.78C3935.65 2608.97 3907.68 2612.95 3870.96 2613.16C3822.67 2613.44 3801.28 2647.9 3753.05 2650.41C3679.74 2654.22 3637.32 2547.62 3575.84 2587.72C3546.73 2606.71 3553.36 2640.6 3525.09 2660.81C3482.62 2691.16 3438.73 2649.74 3391.96 2672.93Z" fill="#BEBEBE"/>
</g>
<g filter="url(#filter9_i)">
<path d="M3506.53 2816.07C3480.43 2829.02 3463.1 2843.21 3456.76 2871.64C3449.9 2902.33 3493.43 2917.87 3483.34 2947.65C3475.49 2970.81 3433.31 2977.42 3414.5 2984.71C3395.87 2991.93 3365.45 3028.26 3371.44 3047.31C3381.79 3080.27 3465.89 3077.6 3494.12 3097.52C3541.26 3130.77 3493.23 3188.31 3549.28 3202C3589.11 3211.74 3603.46 3155.02 3644.38 3157.54C3689.1 3160.3 3694.34 3214.75 3738.3 3223.4C3783.01 3232.19 3795.11 3180.14 3805.45 3135.64L3805.73 3134.44C3812.57 3105.02 3750.16 3087.4 3785.9 3047.31C3811.73 3018.35 3822.63 3077.52 3839.32 3064.74C3862.06 3047.31 3863.88 3058.14 3881.75 3016.84C3898.75 2977.53 3854.83 2952.76 3817.01 2941.44C3794.77 2934.78 3772.19 2943.32 3758.15 2917.7C3742 2888.22 3789.8 2868.69 3781.31 2848.82C3772.06 2827.17 3834.36 2810.69 3817.01 2794.78C3802.28 2781.28 3787.07 2783.45 3767.09 2783.56C3740.83 2783.72 3729.19 2802.46 3702.96 2803.82C3663.08 2805.9 3640 2747.91 3606.56 2769.72C3590.72 2780.05 3594.33 2798.49 3578.95 2809.48C3555.85 2825.99 3531.97 2803.46 3506.53 2816.07Z" fill="#BABABA"/>
</g>
<g filter="url(#filter10_i)">
<path d="M3563.85 2897.96C3551 2903.96 3540.59 2911.2 3537.76 2923.85C3534.71 2937.51 3517.78 2933.15 3513.11 2946.45C3509.47 2956.78 3504.87 2975.98 3500.3 2983.96C3489.74 3002.39 3486.53 3014.96 3489.74 3023.33C3495.29 3037.82 3510.17 3046.3 3524.48 3054.82C3548.36 3069.05 3535.76 3091.97 3563.85 3097.44C3583.81 3101.34 3606.14 3090.2 3626.56 3090.89C3648.88 3091.63 3652.6 3094.08 3674.61 3097.44C3697.19 3100.9 3726.67 3104.05 3731.33 3084.12C3734.39 3071.02 3734.24 3071.65 3735.71 3058.33C3736.73 3049.07 3738.1 3047.95 3744.45 3040.54C3758.04 3024.68 3769.63 3026.2 3778.05 3007.73C3786.05 2990.14 3780.03 2972.51 3763.05 2961.03C3752.79 2954.09 3751.35 2953.38 3741.1 2946.45C3732.53 2940.65 3720.79 2932.56 3716.32 2923.85C3711.46 2914.37 3717.59 2913.7 3708.76 2906.84C3701.26 2901.02 3693.71 2902.14 3683.75 2902.4C3670.67 2902.74 3672.23 2905.96 3659.17 2906.84C3639.33 2908.18 3646.08 2897.96 3614.75 2889.82C3606.14 2887.58 3591.99 2884.79 3584.45 2889.82C3573.14 2897.37 3576.38 2892.1 3563.85 2897.96Z" fill="#BABABA"/>
</g>
<g filter="url(#filter11_i)">
<path d="M3595.63 2940.12C3588.53 2943.48 3582.77 2947.52 3581.21 2954.59C3579.52 2962.22 3570.16 2959.78 3567.58 2967.21C3565.57 2972.99 3563.02 2983.71 3560.5 2988.17C3554.66 2998.47 3552.88 3005.49 3554.66 3010.17C3557.73 3018.26 3565.96 3023 3573.86 3027.76C3587.07 3035.71 3580.11 3048.51 3595.63 3051.57C3606.67 3053.75 3619.02 3047.53 3630.31 3047.91C3642.65 3048.33 3644.71 3049.69 3656.87 3051.57C3669.36 3053.5 3685.66 3055.26 3688.23 3044.13C3689.93 3036.81 3689.85 3037.16 3690.66 3029.72C3691.22 3024.55 3691.98 3023.92 3695.49 3019.78C3703 3010.92 3709.41 3011.77 3714.06 3001.45C3718.49 2991.63 3715.16 2981.78 3705.77 2975.36C3700.1 2971.48 3699.3 2971.09 3693.64 2967.21C3688.9 2963.97 3682.41 2959.46 3679.94 2954.59C3677.25 2949.29 3680.64 2948.92 3675.75 2945.08C3671.61 2941.83 3667.43 2942.46 3661.93 2942.6C3654.69 2942.79 3655.56 2944.59 3648.34 2945.08C3637.37 2945.83 3641.1 2940.12 3623.78 2935.58C3619.02 2934.33 3611.19 2932.77 3607.03 2935.57C3600.77 2939.79 3602.56 2936.85 3595.63 2940.12Z" fill="#B9B9B9"/>
</g>
<g filter="url(#filter12_i)">
<path d="M3612.64 2963.45C3608.61 2965.34 3605.34 2967.61 3604.45 2971.59C3603.49 2975.89 3598.18 2974.52 3596.71 2978.7C3595.57 2981.95 3594.12 2987.99 3592.69 2990.5C3589.37 2996.3 3588.37 3000.25 3589.37 3002.88C3591.12 3007.44 3595.79 3010.11 3600.28 3012.79C3607.78 3017.26 3603.83 3024.47 3612.64 3026.2C3618.91 3027.42 3625.92 3023.92 3632.34 3024.13C3639.34 3024.37 3640.51 3025.14 3647.42 3026.2C3654.51 3027.28 3663.77 3028.27 3665.23 3022.01C3666.19 3017.89 3666.15 3018.08 3666.61 3013.89C3666.93 3010.98 3667.36 3010.63 3669.35 3008.3C3673.62 3003.31 3677.26 3003.79 3679.9 2997.97C3682.41 2992.44 3680.52 2986.9 3675.19 2983.29C3671.97 2981.1 3671.52 2980.88 3668.3 2978.7C3665.61 2976.87 3661.92 2974.33 3660.52 2971.59C3658.99 2968.61 3660.92 2968.4 3658.14 2966.24C3655.79 2964.41 3653.42 2964.76 3650.29 2964.84C3646.18 2964.95 3646.67 2965.96 3642.57 2966.24C3636.34 2966.66 3638.46 2963.45 3628.63 2960.89C3625.92 2960.18 3621.48 2959.31 3619.11 2960.89C3615.56 2963.26 3616.58 2961.61 3612.64 2963.45Z" fill="#B0B0B0"/>
</g>
<g filter="url(#filter13_i)">
<path d="M3622.85 2976.9C3620.66 2977.95 3618.88 2979.2 3618.4 2981.4C3617.88 2983.78 3614.99 2983.02 3614.19 2985.33C3613.57 2987.12 3612.79 2990.46 3612.01 2991.84C3610.2 2995.04 3609.66 2997.23 3610.2 2998.68C3611.15 3001.2 3613.69 3002.67 3616.13 3004.15C3620.21 3006.62 3618.06 3010.61 3622.85 3011.56C3626.26 3012.23 3630.07 3010.3 3633.55 3010.42C3637.36 3010.55 3638 3010.97 3641.75 3011.56C3645.6 3012.16 3650.64 3012.7 3651.43 3009.24C3651.95 3006.97 3651.93 3007.08 3652.18 3004.76C3652.35 3003.15 3652.59 3002.96 3653.67 3001.67C3655.99 2998.92 3657.97 2999.18 3659.4 2995.97C3660.77 2992.92 3659.74 2989.85 3656.84 2987.86C3655.09 2986.65 3654.85 2986.53 3653.1 2985.33C3651.64 2984.32 3649.63 2982.92 3648.87 2981.4C3648.04 2979.75 3649.09 2979.64 3647.58 2978.45C3646.3 2977.44 3645.01 2977.63 3643.31 2977.67C3641.08 2977.73 3641.34 2978.29 3639.12 2978.45C3635.73 2978.68 3636.88 2976.9 3631.54 2975.49C3630.07 2975.1 3627.65 2974.62 3626.37 2975.49C3624.44 2976.8 3624.99 2975.89 3622.85 2976.9Z" fill="#AFAFAF"/>
</g>
<defs>
<filter id="filter0_i" x="-1.18359" y="0.926758" width="7363.36" height="6128.15" filterUnits="userSpaceOnUse" color-interpolation-filters="sRGB">
<feFlood flood-opacity="0" result="BackgroundImageFix"/>
<feBlend mode="normal" in="SourceGraphic" in2="BackgroundImageFix" result="shape"/>
<feColorMatrix in="SourceAlpha" type="matrix" values="0 0 0 0 0 0 0 0 0 0 0 0 0 0 0 0 0 0 127 0" result="hardAlpha"/>
<feOffset dx="-2" dy="23"/>
<feGaussianBlur stdDeviation="23"/>
<feComposite in2="hardAlpha" operator="arithmetic" k2="-1" k3="1"/>
<feColorMatrix type="matrix" values="0 0 0 0 0 0 0 0 0 0 0 0 0 0 0 0 0 0 0.25 0"/>
<feBlend mode="normal" in2="shape" result="effect1_innerShadow"/>
</filter>
<filter id="filter1_i" x="854.929" y="713.351" width="5762.66" height="4675.65" filterUnits="userSpaceOnUse" color-interpolation-filters="sRGB">
<feFlood flood-opacity="0" result="BackgroundImageFix"/>
<feBlend mode="normal" in="SourceGraphic" in2="BackgroundImageFix" result="shape"/>
<feColorMatrix in="SourceAlpha" type="matrix" values="0 0 0 0 0 0 0 0 0 0 0 0 0 0 0 0 0 0 127 0" result="hardAlpha"/>
<feOffset dx="-2" dy="23"/>
<feGaussianBlur stdDeviation="23"/>
<feComposite in2="hardAlpha" operator="arithmetic" k2="-1" k3="1"/>
<feColorMatrix type="matrix" values="0 0 0 0 0 0 0 0 0 0 0 0 0 0 0 0 0 0 0.25 0"/>
<feBlend mode="normal" in2="shape" result="effect1_innerShadow"/>
</filter>
<filter id="filter2_i" x="1283.16" y="898.926" width="4952.56" height="4290.42" filterUnits="userSpaceOnUse" color-interpolation-filters="sRGB">
<feFlood flood-opacity="0" result="BackgroundImageFix"/>
<feBlend mode="normal" in="SourceGraphic" in2="BackgroundImageFix" result="shape"/>
<feColorMatrix in="SourceAlpha" type="matrix" values="0 0 0 0 0 0 0 0 0 0 0 0 0 0 0 0 0 0 127 0" result="hardAlpha"/>
<feOffset dx="-2" dy="23"/>
<feGaussianBlur stdDeviation="23"/>
<feComposite in2="hardAlpha" operator="arithmetic" k2="-1" k3="1"/>
<feColorMatrix type="matrix" values="0 0 0 0 0 0 0 0 0 0 0 0 0 0 0 0 0 0 0.25 0"/>
<feBlend mode="normal" in2="shape" result="effect1_innerShadow"/>
</filter>
<filter id="filter3_i" x="1568.1" y="1155.93" width="4094.1" height="3679.13" filterUnits="userSpaceOnUse" color-interpolation-filters="sRGB">
<feFlood flood-opacity="0" result="BackgroundImageFix"/>
<feBlend mode="normal" in="SourceGraphic" in2="BackgroundImageFix" result="shape"/>
<feColorMatrix in="SourceAlpha" type="matrix" values="0 0 0 0 0 0 0 0 0 0 0 0 0 0 0 0 0 0 127 0" result="hardAlpha"/>
<feOffset dx="-2" dy="23"/>
<feGaussianBlur stdDeviation="23"/>
<feComposite in2="hardAlpha" operator="arithmetic" k2="-1" k3="1"/>
<feColorMatrix type="matrix" values="0 0 0 0 0 0 0 0 0 0 0 0 0 0 0 0 0 0 0.25 0"/>
<feBlend mode="normal" in2="shape" result="effect1_innerShadow"/>
</filter>
<filter id="filter4_i" x="2099.54" y="1349.27" width="3379.18" height="3092.06" filterUnits="userSpaceOnUse" color-interpolation-filters="sRGB">
<feFlood flood-opacity="0" result="BackgroundImageFix"/>
<feBlend mode="normal" in="SourceGraphic" in2="BackgroundImageFix" result="shape"/>
<feColorMatrix in="SourceAlpha" type="matrix" values="0 0 0 0 0 0 0 0 0 0 0 0 0 0 0 0 0 0 127 0" result="hardAlpha"/>
<feOffset dx="-2" dy="23"/>
<feGaussianBlur stdDeviation="23"/>
<feComposite in2="hardAlpha" operator="arithmetic" k2="-1" k3="1"/>
<feColorMatrix type="matrix" values="0 0 0 0 0 0 0 0 0 0 0 0 0 0 0 0 0 0 0.25 0"/>
<feBlend mode="normal" in2="shape" result="effect1_innerShadow"/>
</filter>
<filter id="filter5_i" x="2307.55" y="1687" width="2615.6" height="2358.14" filterUnits="userSpaceOnUse" color-interpolation-filters="sRGB">
<feFlood flood-opacity="0" result="BackgroundImageFix"/>
<feBlend mode="normal" in="SourceGraphic" in2="BackgroundImageFix" result="shape"/>
<feColorMatrix in="SourceAlpha" type="matrix" values="0 0 0 0 0 0 0 0 0 0 0 0 0 0 0 0 0 0 127 0" result="hardAlpha"/>
<feOffset dx="-2" dy="23"/>
<feGaussianBlur stdDeviation="23"/>
<feComposite in2="hardAlpha" operator="arithmetic" k2="-1" k3="1"/>
<feColorMatrix type="matrix" values="0 0 0 0 0 0 0 0 0 0 0 0 0 0 0 0 0 0 0.25 0"/>
<feBlend mode="normal" in2="shape" result="effect1_innerShadow"/>
</filter>
<filter id="filter6_i" x="2612.03" y="2104.79" width="2088.55" height="1683.51" filterUnits="userSpaceOnUse" color-interpolation-filters="sRGB">
<feFlood flood-opacity="0" result="BackgroundImageFix"/>
<feBlend mode="normal" in="SourceGraphic" in2="BackgroundImageFix" result="shape"/>
<feColorMatrix in="SourceAlpha" type="matrix" values="0 0 0 0 0 0 0 0 0 0 0 0 0 0 0 0 0 0 127 0" result="hardAlpha"/>
<feOffset dx="-2" dy="23"/>
<feGaussianBlur stdDeviation="23"/>
<feComposite in2="hardAlpha" operator="arithmetic" k2="-1" k3="1"/>
<feColorMatrix type="matrix" values="0 0 0 0 0 0 0 0 0 0 0 0 0 0 0 0 0 0 0.25 0"/>
<feBlend mode="normal" in2="shape" result="effect1_innerShadow"/>
</filter>
<filter id="filter7_i" x="2863.55" y="2323" width="1539.54" height="1246.6" filterUnits="userSpaceOnUse" color-interpolation-filters="sRGB">
<feFlood flood-opacity="0" result="BackgroundImageFix"/>
<feBlend mode="normal" in="SourceGraphic" in2="BackgroundImageFix" result="shape"/>
<feColorMatrix in="SourceAlpha" type="matrix" values="0 0 0 0 0 0 0 0 0 0 0 0 0 0 0 0 0 0 127 0" result="hardAlpha"/>
<feOffset dx="-2" dy="23"/>
<feGaussianBlur stdDeviation="23"/>
<feComposite in2="hardAlpha" operator="arithmetic" k2="-1" k3="1"/>
<feColorMatrix type="matrix" values="0 0 0 0 0 0 0 0 0 0 0 0 0 0 0 0 0 0 0.25 0"/>
<feBlend mode="normal" in2="shape" result="effect1_innerShadow"/>
</filter>
<filter id="filter8_i" x="3132.63" y="2568.01" width="966.013" height="884.306" filterUnits="userSpaceOnUse" color-interpolation-filters="sRGB">
<feFlood flood-opacity="0" result="BackgroundImageFix"/>
<feBlend mode="normal" in="SourceGraphic" in2="BackgroundImageFix" result="shape"/>
<feColorMatrix in="SourceAlpha" type="matrix" values="0 0 0 0 0 0 0 0 0 0 0 0 0 0 0 0 0 0 127 0" result="hardAlpha"/>
<feOffset dx="-2" dy="23"/>
<feGaussianBlur stdDeviation="23"/>
<feComposite in2="hardAlpha" operator="arithmetic" k2="-1" k3="1"/>
<feColorMatrix type="matrix" values="0 0 0 0 0 0 0 0 0 0 0 0 0 0 0 0 0 0 0.25 0"/>
<feBlend mode="normal" in2="shape" result="effect1_innerShadow"/>
</filter>
<filter id="filter9_i" x="3364.55" y="2759" width="526.399" height="491.529" filterUnits="userSpaceOnUse" color-interpolation-filters="sRGB">
<feFlood flood-opacity="0" result="BackgroundImageFix"/>
<feBlend mode="normal" in="SourceGraphic" in2="BackgroundImageFix" result="shape"/>
<feColorMatrix in="SourceAlpha" type="matrix" values="0 0 0 0 0 0 0 0 0 0 0 0 0 0 0 0 0 0 127 0" result="hardAlpha"/>
<feOffset dx="-2" dy="23"/>
<feGaussianBlur stdDeviation="23"/>
<feComposite in2="hardAlpha" operator="arithmetic" k2="-1" k3="1"/>
<feColorMatrix type="matrix" values="0 0 0 0 0 0 0 0 0 0 0 0 0 0 0 0 0 0 0.25 0"/>
<feBlend mode="normal" in2="shape" result="effect1_innerShadow"/>
</filter>
<filter id="filter10_i" x="3486.55" y="2887" width="295" height="236" filterUnits="userSpaceOnUse" color-interpolation-filters="sRGB">
<feFlood flood-opacity="0" result="BackgroundImageFix"/>
<feBlend mode="normal" in="SourceGraphic" in2="BackgroundImageFix" result="shape"/>
<feColorMatrix in="SourceAlpha" type="matrix" values="0 0 0 0 0 0 0 0 0 0 0 0 0 0 0 0 0 0 127 0" result="hardAlpha"/>
<feOffset dx="-2" dy="23"/>
<feGaussianBlur stdDeviation="23"/>
<feComposite in2="hardAlpha" operator="arithmetic" k2="-1" k3="1"/>
<feColorMatrix type="matrix" values="0 0 0 0 0 0 0 0 0 0 0 0 0 0 0 0 0 0 0.25 0"/>
<feBlend mode="normal" in2="shape" result="effect1_innerShadow"/>
</filter>
<filter id="filter11_i" x="3552" y="2934" width="164" height="142" filterUnits="userSpaceOnUse" color-interpolation-filters="sRGB">
<feFlood flood-opacity="0" result="BackgroundImageFix"/>
<feBlend mode="normal" in="SourceGraphic" in2="BackgroundImageFix" result="shape"/>
<feColorMatrix in="SourceAlpha" type="matrix" values="0 0 0 0 0 0 0 0 0 0 0 0 0 0 0 0 0 0 127 0" result="hardAlpha"/>
<feOffset dx="-2" dy="23"/>
<feGaussianBlur stdDeviation="23"/>
<feComposite in2="hardAlpha" operator="arithmetic" k2="-1" k3="1"/>
<feColorMatrix type="matrix" values="0 0 0 0 0 0 0 0 0 0 0 0 0 0 0 0 0 0 0.25 0"/>
<feBlend mode="normal" in2="shape" result="effect1_innerShadow"/>
</filter>
<filter id="filter12_i" x="3587" y="2960" width="94" height="90" filterUnits="userSpaceOnUse" color-interpolation-filters="sRGB">
<feFlood flood-opacity="0" result="BackgroundImageFix"/>
<feBlend mode="normal" in="SourceGraphic" in2="BackgroundImageFix" result="shape"/>
<feColorMatrix in="SourceAlpha" type="matrix" values="0 0 0 0 0 0 0 0 0 0 0 0 0 0 0 0 0 0 127 0" result="hardAlpha"/>
<feOffset dx="-2" dy="23"/>
<feGaussianBlur stdDeviation="23"/>
<feComposite in2="hardAlpha" operator="arithmetic" k2="-1" k3="1"/>
<feColorMatrix type="matrix" values="0 0 0 0 0 0 0 0 0 0 0 0 0 0 0 0 0 0 0.25 0"/>
<feBlend mode="normal" in2="shape" result="effect1_innerShadow"/>
</filter>
<filter id="filter13_i" x="3608" y="2975" width="52" height="60" filterUnits="userSpaceOnUse" color-interpolation-filters="sRGB">
<feFlood flood-opacity="0" result="BackgroundImageFix"/>
<feBlend mode="normal" in="SourceGraphic" in2="BackgroundImageFix" result="shape"/>
<feColorMatrix in="SourceAlpha" type="matrix" values="0 0 0 0 0 0 0 0 0 0 0 0 0 0 0 0 0 0 127 0" result="hardAlpha"/>
<feOffset dx="-2" dy="23"/>
<feGaussianBlur stdDeviation="23"/>
<feComposite in2="hardAlpha" operator="arithmetic" k2="-1" k3="1"/>
<feColorMatrix type="matrix" values="0 0 0 0 0 0 0 0 0 0 0 0 0 0 0 0 0 0 0.25 0"/>
<feBlend mode="normal" in2="shape" result="effect1_innerShadow"/>
</filter>
</defs>
</svg>
