<svg width="2283" height="1917" viewBox="0 0 2283 1917" fill="none" xmlns="http://www.w3.org/2000/svg">
<g filter="url(#filter0_i)">
<path d="M429.497 306.999C320.319 361.147 367.042 612.599 340.498 731.499C311.844 859.853 16.4996 857.688 16.4996 1176C16.4997 1320.47 348.416 1399.2 466.5 1482.5C663.649 1621.58 483.813 1794.49 718.212 1851.77C884.793 1892.48 894.836 1641.46 1066 1652C1253.03 1663.51 1406.72 2002.45 1688.65 1869.5C2029 1709 1737.17 1439.53 1891.5 1325C2068.7 1193.5 2163.77 1182.23 2238.5 1009.5C2309.62 845.123 2216.17 661.349 2058 614C1964.99 586.158 1838.21 695.131 1779.5 588C1717.92 531.548 1826.65 341.464 1688.65 186.464C1615.6 104.409 1470.66 180.759 1360.95 186.464C1194.16 195.136 1097.65 -47.3929 957.789 43.8426C891.563 87.0441 906.643 164.142 842.314 210.117C745.704 279.162 535.886 254.236 429.497 306.999Z" fill="#F8F8F8"/>
</g>
<g filter="url(#filter1_i)">
<path d="M586.988 340.197C495.78 385.432 435.243 435.015 413.068 534.344C389.13 641.571 478.73 660.227 443.485 764.291C416.079 845.212 331.163 903.916 265.438 929.394C200.357 954.622 94.0606 1081.57 114.979 1148.13C151.162 1263.27 389.539 1337.34 488.187 1406.93C652.886 1523.11 540.509 1640.75 736.326 1688.6C875.489 1722.61 920.009 1542.7 1063 1551.5C1219.24 1561.12 1282.84 1884.14 1702.5 1752C1855.7 1703.76 1760.42 1392.67 1796.78 1236.29C1894.98 1113.48 2185.78 1050.98 2149.5 898C2055 499.5 1839.68 795.603 1722.77 702.179C1663.79 655.018 1722.77 396 1616.5 297.4C1556.22 241.469 1333.9 352.978 1273.27 297.4C1133.94 304.645 1053.31 102.036 936.47 178.254C881.145 214.345 893.743 278.752 840.002 317.16C759.294 374.841 675.865 296.118 586.988 340.197Z" fill="#F7F7F7"/>
</g>
<g filter="url(#filter2_i)">
<path d="M663.294 456.827C585.157 495.578 533.297 538.055 514.3 623.148C493.793 715.007 570.551 730.989 540.358 820.138C516.879 889.462 444.134 939.752 387.829 961.578C332.076 983.19 241.014 1091.94 258.934 1148.97C289.931 1247.6 494.143 1311.05 578.652 1370.67C719.746 1470.2 623.476 1570.98 791.228 1611.97C910.446 1641.11 948.585 1486.98 1071.08 1494.52C1204.93 1502.76 1259.42 1779.49 1618.93 1666.29C1750.17 1624.96 1668.54 1358.45 1699.7 1224.49C1783.82 1119.28 2032.94 1065.74 2001.86 934.684C1920.9 593.298 1736.45 846.962 1636.29 766.929C1585.77 726.527 1636.29 504.632 1545.25 420.164C1493.61 372.249 1303.15 467.776 1251.22 420.164C1131.85 426.371 1062.78 252.8 962.687 318.094C915.29 349.012 926.083 404.189 880.044 437.092C810.904 486.505 739.432 419.065 663.294 456.827Z" fill="#F7F7F7"/>
</g>
<g filter="url(#filter3_i)">
<path d="M714.974 508.895C645.347 543.427 599.135 581.278 582.207 657.105C563.933 738.96 632.331 753.202 605.427 832.642C584.505 894.416 519.682 939.23 469.508 958.679C419.826 977.938 338.681 1074.84 354.65 1125.66C382.271 1213.55 564.245 1270.1 639.551 1323.22C765.279 1411.91 679.493 1501.72 828.977 1538.25C935.212 1564.21 969.197 1426.87 1078.35 1433.59C1197.63 1440.93 1246.18 1687.52 1566.54 1586.64C1683.49 1549.82 1610.75 1312.33 1638.51 1192.96C1713.48 1099.21 1935.46 1051.5 1907.77 934.714C1835.63 630.505 1671.26 856.545 1582.01 785.227C1536.99 749.225 1582.01 551.495 1500.89 476.225C1454.87 433.528 1285.15 518.652 1238.87 476.225C1132.51 481.756 1070.96 327.087 981.763 385.271C939.529 412.822 949.146 461.99 908.121 491.31C846.51 535.342 782.822 475.246 714.974 508.895Z" fill="#F7F7F7"/>
</g>
<g filter="url(#filter4_i)">
<path d="M761.709 559.257C698.432 590.64 656.434 625.039 641.05 693.949C624.443 768.339 686.603 781.282 662.152 853.476C643.139 909.617 584.228 950.343 538.631 968.018C493.48 985.521 419.736 1073.59 434.248 1119.77C459.35 1199.65 624.726 1251.03 693.164 1299.31C807.426 1379.92 729.464 1461.53 865.314 1494.73C961.859 1518.32 992.745 1393.5 1091.95 1399.61C1200.34 1406.28 1244.47 1630.38 1535.61 1538.71C1641.89 1505.24 1575.79 1289.42 1601.01 1180.93C1669.14 1095.73 1870.88 1052.37 1845.72 946.239C1780.16 669.776 1630.78 875.2 1549.67 810.386C1508.75 777.668 1549.67 597.971 1475.94 529.567C1434.12 490.764 1279.88 568.125 1237.82 529.567C1141.16 534.593 1085.22 394.031 1004.17 446.908C965.783 471.946 974.523 516.63 937.239 543.276C881.248 583.292 823.368 528.677 761.709 559.257Z" fill="#F7F7F7"/>
</g>
<g filter="url(#filter5_i)">
<path d="M794.503 614.673C736.722 643.33 698.371 674.741 684.323 737.667C669.158 805.596 725.92 817.415 703.593 883.34C686.23 934.604 632.436 971.793 590.799 987.934C549.569 1003.92 482.23 1084.34 495.482 1126.51C518.404 1199.45 669.417 1246.37 731.911 1290.45C836.249 1364.06 765.058 1438.58 889.11 1468.9C977.271 1490.44 1005.47 1376.47 1096.06 1382.04C1195.04 1388.14 1235.33 1592.77 1501.19 1509.06C1598.24 1478.5 1537.88 1281.42 1560.92 1182.36C1623.13 1104.56 1807.35 1064.96 1784.37 968.046C1724.5 715.593 1588.09 903.176 1514.03 843.992C1476.67 814.115 1514.03 650.025 1446.71 587.561C1408.52 552.128 1267.68 622.77 1229.27 587.561C1141 592.151 1089.92 463.796 1015.9 512.081C980.853 534.945 988.834 575.748 954.789 600.079C903.66 636.62 850.807 586.749 794.503 614.673Z" fill="#F7F7F7"/>
</g>
<g filter="url(#filter6_i)">
<path d="M818.353 652.22C766.108 678.131 731.433 706.532 718.731 763.428C705.019 824.848 756.342 835.534 736.154 895.141C720.455 941.494 671.816 975.119 634.168 989.713C596.89 1004.16 536.003 1076.88 547.985 1115.01C568.711 1180.96 705.253 1223.38 761.759 1263.24C856.099 1329.79 791.729 1397.18 903.894 1424.59C983.606 1444.07 1009.11 1341.01 1091.01 1346.06C1180.51 1351.57 1216.94 1536.59 1457.32 1460.9C1545.07 1433.27 1490.49 1255.08 1511.32 1165.5C1567.57 1095.16 1734.14 1059.36 1713.36 971.73C1659.23 743.469 1535.9 913.077 1468.93 859.564C1435.15 832.55 1468.93 684.184 1408.06 627.706C1373.53 595.669 1246.18 659.541 1211.46 627.706C1131.65 631.856 1085.46 515.801 1018.54 559.459C986.846 580.132 994.062 617.025 963.279 639.025C917.05 672.064 869.261 626.972 818.353 652.22Z" fill="#F7F7F7"/>
</g>
<g filter="url(#filter7_i)">
<path d="M864.717 694.911C818.646 717.76 788.068 742.806 776.867 792.979C764.776 847.141 810.034 856.564 792.231 909.128C778.388 950.003 735.496 979.655 702.297 992.525C669.423 1005.27 615.731 1069.39 626.297 1103.01C644.574 1161.17 764.982 1198.58 814.811 1233.73C898.003 1292.42 841.24 1351.84 940.15 1376.01C1010.44 1393.19 1032.93 1302.31 1105.16 1306.76C1184.08 1311.62 1216.21 1474.78 1428.18 1408.04C1505.57 1383.67 1457.44 1226.53 1475.8 1147.54C1525.41 1085.51 1672.29 1053.94 1653.97 976.667C1606.23 775.378 1497.47 924.945 1438.42 877.755C1408.63 853.933 1438.42 723.099 1384.74 673.294C1354.29 645.042 1241.99 701.367 1211.37 673.294C1140.99 676.954 1100.26 574.612 1041.25 613.111C1013.3 631.341 1019.66 663.875 992.518 683.275C951.752 712.411 909.61 672.646 864.717 694.911Z" fill="#F7F7F7"/>
</g>
<g filter="url(#filter8_i)">
<path d="M913.724 734C875.76 752.829 850.562 773.468 841.332 814.812C831.368 859.444 868.663 867.209 853.993 910.525C842.585 944.207 807.24 968.642 779.883 979.247C752.794 989.748 708.549 1042.59 717.256 1070.29C732.317 1118.22 831.538 1149.05 872.599 1178.01C941.153 1226.37 894.378 1275.34 975.884 1295.26C1033.81 1309.41 1052.34 1234.53 1111.86 1238.19C1176.89 1242.19 1203.37 1376.65 1378.04 1321.65C1441.81 1301.57 1402.15 1172.08 1417.29 1106.99C1458.16 1055.87 1579.2 1029.86 1564.1 966.18C1524.77 800.309 1435.14 923.558 1386.48 884.672C1361.93 865.041 1386.48 757.228 1342.25 716.187C1317.16 692.906 1224.62 739.321 1199.38 716.187C1141.38 719.203 1107.83 634.869 1059.19 666.594C1036.16 681.616 1041.41 708.425 1019.04 724.412C985.444 748.421 950.718 715.653 913.724 734Z" fill="#F7F7F7"/>
</g>
<g filter="url(#filter9_i)">
<path d="M943.934 786.355C911.091 802.644 889.292 820.498 881.308 856.266C872.688 894.877 904.951 901.595 892.26 939.067C882.392 968.206 851.814 989.345 828.147 998.519C804.712 1007.6 766.436 1053.31 773.969 1077.28C786.998 1118.74 872.835 1145.42 908.357 1170.47C967.663 1212.31 927.198 1254.67 997.709 1271.9C1047.82 1284.15 1063.85 1219.36 1115.34 1222.53C1171.6 1226 1194.5 1342.31 1345.62 1294.73C1400.78 1277.36 1366.47 1165.34 1379.57 1109.03C1414.93 1064.81 1519.64 1042.3 1506.58 987.214C1472.55 843.719 1395.02 950.342 1352.92 916.701C1331.68 899.719 1352.92 806.449 1314.65 770.945C1292.94 750.804 1212.89 790.958 1191.06 770.945C1140.88 773.554 1111.85 700.596 1069.78 728.041C1049.86 741.037 1054.39 764.23 1035.04 778.06C1005.98 798.83 975.938 770.483 943.934 786.355Z" fill="#F7F7F7"/>
</g>
<g filter="url(#filter10_i)">
<path d="M970.127 816.387C941.592 830.539 922.652 846.052 915.715 877.128C908.225 910.675 936.257 916.512 925.231 949.069C916.656 974.387 890.09 992.753 869.527 1000.72C849.165 1008.62 815.909 1048.33 822.454 1069.16C833.774 1105.18 908.353 1128.35 939.216 1150.13C990.744 1186.48 955.586 1223.28 1016.85 1238.25C1060.39 1248.89 1074.32 1192.6 1119.05 1195.36C1167.94 1198.37 1187.83 1299.43 1319.13 1258.09C1367.06 1242.99 1337.25 1145.66 1348.63 1096.74C1379.35 1058.32 1470.33 1038.76 1458.98 990.902C1429.41 866.226 1362.05 958.866 1325.47 929.637C1307.02 914.882 1325.47 833.845 1292.22 802.997C1273.36 785.498 1203.81 820.385 1184.84 802.997C1141.25 805.264 1116.02 741.875 1079.47 765.721C1062.16 777.012 1066.1 797.163 1049.29 809.179C1024.04 827.225 997.934 802.596 970.127 816.387Z" fill="#F7F7F7"/>
</g>
<g filter="url(#filter11_i)">
<path d="M998.109 848.194C974.236 860.034 958.39 873.012 952.586 899.011C946.321 927.077 969.773 931.96 960.548 959.198C953.374 980.379 931.148 995.745 913.945 1002.41C896.91 1009.02 869.087 1042.24 874.563 1059.67C884.033 1089.8 946.427 1109.19 972.248 1127.41C1015.36 1157.82 985.943 1188.61 1037.2 1201.13C1073.62 1210.03 1085.28 1162.94 1122.7 1165.25C1163.6 1167.76 1180.25 1252.31 1290.09 1217.73C1330.19 1205.1 1305.25 1123.67 1314.77 1082.74C1340.47 1050.6 1416.58 1034.24 1407.09 994.196C1382.35 889.891 1326 967.394 1295.39 942.941C1279.96 930.597 1295.39 862.8 1267.58 836.992C1251.8 822.352 1193.61 851.539 1177.74 836.992C1141.27 838.888 1120.17 785.856 1089.58 805.806C1075.1 815.252 1078.4 832.111 1064.33 842.164C1043.21 857.262 1021.37 836.656 998.109 848.194Z" fill="#F7F7F7"/>
</g>
<g filter="url(#filter12_i)">
<path d="M1017.54 871.235C996.942 881.451 983.27 892.649 978.262 915.081C972.856 939.297 993.091 943.511 985.131 967.012C978.942 985.288 959.764 998.545 944.921 1004.3C930.223 1010 906.217 1038.67 910.941 1053.7C919.113 1079.7 972.948 1096.43 995.227 1112.15C1032.42 1138.39 1007.04 1164.95 1051.27 1175.76C1082.7 1183.44 1092.75 1142.81 1125.04 1144.8C1160.33 1146.97 1174.69 1219.92 1269.47 1190.08C1304.07 1179.18 1282.55 1108.93 1290.76 1073.61C1312.94 1045.87 1378.61 1031.76 1370.42 997.209C1349.08 907.212 1300.45 974.084 1274.05 952.985C1260.73 942.334 1274.05 883.837 1250.05 861.57C1236.43 848.938 1186.22 874.121 1172.53 861.57C1141.06 863.206 1122.85 817.448 1096.47 834.661C1083.97 842.812 1086.82 857.358 1074.68 866.032C1056.45 879.059 1037.61 861.28 1017.54 871.235Z" fill="#F7F7F7"/>
</g>
<g filter="url(#filter13_i)">
<path d="M1035.31 898.547C1017.61 907.328 1005.85 916.953 1001.55 936.235C996.903 957.05 1014.3 960.672 1007.45 980.873C1002.13 996.581 985.65 1007.98 972.892 1012.92C960.258 1017.82 939.623 1042.46 943.684 1055.38C950.708 1077.74 996.982 1092.11 1016.13 1105.62C1048.1 1128.18 1026.29 1151.01 1064.3 1160.3C1091.32 1166.9 1099.96 1131.98 1127.72 1133.69C1158.05 1135.55 1170.39 1198.26 1251.86 1172.61C1281.6 1163.24 1263.1 1102.85 1270.16 1072.5C1289.22 1048.66 1345.67 1036.53 1338.63 1006.83C1320.28 929.471 1278.49 986.951 1255.79 968.816C1244.34 959.661 1255.79 909.38 1235.16 890.239C1223.46 879.382 1180.3 901.028 1168.53 890.239C1141.49 891.646 1125.83 852.315 1103.15 867.11C1092.41 874.116 1094.86 886.619 1084.43 894.075C1068.76 905.272 1052.56 889.99 1035.31 898.547Z" fill="#F7F7F7"/>
</g>
<g filter="url(#filter14_i)">
<path d="M1045.13 910.092C1029.08 918.053 1018.43 926.779 1014.53 944.259C1010.31 963.129 1026.08 966.412 1019.88 984.726C1015.06 998.967 1000.11 1009.3 988.546 1013.78C977.093 1018.22 958.387 1040.56 962.068 1052.28C968.436 1072.54 1010.39 1085.57 1027.75 1097.82C1056.73 1118.27 1036.95 1138.97 1071.41 1147.39C1095.91 1153.37 1103.74 1121.71 1128.9 1123.26C1156.4 1124.95 1167.59 1181.8 1241.45 1158.55C1268.41 1150.06 1251.64 1095.31 1258.04 1067.79C1275.32 1046.18 1326.49 1035.18 1320.11 1008.26C1303.48 938.127 1265.59 990.236 1245.01 973.795C1234.63 965.495 1245.01 919.913 1226.31 902.561C1215.7 892.718 1176.58 912.341 1165.91 902.561C1141.39 903.836 1127.2 868.18 1106.64 881.593C1096.9 887.944 1099.12 899.279 1089.66 906.038C1075.46 916.189 1060.77 902.335 1045.13 910.092Z" fill="#F7F7F7"/>
</g>
<g filter="url(#filter15_i)">
<path d="M1058.28 932.66C1044.72 939.385 1035.72 946.757 1032.42 961.524C1028.86 977.466 1042.18 980.239 1036.94 995.71C1032.87 1007.74 1020.25 1016.47 1010.47 1020.26C1000.8 1024.01 984.995 1042.88 988.105 1052.78C993.484 1069.89 1028.92 1080.91 1043.59 1091.25C1068.08 1108.53 1051.37 1126.01 1080.48 1133.13C1101.17 1138.19 1107.79 1111.44 1129.05 1112.75C1152.28 1114.18 1161.73 1162.2 1224.12 1142.55C1246.9 1135.38 1232.73 1089.13 1238.14 1065.88C1252.74 1047.63 1295.97 1038.33 1290.58 1015.59C1276.53 956.344 1244.52 1000.37 1227.14 986.476C1218.37 979.465 1227.14 940.956 1211.34 926.297C1202.38 917.982 1169.32 934.56 1160.31 926.297C1139.59 927.374 1127.61 897.252 1110.24 908.583C1102.01 913.949 1103.88 923.525 1095.89 929.235C1083.9 937.81 1071.49 926.106 1058.28 932.66Z" fill="#F7F7F7"/>
</g>
<g filter="url(#filter16_i)">
<path d="M1072.27 948.555C1061.04 954.125 1053.58 960.231 1050.85 972.463C1047.91 985.667 1058.94 987.964 1054.6 1000.78C1051.22 1010.74 1040.77 1017.97 1032.67 1021.11C1024.66 1024.22 1011.57 1039.85 1014.15 1048.05C1018.6 1062.22 1047.96 1071.34 1060.1 1079.91C1080.39 1094.22 1066.55 1108.71 1090.66 1114.6C1107.8 1118.79 1113.28 1096.63 1130.89 1097.72C1150.13 1098.9 1157.96 1138.68 1209.64 1122.41C1228.5 1116.47 1216.77 1078.16 1221.25 1058.9C1233.34 1043.78 1269.15 1036.08 1264.68 1017.24C1253.04 968.172 1226.53 1004.63 1212.13 993.13C1204.87 987.323 1212.13 955.427 1199.05 943.285C1191.62 936.398 1164.25 950.129 1156.78 943.285C1139.62 944.177 1129.69 919.228 1115.31 928.613C1108.49 933.058 1110.04 940.989 1103.43 945.718C1093.49 952.821 1083.21 943.127 1072.27 948.555Z" fill="#F7F7F7"/>
</g>
<g filter="url(#filter17_i)">
<path d="M1072.27 948.555C1061.04 954.125 1053.58 960.231 1050.85 972.463C1047.91 985.667 1058.94 987.964 1054.6 1000.78C1051.22 1010.74 1040.77 1017.97 1032.67 1021.11C1024.66 1024.22 1011.57 1039.85 1014.15 1048.05C1018.6 1062.22 1047.96 1071.34 1060.1 1079.91C1080.39 1094.22 1066.55 1108.71 1090.66 1114.6C1107.8 1118.79 1113.28 1096.63 1130.89 1097.72C1150.13 1098.9 1157.96 1138.68 1209.64 1122.41C1228.5 1116.47 1216.77 1078.16 1221.25 1058.9C1233.34 1043.78 1269.15 1036.08 1264.68 1017.24C1253.04 968.172 1226.53 1004.63 1212.13 993.13C1204.87 987.323 1212.13 955.427 1199.05 943.285C1191.62 936.398 1164.25 950.129 1156.78 943.285C1139.62 944.177 1129.69 919.228 1115.31 928.613C1108.49 933.058 1110.04 940.989 1103.43 945.718C1093.49 952.821 1083.21 943.127 1072.27 948.555Z" fill="#F7F7F7"/>
</g>
<g filter="url(#filter18_i)">
<path d="M1082.68 959.055C1073.05 963.831 1066.66 969.066 1064.31 979.554C1061.79 990.876 1071.25 992.845 1067.53 1003.83C1064.63 1012.38 1055.67 1018.58 1048.73 1021.27C1041.86 1023.93 1030.63 1037.33 1032.84 1044.36C1036.66 1056.52 1061.83 1064.34 1072.25 1071.69C1089.64 1083.95 1077.77 1096.37 1098.45 1101.43C1113.14 1105.02 1117.84 1086.02 1132.94 1086.95C1149.44 1087.97 1156.15 1122.07 1200.46 1108.12C1216.64 1103.03 1206.58 1070.18 1210.42 1053.67C1220.78 1040.7 1251.49 1034.1 1247.66 1017.95C1237.68 975.875 1214.95 1007.14 1202.6 997.275C1196.37 992.295 1202.6 964.947 1191.38 954.536C1185.02 948.63 1161.54 960.404 1155.14 954.536C1140.43 955.301 1131.92 933.908 1119.58 941.956C1113.74 945.766 1115.07 952.567 1109.39 956.622C1100.87 962.712 1092.06 954.4 1082.68 959.055Z" fill="#F7F7F7"/>
</g>
<g filter="url(#filter19_i)">
<path d="M1094.73 972.002C1086.96 975.859 1081.79 980.087 1079.9 988.556C1077.86 997.699 1085.5 999.289 1082.5 1008.16C1080.16 1015.06 1072.92 1020.07 1067.32 1022.24C1061.77 1024.39 1052.7 1035.21 1054.49 1040.89C1057.57 1050.71 1077.9 1057.02 1086.31 1062.96C1100.35 1072.86 1090.77 1082.89 1107.47 1086.97C1119.33 1089.87 1123.13 1074.53 1135.32 1075.28C1148.64 1076.1 1154.06 1103.65 1189.85 1092.38C1202.91 1088.27 1194.78 1061.74 1197.88 1048.41C1206.26 1037.94 1231.05 1032.61 1227.96 1019.56C1219.9 985.585 1201.54 1010.83 1191.57 1002.87C1186.54 998.845 1191.57 976.76 1182.51 968.353C1177.37 963.584 1158.42 973.092 1153.25 968.353C1141.37 968.971 1134.49 951.696 1124.53 958.194C1119.81 961.272 1120.89 966.763 1116.3 970.038C1109.42 974.956 1102.31 968.244 1094.73 972.002Z" fill="#F7F7F7"/>
</g>
<g filter="url(#filter20_i)">
<path d="M1105.27 985.74C1099.44 988.63 1095.58 991.798 1094.16 998.144C1092.63 1004.99 1098.35 1006.19 1096.1 1012.83C1094.35 1018 1088.93 1021.76 1084.73 1023.38C1080.57 1024.99 1073.78 1033.11 1075.11 1037.36C1077.43 1044.71 1092.66 1049.45 1098.96 1053.89C1109.48 1061.32 1102.3 1068.83 1114.81 1071.89C1123.7 1074.06 1126.55 1062.57 1135.68 1063.13C1145.66 1063.74 1149.73 1084.38 1176.54 1075.94C1186.33 1072.86 1180.24 1052.98 1182.56 1042.99C1188.84 1035.14 1207.42 1031.15 1205.1 1021.38C1199.06 995.918 1185.3 1014.84 1177.83 1008.87C1174.07 1005.85 1177.83 989.305 1171.04 983.006C1167.19 979.432 1152.99 986.556 1149.12 983.006C1140.21 983.469 1135.06 970.524 1127.6 975.394C1124.06 977.699 1124.87 981.814 1121.43 984.268C1116.28 987.953 1110.95 982.924 1105.27 985.74Z" fill="#F7F7F7"/>
</g>
<g filter="url(#filter21_i)">
<path d="M1112.85 997.083C1108.58 999.201 1105.75 1001.52 1104.71 1006.18C1103.59 1011.2 1107.78 1012.07 1106.13 1016.95C1104.85 1020.74 1100.87 1023.49 1097.79 1024.68C1094.75 1025.86 1089.77 1031.81 1090.75 1034.92C1092.44 1040.32 1103.61 1043.79 1108.23 1047.05C1115.94 1052.49 1110.68 1058 1119.85 1060.24C1126.37 1061.83 1128.45 1053.41 1135.15 1053.82C1142.47 1054.27 1145.45 1069.4 1165.1 1063.21C1172.28 1060.95 1167.82 1046.38 1169.52 1039.05C1174.12 1033.3 1187.74 1030.37 1186.04 1023.21C1181.61 1004.54 1171.53 1018.41 1166.05 1014.04C1163.29 1011.83 1166.05 999.696 1161.07 995.078C1158.25 992.458 1147.84 997.681 1145 995.078C1138.47 995.417 1134.7 985.927 1129.22 989.497C1126.63 991.188 1127.22 994.205 1124.7 996.004C1120.92 998.705 1117.02 995.018 1112.85 997.083Z" fill="#F7F7F7"/>
</g>
<g filter="url(#filter22_i)">
<path d="M1121.01 1005.12C1118.21 1006.5 1116.36 1008.02 1115.68 1011.07C1114.94 1014.36 1117.69 1014.93 1116.61 1018.12C1115.77 1020.61 1113.17 1022.41 1111.15 1023.19C1109.15 1023.96 1105.89 1027.85 1106.53 1029.9C1107.64 1033.43 1114.96 1035.7 1117.98 1037.83C1123.03 1041.4 1119.59 1045.01 1125.59 1046.47C1129.86 1047.52 1131.23 1042 1135.61 1042.27C1140.4 1042.56 1142.35 1052.47 1155.23 1048.42C1159.92 1046.94 1157 1037.4 1158.12 1032.6C1161.13 1028.83 1170.05 1026.92 1168.94 1022.22C1166.04 1010 1159.43 1019.08 1155.85 1016.22C1154.04 1014.77 1155.85 1006.83 1152.59 1003.8C1150.74 1002.09 1143.92 1005.51 1142.06 1003.8C1137.79 1004.03 1135.31 997.811 1131.73 1000.15C1130.03 1001.26 1130.42 1003.23 1128.77 1004.41C1126.3 1006.18 1123.74 1003.76 1121.01 1005.12Z" fill="#F7F7F7"/>
</g>
<defs>
<filter id="filter0_i" x="-1.95508" y="0.0649414" width="2284.65" height="1939.47" filterUnits="userSpaceOnUse" color-interpolation-filters="sRGB">
<feFlood flood-opacity="0" result="BackgroundImageFix"/>
<feBlend mode="normal" in="SourceGraphic" in2="BackgroundImageFix" result="shape"/>
<feColorMatrix in="SourceAlpha" type="matrix" values="0 0 0 0 0 0 0 0 0 0 0 0 0 0 0 0 0 0 127 0" result="hardAlpha"/>
<feOffset dx="-2" dy="23"/>
<feGaussianBlur stdDeviation="23"/>
<feComposite in2="hardAlpha" operator="arithmetic" k2="-1" k3="1"/>
<feColorMatrix type="matrix" values="0 0 0 0 0 0 0 0 0 0 0 0 0 0 0 0 0 0 0.25 0"/>
<feBlend mode="normal" in2="shape" result="effect1_innerShadow"/>
</filter>
<filter id="filter1_i" x="95.5459" y="140.791" width="2074.53" height="1680.61" filterUnits="userSpaceOnUse" color-interpolation-filters="sRGB">
<feFlood flood-opacity="0" result="BackgroundImageFix"/>
<feBlend mode="normal" in="SourceGraphic" in2="BackgroundImageFix" result="shape"/>
<feColorMatrix in="SourceAlpha" type="matrix" values="0 0 0 0 0 0 0 0 0 0 0 0 0 0 0 0 0 0 127 0" result="hardAlpha"/>
<feOffset dx="-2" dy="23"/>
<feGaussianBlur stdDeviation="23"/>
<feComposite in2="hardAlpha" operator="arithmetic" k2="-1" k3="1"/>
<feColorMatrix type="matrix" values="0 0 0 0 0 0 0 0 0 0 0 0 0 0 0 0 0 0 0.25 0"/>
<feBlend mode="normal" in2="shape" result="effect1_innerShadow"/>
</filter>
<filter id="filter2_i" x="242" y="286" width="1777.49" height="1443.04" filterUnits="userSpaceOnUse" color-interpolation-filters="sRGB">
<feFlood flood-opacity="0" result="BackgroundImageFix"/>
<feBlend mode="normal" in="SourceGraphic" in2="BackgroundImageFix" result="shape"/>
<feColorMatrix in="SourceAlpha" type="matrix" values="0 0 0 0 0 0 0 0 0 0 0 0 0 0 0 0 0 0 127 0" result="hardAlpha"/>
<feOffset dx="-2" dy="23"/>
<feGaussianBlur stdDeviation="23"/>
<feComposite in2="hardAlpha" operator="arithmetic" k2="-1" k3="1"/>
<feColorMatrix type="matrix" values="0 0 0 0 0 0 0 0 0 0 0 0 0 0 0 0 0 0 0.25 0"/>
<feBlend mode="normal" in2="shape" result="effect1_innerShadow"/>
</filter>
<filter id="filter3_i" x="339.342" y="356.672" width="1584.14" height="1288.4" filterUnits="userSpaceOnUse" color-interpolation-filters="sRGB">
<feFlood flood-opacity="0" result="BackgroundImageFix"/>
<feBlend mode="normal" in="SourceGraphic" in2="BackgroundImageFix" result="shape"/>
<feColorMatrix in="SourceAlpha" type="matrix" values="0 0 0 0 0 0 0 0 0 0 0 0 0 0 0 0 0 0 127 0" result="hardAlpha"/>
<feOffset dx="-2" dy="23"/>
<feGaussianBlur stdDeviation="23"/>
<feComposite in2="hardAlpha" operator="arithmetic" k2="-1" k3="1"/>
<feColorMatrix type="matrix" values="0 0 0 0 0 0 0 0 0 0 0 0 0 0 0 0 0 0 0.25 0"/>
<feBlend mode="normal" in2="shape" result="effect1_innerShadow"/>
</filter>
<filter id="filter4_i" x="420.154" y="420.917" width="1439.84" height="1172.99" filterUnits="userSpaceOnUse" color-interpolation-filters="sRGB">
<feFlood flood-opacity="0" result="BackgroundImageFix"/>
<feBlend mode="normal" in="SourceGraphic" in2="BackgroundImageFix" result="shape"/>
<feColorMatrix in="SourceAlpha" type="matrix" values="0 0 0 0 0 0 0 0 0 0 0 0 0 0 0 0 0 0 127 0" result="hardAlpha"/>
<feOffset dx="-2" dy="23"/>
<feGaussianBlur stdDeviation="23"/>
<feComposite in2="hardAlpha" operator="arithmetic" k2="-1" k3="1"/>
<feColorMatrix type="matrix" values="0 0 0 0 0 0 0 0 0 0 0 0 0 0 0 0 0 0 0.25 0"/>
<feBlend mode="normal" in2="shape" result="effect1_innerShadow"/>
</filter>
<filter id="filter5_i" x="482.438" y="488.348" width="1314.96" height="1073.11" filterUnits="userSpaceOnUse" color-interpolation-filters="sRGB">
<feFlood flood-opacity="0" result="BackgroundImageFix"/>
<feBlend mode="normal" in="SourceGraphic" in2="BackgroundImageFix" result="shape"/>
<feColorMatrix in="SourceAlpha" type="matrix" values="0 0 0 0 0 0 0 0 0 0 0 0 0 0 0 0 0 0 127 0" result="hardAlpha"/>
<feOffset dx="-2" dy="23"/>
<feGaussianBlur stdDeviation="23"/>
<feComposite in2="hardAlpha" operator="arithmetic" k2="-1" k3="1"/>
<feColorMatrix type="matrix" values="0 0 0 0 0 0 0 0 0 0 0 0 0 0 0 0 0 0 0.25 0"/>
<feBlend mode="normal" in2="shape" result="effect1_innerShadow"/>
</filter>
<filter id="filter6_i" x="536" y="538" width="1189.15" height="972.483" filterUnits="userSpaceOnUse" color-interpolation-filters="sRGB">
<feFlood flood-opacity="0" result="BackgroundImageFix"/>
<feBlend mode="normal" in="SourceGraphic" in2="BackgroundImageFix" result="shape"/>
<feColorMatrix in="SourceAlpha" type="matrix" values="0 0 0 0 0 0 0 0 0 0 0 0 0 0 0 0 0 0 127 0" result="hardAlpha"/>
<feOffset dx="-2" dy="23"/>
<feGaussianBlur stdDeviation="23"/>
<feComposite in2="hardAlpha" operator="arithmetic" k2="-1" k3="1"/>
<feColorMatrix type="matrix" values="0 0 0 0 0 0 0 0 0 0 0 0 0 0 0 0 0 0 0.25 0"/>
<feBlend mode="normal" in2="shape" result="effect1_innerShadow"/>
</filter>
<filter id="filter7_i" x="615.492" y="594.188" width="1048.87" height="860.289" filterUnits="userSpaceOnUse" color-interpolation-filters="sRGB">
<feFlood flood-opacity="0" result="BackgroundImageFix"/>
<feBlend mode="normal" in="SourceGraphic" in2="BackgroundImageFix" result="shape"/>
<feColorMatrix in="SourceAlpha" type="matrix" values="0 0 0 0 0 0 0 0 0 0 0 0 0 0 0 0 0 0 127 0" result="hardAlpha"/>
<feOffset dx="-2" dy="23"/>
<feGaussianBlur stdDeviation="23"/>
<feComposite in2="hardAlpha" operator="arithmetic" k2="-1" k3="1"/>
<feColorMatrix type="matrix" values="0 0 0 0 0 0 0 0 0 0 0 0 0 0 0 0 0 0 0.25 0"/>
<feBlend mode="normal" in2="shape" result="effect1_innerShadow"/>
</filter>
<filter id="filter8_i" x="708" y="651" width="864.666" height="712.963" filterUnits="userSpaceOnUse" color-interpolation-filters="sRGB">
<feFlood flood-opacity="0" result="BackgroundImageFix"/>
<feBlend mode="normal" in="SourceGraphic" in2="BackgroundImageFix" result="shape"/>
<feColorMatrix in="SourceAlpha" type="matrix" values="0 0 0 0 0 0 0 0 0 0 0 0 0 0 0 0 0 0 127 0" result="hardAlpha"/>
<feOffset dx="-2" dy="23"/>
<feGaussianBlur stdDeviation="23"/>
<feComposite in2="hardAlpha" operator="arithmetic" k2="-1" k3="1"/>
<feColorMatrix type="matrix" values="0 0 0 0 0 0 0 0 0 0 0 0 0 0 0 0 0 0 0.25 0"/>
<feBlend mode="normal" in2="shape" result="effect1_innerShadow"/>
</filter>
<filter id="filter9_i" x="765.691" y="714.551" width="748.296" height="619.889" filterUnits="userSpaceOnUse" color-interpolation-filters="sRGB">
<feFlood flood-opacity="0" result="BackgroundImageFix"/>
<feBlend mode="normal" in="SourceGraphic" in2="BackgroundImageFix" result="shape"/>
<feColorMatrix in="SourceAlpha" type="matrix" values="0 0 0 0 0 0 0 0 0 0 0 0 0 0 0 0 0 0 127 0" result="hardAlpha"/>
<feOffset dx="-2" dy="23"/>
<feGaussianBlur stdDeviation="23"/>
<feComposite in2="hardAlpha" operator="arithmetic" k2="-1" k3="1"/>
<feColorMatrix type="matrix" values="0 0 0 0 0 0 0 0 0 0 0 0 0 0 0 0 0 0 0.25 0"/>
<feBlend mode="normal" in2="shape" result="effect1_innerShadow"/>
</filter>
<filter id="filter10_i" x="815" y="754" width="650.415" height="541.604" filterUnits="userSpaceOnUse" color-interpolation-filters="sRGB">
<feFlood flood-opacity="0" result="BackgroundImageFix"/>
<feBlend mode="normal" in="SourceGraphic" in2="BackgroundImageFix" result="shape"/>
<feColorMatrix in="SourceAlpha" type="matrix" values="0 0 0 0 0 0 0 0 0 0 0 0 0 0 0 0 0 0 127 0" result="hardAlpha"/>
<feOffset dx="-2" dy="23"/>
<feGaussianBlur stdDeviation="23"/>
<feComposite in2="hardAlpha" operator="arithmetic" k2="-1" k3="1"/>
<feColorMatrix type="matrix" values="0 0 0 0 0 0 0 0 0 0 0 0 0 0 0 0 0 0 0.25 0"/>
<feBlend mode="normal" in2="shape" result="effect1_innerShadow"/>
</filter>
<filter id="filter11_i" x="868" y="796" width="544.476" height="456.873" filterUnits="userSpaceOnUse" color-interpolation-filters="sRGB">
<feFlood flood-opacity="0" result="BackgroundImageFix"/>
<feBlend mode="normal" in="SourceGraphic" in2="BackgroundImageFix" result="shape"/>
<feColorMatrix in="SourceAlpha" type="matrix" values="0 0 0 0 0 0 0 0 0 0 0 0 0 0 0 0 0 0 127 0" result="hardAlpha"/>
<feOffset dx="-2" dy="23"/>
<feGaussianBlur stdDeviation="23"/>
<feComposite in2="hardAlpha" operator="arithmetic" k2="-1" k3="1"/>
<feColorMatrix type="matrix" values="0 0 0 0 0 0 0 0 0 0 0 0 0 0 0 0 0 0 0.25 0"/>
<feBlend mode="normal" in2="shape" result="effect1_innerShadow"/>
</filter>
<filter id="filter12_i" x="905.004" y="826.201" width="470.062" height="397.357" filterUnits="userSpaceOnUse" color-interpolation-filters="sRGB">
<feFlood flood-opacity="0" result="BackgroundImageFix"/>
<feBlend mode="normal" in="SourceGraphic" in2="BackgroundImageFix" result="shape"/>
<feColorMatrix in="SourceAlpha" type="matrix" values="0 0 0 0 0 0 0 0 0 0 0 0 0 0 0 0 0 0 127 0" result="hardAlpha"/>
<feOffset dx="-2" dy="23"/>
<feGaussianBlur stdDeviation="23"/>
<feComposite in2="hardAlpha" operator="arithmetic" k2="-1" k3="1"/>
<feColorMatrix type="matrix" values="0 0 0 0 0 0 0 0 0 0 0 0 0 0 0 0 0 0 0.25 0"/>
<feBlend mode="normal" in2="shape" result="effect1_innerShadow"/>
</filter>
<filter id="filter13_i" x="938.3" y="859.838" width="404.323" height="344.779" filterUnits="userSpaceOnUse" color-interpolation-filters="sRGB">
<feFlood flood-opacity="0" result="BackgroundImageFix"/>
<feBlend mode="normal" in="SourceGraphic" in2="BackgroundImageFix" result="shape"/>
<feColorMatrix in="SourceAlpha" type="matrix" values="0 0 0 0 0 0 0 0 0 0 0 0 0 0 0 0 0 0 127 0" result="hardAlpha"/>
<feOffset dx="-2" dy="23"/>
<feGaussianBlur stdDeviation="23"/>
<feComposite in2="hardAlpha" operator="arithmetic" k2="-1" k3="1"/>
<feColorMatrix type="matrix" values="0 0 0 0 0 0 0 0 0 0 0 0 0 0 0 0 0 0 0.25 0"/>
<feBlend mode="normal" in2="shape" result="effect1_innerShadow"/>
</filter>
<filter id="filter14_i" x="957" y="875" width="366.731" height="314.713" filterUnits="userSpaceOnUse" color-interpolation-filters="sRGB">
<feFlood flood-opacity="0" result="BackgroundImageFix"/>
<feBlend mode="normal" in="SourceGraphic" in2="BackgroundImageFix" result="shape"/>
<feColorMatrix in="SourceAlpha" type="matrix" values="0 0 0 0 0 0 0 0 0 0 0 0 0 0 0 0 0 0 127 0" result="hardAlpha"/>
<feOffset dx="-2" dy="23"/>
<feGaussianBlur stdDeviation="23"/>
<feComposite in2="hardAlpha" operator="arithmetic" k2="-1" k3="1"/>
<feColorMatrix type="matrix" values="0 0 0 0 0 0 0 0 0 0 0 0 0 0 0 0 0 0 0.25 0"/>
<feBlend mode="normal" in2="shape" result="effect1_innerShadow"/>
</filter>
<filter id="filter15_i" x="983.513" y="903.014" width="310.126" height="269.44" filterUnits="userSpaceOnUse" color-interpolation-filters="sRGB">
<feFlood flood-opacity="0" result="BackgroundImageFix"/>
<feBlend mode="normal" in="SourceGraphic" in2="BackgroundImageFix" result="shape"/>
<feColorMatrix in="SourceAlpha" type="matrix" values="0 0 0 0 0 0 0 0 0 0 0 0 0 0 0 0 0 0 127 0" result="hardAlpha"/>
<feOffset dx="-2" dy="23"/>
<feGaussianBlur stdDeviation="23"/>
<feComposite in2="hardAlpha" operator="arithmetic" k2="-1" k3="1"/>
<feColorMatrix type="matrix" values="0 0 0 0 0 0 0 0 0 0 0 0 0 0 0 0 0 0 0.25 0"/>
<feBlend mode="normal" in2="shape" result="effect1_innerShadow"/>
</filter>
<filter id="filter16_i" x="1010" y="924" width="257.214" height="227.121" filterUnits="userSpaceOnUse" color-interpolation-filters="sRGB">
<feFlood flood-opacity="0" result="BackgroundImageFix"/>
<feBlend mode="normal" in="SourceGraphic" in2="BackgroundImageFix" result="shape"/>
<feColorMatrix in="SourceAlpha" type="matrix" values="0 0 0 0 0 0 0 0 0 0 0 0 0 0 0 0 0 0 127 0" result="hardAlpha"/>
<feOffset dx="-2" dy="23"/>
<feGaussianBlur stdDeviation="23"/>
<feComposite in2="hardAlpha" operator="arithmetic" k2="-1" k3="1"/>
<feColorMatrix type="matrix" values="0 0 0 0 0 0 0 0 0 0 0 0 0 0 0 0 0 0 0.25 0"/>
<feBlend mode="normal" in2="shape" result="effect1_innerShadow"/>
</filter>
<filter id="filter17_i" x="1010" y="924" width="257.214" height="227.121" filterUnits="userSpaceOnUse" color-interpolation-filters="sRGB">
<feFlood flood-opacity="0" result="BackgroundImageFix"/>
<feBlend mode="normal" in="SourceGraphic" in2="BackgroundImageFix" result="shape"/>
<feColorMatrix in="SourceAlpha" type="matrix" values="0 0 0 0 0 0 0 0 0 0 0 0 0 0 0 0 0 0 127 0" result="hardAlpha"/>
<feOffset dx="-2" dy="23"/>
<feGaussianBlur stdDeviation="23"/>
<feComposite in2="hardAlpha" operator="arithmetic" k2="-1" k3="1"/>
<feColorMatrix type="matrix" values="0 0 0 0 0 0 0 0 0 0 0 0 0 0 0 0 0 0 0.25 0"/>
<feBlend mode="normal" in2="shape" result="effect1_innerShadow"/>
</filter>
<filter id="filter18_i" x="1029" y="938" width="220.831" height="198.021" filterUnits="userSpaceOnUse" color-interpolation-filters="sRGB">
<feFlood flood-opacity="0" result="BackgroundImageFix"/>
<feBlend mode="normal" in="SourceGraphic" in2="BackgroundImageFix" result="shape"/>
<feColorMatrix in="SourceAlpha" type="matrix" values="0 0 0 0 0 0 0 0 0 0 0 0 0 0 0 0 0 0 127 0" result="hardAlpha"/>
<feOffset dx="-2" dy="23"/>
<feGaussianBlur stdDeviation="23"/>
<feComposite in2="hardAlpha" operator="arithmetic" k2="-1" k3="1"/>
<feColorMatrix type="matrix" values="0 0 0 0 0 0 0 0 0 0 0 0 0 0 0 0 0 0 0.25 0"/>
<feBlend mode="normal" in2="shape" result="effect1_innerShadow"/>
</filter>
<filter id="filter19_i" x="1051" y="955" width="178.712" height="164.335" filterUnits="userSpaceOnUse" color-interpolation-filters="sRGB">
<feFlood flood-opacity="0" result="BackgroundImageFix"/>
<feBlend mode="normal" in="SourceGraphic" in2="BackgroundImageFix" result="shape"/>
<feColorMatrix in="SourceAlpha" type="matrix" values="0 0 0 0 0 0 0 0 0 0 0 0 0 0 0 0 0 0 127 0" result="hardAlpha"/>
<feOffset dx="-2" dy="23"/>
<feGaussianBlur stdDeviation="23"/>
<feComposite in2="hardAlpha" operator="arithmetic" k2="-1" k3="1"/>
<feColorMatrix type="matrix" values="0 0 0 0 0 0 0 0 0 0 0 0 0 0 0 0 0 0 0.25 0"/>
<feBlend mode="normal" in2="shape" result="effect1_innerShadow"/>
</filter>
<filter id="filter20_i" x="1072" y="973" width="134.412" height="128.904" filterUnits="userSpaceOnUse" color-interpolation-filters="sRGB">
<feFlood flood-opacity="0" result="BackgroundImageFix"/>
<feBlend mode="normal" in="SourceGraphic" in2="BackgroundImageFix" result="shape"/>
<feColorMatrix in="SourceAlpha" type="matrix" values="0 0 0 0 0 0 0 0 0 0 0 0 0 0 0 0 0 0 127 0" result="hardAlpha"/>
<feOffset dx="-2" dy="23"/>
<feGaussianBlur stdDeviation="23"/>
<feComposite in2="hardAlpha" operator="arithmetic" k2="-1" k3="1"/>
<feColorMatrix type="matrix" values="0 0 0 0 0 0 0 0 0 0 0 0 0 0 0 0 0 0 0.25 0"/>
<feBlend mode="normal" in2="shape" result="effect1_innerShadow"/>
</filter>
<filter id="filter21_i" x="1087.93" y="987.743" width="99.0735" height="100.64" filterUnits="userSpaceOnUse" color-interpolation-filters="sRGB">
<feFlood flood-opacity="0" result="BackgroundImageFix"/>
<feBlend mode="normal" in="SourceGraphic" in2="BackgroundImageFix" result="shape"/>
<feColorMatrix in="SourceAlpha" type="matrix" values="0 0 0 0 0 0 0 0 0 0 0 0 0 0 0 0 0 0 127 0" result="hardAlpha"/>
<feOffset dx="-2" dy="23"/>
<feGaussianBlur stdDeviation="23"/>
<feComposite in2="hardAlpha" operator="arithmetic" k2="-1" k3="1"/>
<feColorMatrix type="matrix" values="0 0 0 0 0 0 0 0 0 0 0 0 0 0 0 0 0 0 0.25 0"/>
<feBlend mode="normal" in2="shape" result="effect1_innerShadow"/>
</filter>
<filter id="filter22_i" x="1104" y="999" width="65.5669" height="73.8409" filterUnits="userSpaceOnUse" color-interpolation-filters="sRGB">
<feFlood flood-opacity="0" result="BackgroundImageFix"/>
<feBlend mode="normal" in="SourceGraphic" in2="BackgroundImageFix" result="shape"/>
<feColorMatrix in="SourceAlpha" type="matrix" values="0 0 0 0 0 0 0 0 0 0 0 0 0 0 0 0 0 0 127 0" result="hardAlpha"/>
<feOffset dx="-2" dy="23"/>
<feGaussianBlur stdDeviation="23"/>
<feComposite in2="hardAlpha" operator="arithmetic" k2="-1" k3="1"/>
<feColorMatrix type="matrix" values="0 0 0 0 0 0 0 0 0 0 0 0 0 0 0 0 0 0 0.25 0"/>
<feBlend mode="normal" in2="shape" result="effect1_innerShadow"/>
</filter>
</defs>
</svg>
