<svg width="3400" height="3039" viewBox="0 0 3400 3039" fill="none" xmlns="http://www.w3.org/2000/svg">
<g filter="url(#filter0_i)">
<path d="M907.793 370.117C738.502 454.077 626.14 546.108 584.981 730.473C540.55 929.497 774.417 986.849 709 1180C658.532 1329.01 436.5 1415.07 313.873 1462.59L310.966 1463.72C190.169 1510.55 -7.12717 1746.17 31.6996 1869.72C98.8581 2083.43 644.193 2066.11 827.292 2195.28C1132.99 2410.93 821.524 2784.06 1184.98 2872.89C1443.28 2936.01 1536.34 2568.22 1801.75 2584.56C2091.75 2602.41 2125.75 2955.58 2410.84 3011.64C2700.74 3068.64 2779.21 2731.08 2846.29 2442.51L2848.1 2434.7C2892.46 2243.95 2543.89 2170.51 2719.52 1869.72C2776 1773 2957.66 2065.61 3065.9 1982.71C3213.42 1869.72 3225.17 1939.89 3341.05 1672.06C3451.33 1417.18 3152.26 1223.83 2907.01 1150.42C2762.79 1107.24 2616.39 1162.62 2525.35 996.5C2420.58 805.325 2744.78 711.319 2689.73 582.455C2629.77 442.095 3033.75 335.186 2921.22 232.028C2825.74 144.493 2727.09 158.543 2597.53 159.293C2427.18 160.28 2351.72 281.836 2181.6 290.682C1922.98 304.13 1773.33 -71.9327 1556.46 69.5358C1453.77 136.524 1477.16 256.07 1377.41 327.359C1227.61 434.419 1072.76 288.302 907.793 370.117Z" fill="#F8F8F8"/>
</g>
<g filter="url(#filter1_i)">
<path d="M1051.37 493.079C912.739 561.832 820.729 637.194 787.025 788.165C750.642 951.14 981.764 1033.64 928.196 1191.8C886.541 1314.8 662.537 1349.88 562.642 1388.6C463.724 1426.95 302.164 1619.89 333.958 1721.06C388.952 1896.06 835.512 1881.89 985.447 1987.65C1235.77 2164.24 980.724 2469.79 1278.35 2542.53C1489.86 2594.22 1566.07 2293.05 1783.4 2306.43C2020.88 2321.04 2048.72 2610.24 2282.17 2656.15C2519.56 2702.83 2583.82 2426.41 2638.75 2190.1L2640.23 2183.71C2676.56 2027.51 2345.12 1933.94 2534.95 1721.06C2672.11 1567.24 2729.95 1881.47 2818.58 1813.59C2939.38 1721.06 2949.01 1778.53 3043.9 1559.21C3134.2 1350.49 2900.95 1218.93 2700.11 1158.81C2582.02 1123.46 2462.13 1168.8 2387.58 1032.77C2301.79 876.224 2555.62 772.48 2510.55 666.957C2461.45 552.02 2792.26 464.475 2700.11 380.001C2621.92 308.322 2541.14 319.826 2435.05 320.441C2295.55 321.249 2233.76 420.788 2094.45 428.032C1882.68 439.044 1760.13 131.096 1582.55 246.941C1498.46 301.795 1517.61 399.689 1435.92 458.066C1313.26 545.734 1186.45 426.083 1051.37 493.079Z" fill="#F8F8F8"/>
</g>
<g filter="url(#filter2_i)">
<path d="M1243.99 824.197C1152.78 869.432 1092.24 919.015 1070.07 1018.34C1046.13 1125.57 1135.73 1144.23 1100.49 1248.29C1073.08 1329.21 988.163 1387.92 922.438 1413.39C857.357 1438.62 751.061 1565.57 771.979 1632.13C808.162 1747.27 1046.54 1821.34 1145.19 1890.93C1309.89 2007.11 1197.51 2124.75 1393.33 2172.6C1532.49 2206.61 1582.63 2008.46 1725.62 2017.26C1881.86 2026.88 1900.18 2217.15 2053.78 2247.36C2211.38 2278.35 2417.42 2308.08 2453.78 2151.7C2477.68 2048.93 2386.71 2012.03 2399.49 1907.29C2408.38 1834.39 2407.91 1777.66 2453.78 1720.29C2551.98 1597.48 2733.07 1701.27 2795.5 1556.98C2854.91 1419.66 2816.02 1279.6 2699.1 1186.18C2628.52 1129.78 2450.33 1242.61 2379.77 1186.18C2320.79 1139.02 2284.44 1035.91 2322.61 965.974C2362 893.793 2389.38 805.377 2328.76 749.799C2277.31 702.639 2224.17 710.208 2154.36 710.612C2062.58 711.144 2021.93 776.634 1930.27 781.4C1790.94 788.645 1710.31 586.036 1593.47 662.254C1538.14 698.345 1550.74 762.752 1497 801.16C1416.29 858.841 1332.87 780.118 1243.99 824.197Z" fill="#F7F7F7"/>
</g>
<g filter="url(#filter3_i)">
<path d="M1303.31 1037.64C1234.17 1074.02 1188.65 1113.18 1173.45 1189.83C1157.04 1272.58 1164.62 1315.77 1139.49 1396.29C1119.94 1458.91 1114.17 1551.11 1064.22 1571.86C1014.76 1592.41 938.728 1615.69 955.984 1666.41C985.832 1754.13 1166.06 1774.67 1242.99 1826.29C1371.42 1912.47 1291.33 2036.79 1442.39 2069.96C1549.75 2093.53 1610.65 1964.64 1720.49 1968.79C1840.5 1973.33 1831.96 2094.92 1950.31 2115.31C2071.75 2136.23 2230.33 2155.3 2255.37 2034.6C2271.83 1955.28 2277.09 1906.92 2284.99 1826.29C2290.48 1770.17 2340.35 1751.16 2374.49 1706.29C2447.57 1610.24 2502.23 1633.69 2547.49 1521.79C2590.56 1415.3 2517.33 1358.57 2425.96 1288.99C2370.79 1246.98 2310.52 1231.86 2255.37 1189.83C2209.28 1154.71 2194.5 1068.1 2170.49 1015.34C2144.33 957.886 2181.48 1002.33 2133.96 960.769C2093.65 925.506 2053.02 932.284 1999.49 933.866C1929.11 935.946 1899.12 986.957 1828.9 992.285C1722.17 1000.38 1656.64 846.329 1568.41 906.962C1526.63 935.673 1537.47 984.884 1496.95 1015.34C1436.1 1061.09 1370.67 1002.18 1303.31 1037.64Z" fill="#EEEEEE"/>
</g>
<g filter="url(#filter4_i)">
<path d="M1471.99 1073.77C1418.29 1101.95 1374.79 1135.92 1362.99 1195.29C1350.24 1259.39 1279.51 1238.92 1259.99 1301.29C1244.8 1349.79 1225.57 1439.88 1206.49 1477.29C1162.36 1563.79 1148.96 1622.78 1162.36 1662.06C1185.55 1730.02 1247.73 1769.8 1307.49 1809.79C1407.25 1876.55 1354.65 1984.11 1471.99 2009.8C1555.38 2028.06 1646.67 1890.07 1731.99 1893.29C1825.21 1896.81 1842.78 1994.01 1934.71 2009.8C2029.05 2026 2152.22 2040.78 2171.67 1947.28C2184.46 1885.83 2183.85 1888.75 2189.99 1826.29C2194.25 1782.82 2199.97 1777.55 2226.49 1742.79C2283.25 1668.38 2331.69 1675.51 2366.85 1588.82C2400.31 1506.33 2375.15 1423.6 2304.18 1369.7C2261.33 1337.16 2255.32 1333.85 2212.49 1301.29C2176.68 1274.08 2127.64 1236.15 2108.99 1195.29C2088.67 1150.78 2114.27 1147.64 2077.37 1115.45C2046.05 1088.13 2014.49 1093.38 1972.91 1094.61C1918.24 1096.22 1894.95 1135.74 1840.41 1139.86C1757.5 1146.14 1706.6 1026.8 1638.07 1073.77C1605.62 1096.01 1601.46 1071.01 1569.99 1094.61C1522.72 1130.05 1524.31 1046.3 1471.99 1073.77Z" fill="#E6E6E6"/>
</g>
<g filter="url(#filter5_i)">
<path d="M1533.46 1215.85C1489.76 1233.99 1466.17 1270.64 1434.49 1294.04C1399.61 1319.79 1376.85 1322.11 1360.96 1362.24C1348.61 1393.44 1332.96 1451.4 1317.43 1475.47C1281.53 1531.12 1270.62 1569.07 1281.53 1594.35C1300.39 1638.07 1350.99 1663.67 1399.61 1689.39C1480.79 1732.35 1437.98 1801.55 1533.46 1818.08C1601.31 1829.82 1677.22 1796.2 1746.64 1798.27C1822.49 1800.54 1835.16 1807.91 1909.96 1818.08C1986.72 1828.5 2086.94 1838 2102.77 1777.85C2113.17 1738.32 2112.68 1740.19 2117.67 1700.01C2121.14 1672.04 2125.79 1668.65 2147.37 1646.29C2193.56 1598.42 2232.97 1603 2261.58 1547.23C2288.8 1494.16 2268.33 1440.93 2210.58 1406.25C2175.72 1385.31 2170.83 1383.18 2135.98 1362.24C2106.85 1344.73 2066.94 1320.33 2051.76 1294.04C2035.23 1265.4 2056.06 1263.38 2026.03 1242.67C2000.55 1225.09 1974.88 1228.47 1941.05 1229.26C1896.56 1230.3 1901.86 1240.01 1857.49 1242.67C1790.03 1246.71 1812.99 1215.85 1706.49 1191.29C1677.22 1184.54 1629.1 1176.11 1603.49 1191.29C1565.03 1214.09 1576.03 1198.18 1533.46 1215.85Z" fill="#D8D8D8"/>
</g>
<g filter="url(#filter6_i)">
<path d="M1595.18 1295.99C1562.63 1309.81 1549.81 1333.89 1529.11 1355.57C1495.47 1390.79 1478.51 1376.96 1466.67 1407.54C1457.47 1431.32 1445.81 1475.49 1434.24 1493.83C1407.5 1536.24 1399.37 1565.16 1407.5 1584.42C1421.55 1617.74 1459.24 1637.25 1495.47 1656.85C1555.94 1689.58 1524.05 1742.31 1595.18 1754.91C1645.73 1763.86 1702.28 1738.24 1754 1739.82C1810.5 1741.55 1819.94 1747.17 1875.67 1754.91C1932.85 1762.86 2007.51 1770.1 2019.3 1724.26C2027.05 1694.13 2026.69 1695.56 2030.41 1664.94C2032.99 1643.63 2036.46 1641.04 2052.53 1624C2086.94 1587.52 2116.3 1591.01 2137.61 1548.51C2157.89 1508.07 2142.65 1467.51 2099.62 1441.08C2073.65 1425.13 2070.01 1423.5 2044.04 1407.54C2022.34 1394.2 1992.61 1375.61 1981.31 1355.57C1968.99 1333.75 1984.51 1332.21 1962.14 1316.43C1943.16 1303.03 1924.03 1305.61 1898.82 1306.21C1865.68 1307 1869.63 1314.4 1836.57 1316.43C1786.32 1319.5 1803.42 1295.99 1724.08 1277.28C1702.28 1272.13 1666.43 1265.7 1647.35 1277.27C1618.7 1294.65 1626.9 1282.53 1595.18 1295.99Z" fill="#C9C9C9"/>
</g>
<g filter="url(#filter7_i)">
<path d="M1660.53 1364.53C1639.87 1374.26 1623.14 1385.99 1618.59 1406.48C1613.69 1428.61 1586.47 1421.54 1578.96 1443.07C1573.12 1459.82 1565.72 1490.92 1558.38 1503.83C1541.4 1533.69 1536.24 1554.05 1541.4 1567.61C1550.32 1591.07 1574.25 1604.8 1597.24 1618.61C1635.62 1641.65 1615.38 1678.78 1660.53 1687.65C1692.62 1693.95 1728.52 1675.92 1761.35 1677.03C1797.21 1678.24 1803.21 1682.2 1838.58 1687.65C1874.88 1693.24 1922.27 1698.34 1929.75 1666.07C1934.67 1644.86 1934.44 1645.86 1936.8 1624.3C1938.44 1609.3 1940.64 1607.48 1950.85 1595.48C1972.69 1569.79 1991.33 1572.25 2004.85 1542.33C2017.73 1513.85 2008.05 1485.3 1980.74 1466.69C1964.25 1455.46 1961.94 1454.31 1945.46 1443.07C1931.68 1433.68 1912.81 1420.59 1905.63 1406.48C1897.82 1391.12 1907.67 1390.03 1893.47 1378.92C1881.42 1369.49 1869.28 1371.31 1853.28 1371.73C1832.24 1372.28 1834.75 1377.5 1813.76 1378.92C1781.86 1381.09 1792.72 1364.53 1742.36 1351.36C1728.52 1347.74 1705.76 1343.21 1693.65 1351.36C1675.46 1363.59 1680.67 1355.05 1660.53 1364.53Z" fill="#C4C4C4"/>
</g>
<g filter="url(#filter8_i)">
<path d="M1696.53 1410.19C1682.27 1416.87 1670.72 1424.93 1667.59 1439.01C1664.2 1454.21 1645.42 1449.35 1640.24 1464.14C1636.21 1475.65 1631.1 1497.01 1626.03 1505.88C1614.32 1526.39 1610.76 1540.38 1614.32 1549.7C1620.47 1565.81 1636.98 1575.24 1652.85 1584.73C1679.34 1600.56 1665.37 1626.06 1696.53 1632.16C1718.67 1636.49 1743.44 1624.1 1766.09 1624.86C1790.84 1625.69 1794.97 1628.41 1819.38 1632.16C1844.43 1636 1877.13 1639.5 1882.29 1617.33C1885.69 1602.76 1885.53 1603.45 1887.16 1588.64C1888.29 1578.33 1889.81 1577.08 1896.85 1568.84C1911.92 1551.19 1924.78 1552.88 1934.11 1532.33C1943 1512.77 1936.32 1493.15 1917.47 1480.37C1906.1 1472.65 1904.5 1471.86 1893.13 1464.14C1883.62 1457.69 1870.6 1448.7 1865.65 1439.01C1860.26 1428.45 1867.05 1427.71 1857.26 1420.07C1848.94 1413.6 1840.56 1414.84 1829.52 1415.13C1815.01 1415.51 1816.74 1419.09 1802.26 1420.07C1780.24 1421.56 1787.74 1410.19 1752.98 1401.14C1743.44 1398.65 1727.73 1395.54 1719.38 1401.14C1706.83 1409.54 1710.42 1403.68 1696.53 1410.19Z" fill="#C4C4C4"/>
</g>
<g filter="url(#filter9_i)">
<path d="M1722.28 1442.18C1712.68 1446.66 1704.89 1452.06 1702.78 1461.51C1700.5 1471.71 1687.85 1468.45 1684.35 1478.37C1681.64 1486.09 1678.2 1500.42 1674.78 1506.37C1666.89 1520.14 1664.49 1529.52 1666.89 1535.77C1671.04 1546.58 1682.16 1552.91 1692.85 1559.27C1710.7 1569.89 1701.29 1587 1722.28 1591.09C1737.2 1594 1753.89 1585.68 1769.16 1586.2C1785.84 1586.76 1788.62 1588.58 1805.07 1591.09C1821.95 1593.67 1843.98 1596.02 1847.46 1581.15C1849.75 1571.37 1849.64 1571.83 1850.74 1561.9C1851.5 1554.98 1852.53 1554.14 1857.27 1548.61C1867.43 1536.78 1876.09 1537.91 1882.38 1524.12C1888.37 1510.99 1883.87 1497.83 1871.17 1489.26C1863.5 1484.08 1862.43 1483.55 1854.76 1478.37C1848.36 1474.05 1839.58 1468.01 1836.25 1461.51C1832.61 1454.43 1837.19 1453.93 1830.59 1448.81C1824.99 1444.46 1819.34 1445.3 1811.9 1445.49C1802.12 1445.75 1803.29 1448.15 1793.53 1448.81C1778.7 1449.81 1783.75 1442.18 1760.33 1436.1C1753.89 1434.44 1743.31 1432.35 1737.68 1436.1C1729.22 1441.74 1731.64 1437.81 1722.28 1442.18Z" fill="#C4C4C4"/>
</g>
<defs>
<filter id="filter0_i" x="-2" y="0" width="3401.93" height="3061.4" filterUnits="userSpaceOnUse" color-interpolation-filters="sRGB">
<feFlood flood-opacity="0" result="BackgroundImageFix"/>
<feBlend mode="normal" in="SourceGraphic" in2="BackgroundImageFix" result="shape"/>
<feColorMatrix in="SourceAlpha" type="matrix" values="0 0 0 0 0 0 0 0 0 0 0 0 0 0 0 0 0 0 127 0" result="hardAlpha"/>
<feOffset dx="-2" dy="23"/>
<feGaussianBlur stdDeviation="23"/>
<feComposite in2="hardAlpha" operator="arithmetic" k2="-1" k3="1"/>
<feColorMatrix type="matrix" values="0 0 0 0 0 0 0 0 0 0 0 0 0 0 0 0 0 0 0.25 0"/>
<feBlend mode="normal" in2="shape" result="effect1_innerShadow"/>
</filter>
<filter id="filter1_i" x="306" y="190" width="2786.77" height="2511.08" filterUnits="userSpaceOnUse" color-interpolation-filters="sRGB">
<feFlood flood-opacity="0" result="BackgroundImageFix"/>
<feBlend mode="normal" in="SourceGraphic" in2="BackgroundImageFix" result="shape"/>
<feColorMatrix in="SourceAlpha" type="matrix" values="0 0 0 0 0 0 0 0 0 0 0 0 0 0 0 0 0 0 127 0" result="hardAlpha"/>
<feOffset dx="-2" dy="23"/>
<feGaussianBlur stdDeviation="23"/>
<feComposite in2="hardAlpha" operator="arithmetic" k2="-1" k3="1"/>
<feColorMatrix type="matrix" values="0 0 0 0 0 0 0 0 0 0 0 0 0 0 0 0 0 0 0.25 0"/>
<feBlend mode="normal" in2="shape" result="effect1_innerShadow"/>
</filter>
<filter id="filter2_i" x="752.485" y="624.791" width="2088.55" height="1683.51" filterUnits="userSpaceOnUse" color-interpolation-filters="sRGB">
<feFlood flood-opacity="0" result="BackgroundImageFix"/>
<feBlend mode="normal" in="SourceGraphic" in2="BackgroundImageFix" result="shape"/>
<feColorMatrix in="SourceAlpha" type="matrix" values="0 0 0 0 0 0 0 0 0 0 0 0 0 0 0 0 0 0 127 0" result="hardAlpha"/>
<feOffset dx="-2" dy="23"/>
<feGaussianBlur stdDeviation="23"/>
<feComposite in2="hardAlpha" operator="arithmetic" k2="-1" k3="1"/>
<feColorMatrix type="matrix" values="0 0 0 0 0 0 0 0 0 0 0 0 0 0 0 0 0 0 0.25 0"/>
<feBlend mode="normal" in2="shape" result="effect1_innerShadow"/>
</filter>
<filter id="filter3_i" x="951.486" y="892.791" width="1608.67" height="1261" filterUnits="userSpaceOnUse" color-interpolation-filters="sRGB">
<feFlood flood-opacity="0" result="BackgroundImageFix"/>
<feBlend mode="normal" in="SourceGraphic" in2="BackgroundImageFix" result="shape"/>
<feColorMatrix in="SourceAlpha" type="matrix" values="0 0 0 0 0 0 0 0 0 0 0 0 0 0 0 0 0 0 127 0" result="hardAlpha"/>
<feOffset dx="-2" dy="23"/>
<feGaussianBlur stdDeviation="23"/>
<feComposite in2="hardAlpha" operator="arithmetic" k2="-1" k3="1"/>
<feColorMatrix type="matrix" values="0 0 0 0 0 0 0 0 0 0 0 0 0 0 0 0 0 0 0.25 0"/>
<feBlend mode="normal" in2="shape" result="effect1_innerShadow"/>
</filter>
<filter id="filter4_i" x="1155.39" y="1062.79" width="1226.09" height="982" filterUnits="userSpaceOnUse" color-interpolation-filters="sRGB">
<feFlood flood-opacity="0" result="BackgroundImageFix"/>
<feBlend mode="normal" in="SourceGraphic" in2="BackgroundImageFix" result="shape"/>
<feColorMatrix in="SourceAlpha" type="matrix" values="0 0 0 0 0 0 0 0 0 0 0 0 0 0 0 0 0 0 127 0" result="hardAlpha"/>
<feOffset dx="-2" dy="23"/>
<feGaussianBlur stdDeviation="23"/>
<feComposite in2="hardAlpha" operator="arithmetic" k2="-1" k3="1"/>
<feColorMatrix type="matrix" values="0 0 0 0 0 0 0 0 0 0 0 0 0 0 0 0 0 0 0.25 0"/>
<feBlend mode="normal" in2="shape" result="effect1_innerShadow"/>
</filter>
<filter id="filter5_i" x="1275.49" y="1182.78" width="998" height="666.007" filterUnits="userSpaceOnUse" color-interpolation-filters="sRGB">
<feFlood flood-opacity="0" result="BackgroundImageFix"/>
<feBlend mode="normal" in="SourceGraphic" in2="BackgroundImageFix" result="shape"/>
<feColorMatrix in="SourceAlpha" type="matrix" values="0 0 0 0 0 0 0 0 0 0 0 0 0 0 0 0 0 0 127 0" result="hardAlpha"/>
<feOffset dx="-2" dy="23"/>
<feGaussianBlur stdDeviation="23"/>
<feComposite in2="hardAlpha" operator="arithmetic" k2="-1" k3="1"/>
<feColorMatrix type="matrix" values="0 0 0 0 0 0 0 0 0 0 0 0 0 0 0 0 0 0 0.25 0"/>
<feBlend mode="normal" in2="shape" result="effect1_innerShadow"/>
</filter>
<filter id="filter6_i" x="1402.49" y="1270.79" width="744" height="513" filterUnits="userSpaceOnUse" color-interpolation-filters="sRGB">
<feFlood flood-opacity="0" result="BackgroundImageFix"/>
<feBlend mode="normal" in="SourceGraphic" in2="BackgroundImageFix" result="shape"/>
<feColorMatrix in="SourceAlpha" type="matrix" values="0 0 0 0 0 0 0 0 0 0 0 0 0 0 0 0 0 0 127 0" result="hardAlpha"/>
<feOffset dx="-2" dy="23"/>
<feGaussianBlur stdDeviation="23"/>
<feComposite in2="hardAlpha" operator="arithmetic" k2="-1" k3="1"/>
<feColorMatrix type="matrix" values="0 0 0 0 0 0 0 0 0 0 0 0 0 0 0 0 0 0 0.25 0"/>
<feBlend mode="normal" in2="shape" result="effect1_innerShadow"/>
</filter>
<filter id="filter7_i" x="1537.49" y="1346.79" width="473" height="368" filterUnits="userSpaceOnUse" color-interpolation-filters="sRGB">
<feFlood flood-opacity="0" result="BackgroundImageFix"/>
<feBlend mode="normal" in="SourceGraphic" in2="BackgroundImageFix" result="shape"/>
<feColorMatrix in="SourceAlpha" type="matrix" values="0 0 0 0 0 0 0 0 0 0 0 0 0 0 0 0 0 0 127 0" result="hardAlpha"/>
<feOffset dx="-2" dy="23"/>
<feGaussianBlur stdDeviation="23"/>
<feComposite in2="hardAlpha" operator="arithmetic" k2="-1" k3="1"/>
<feColorMatrix type="matrix" values="0 0 0 0 0 0 0 0 0 0 0 0 0 0 0 0 0 0 0.25 0"/>
<feBlend mode="normal" in2="shape" result="effect1_innerShadow"/>
</filter>
<filter id="filter8_i" x="1611" y="1398" width="327" height="260" filterUnits="userSpaceOnUse" color-interpolation-filters="sRGB">
<feFlood flood-opacity="0" result="BackgroundImageFix"/>
<feBlend mode="normal" in="SourceGraphic" in2="BackgroundImageFix" result="shape"/>
<feColorMatrix in="SourceAlpha" type="matrix" values="0 0 0 0 0 0 0 0 0 0 0 0 0 0 0 0 0 0 127 0" result="hardAlpha"/>
<feOffset dx="-2" dy="23"/>
<feGaussianBlur stdDeviation="23"/>
<feComposite in2="hardAlpha" operator="arithmetic" k2="-1" k3="1"/>
<feColorMatrix type="matrix" values="0 0 0 0 0 0 0 0 0 0 0 0 0 0 0 0 0 0 0.25 0"/>
<feBlend mode="normal" in2="shape" result="effect1_innerShadow"/>
</filter>
<filter id="filter9_i" x="1664" y="1434" width="221" height="182" filterUnits="userSpaceOnUse" color-interpolation-filters="sRGB">
<feFlood flood-opacity="0" result="BackgroundImageFix"/>
<feBlend mode="normal" in="SourceGraphic" in2="BackgroundImageFix" result="shape"/>
<feColorMatrix in="SourceAlpha" type="matrix" values="0 0 0 0 0 0 0 0 0 0 0 0 0 0 0 0 0 0 127 0" result="hardAlpha"/>
<feOffset dx="-2" dy="23"/>
<feGaussianBlur stdDeviation="23"/>
<feComposite in2="hardAlpha" operator="arithmetic" k2="-1" k3="1"/>
<feColorMatrix type="matrix" values="0 0 0 0 0 0 0 0 0 0 0 0 0 0 0 0 0 0 0.25 0"/>
<feBlend mode="normal" in2="shape" result="effect1_innerShadow"/>
</filter>
</defs>
</svg>
