<svg xmlns="http://www.w3.org/2000/svg" fill="none" viewBox="0 0 2785 2489">
  <g filter="url(#g)">
    <path d="m743.37 303.08c-138.63 68.75-230.64 144.12-264.34 295.09-36.38 162.98 194.74 245.47 141.17 403.64-41.65 123-265.66 158.08-365.55 196.8-98.92 38.35-260.48 231.29-228.68 332.46 54.99 175 501.55 160.83 651.49 266.59 250.33 176.59-4.72 482.14 292.9 554.88 211.51 51.69 287.72-249.48 505.05-236.1 237.48 14.61 265.32 303.81 498.77 349.72 237.39 46.68 301.65-229.74 356.58-466.05l1.48-6.39c36.33-156.2-295.11-249.77-105.28-462.65 137.16-153.82 195 160.41 283.63 92.53 120.8-92.53 130.43-35.06 225.32-254.38 90.3-208.72-142.95-340.28-343.79-400.4-118.09-35.35-237.98 9.99-312.53-126.04-85.79-156.55 168.04-260.29 122.97-365.82-49.1-114.94 281.71-202.48 189.56-286.96-78.19-71.68-158.97-60.17-265.06-59.56-139.5 0.81-201.29 100.35-340.6 107.59-211.77 11.01-334.32-296.94-511.9-181.09-84.09 54.85-64.94 152.75-146.63 211.12-122.66 87.67-249.47-31.98-384.55 35.01z" fill="#F8F8F8"/>
  </g>
  <g filter="url(#f)">
    <path d="m935.99 634.2c-91.21 45.24-151.74 94.82-173.92 194.15-23.94 107.23 65.66 125.88 30.42 229.95-27.41 80.92-112.32 139.63-178.05 165.1-65.08 25.23-171.38 152.18-150.46 218.74 36.18 115.14 274.56 189.21 373.21 258.8 164.7 116.18 52.32 233.82 248.14 281.67 139.16 34.01 189.3-164.14 332.29-155.34 156.24 9.62 174.56 199.89 328.16 230.1 157.6 30.99 363.64 60.72 400-95.66 23.9-102.77-67.07-139.67-54.29-244.41 8.89-72.9 8.42-129.63 54.29-187 98.2-122.81 279.29-19.02 341.72-163.31 59.41-137.32 20.52-277.38-96.4-370.8-70.58-56.4-248.77 56.43-319.33 0-58.98-47.16-95.33-150.27-57.16-220.2 39.39-72.18 66.77-160.6 6.15-216.18-51.45-47.16-104.59-39.59-174.4-39.19-91.78 0.53-132.43 66.02-224.09 70.79-139.33 7.25-219.96-195.36-336.8-119.15-55.33 36.09-42.73 100.5-96.47 138.91-80.71 57.68-164.13-21.04-253.01 23.04z" fill="#F7F7F7"/>
  </g>
  <g filter="url(#e)">
    <path d="m995.31 847.64c-69.13 36.38-114.66 75.55-129.86 152.2-16.41 82.75-8.82 125.94-33.96 206.46-19.55 62.62-25.32 154.82-75.26 175.57-49.46 20.55-125.49 43.83-108.24 94.55 29.85 87.72 210.07 108.26 287 159.88 128.43 86.18 48.34 210.5 199.4 243.67 107.36 23.57 168.26-105.32 278.1-101.17 120.01 4.54 111.47 126.13 229.82 146.52 121.44 20.92 280.02 39.99 305.06-80.71 16.46-79.32 21.72-127.68 29.62-208.31 5.49-56.12 55.36-75.13 89.5-120 73.08-96.05 127.74-72.6 173-184.5 43.07-106.49-30.16-163.22-121.53-232.8-55.17-42.01-115.44-57.13-170.59-99.16-46.09-35.13-60.87-121.74-84.88-174.49-26.16-57.46 10.99-13.02-36.53-54.58-40.31-35.26-80.94-28.48-134.47-26.9-70.38 2.08-100.37 53.09-170.59 58.42-106.73 8.1-172.26-145.96-260.49-85.32-41.78 28.71-30.94 77.92-71.46 108.38-60.85 45.75-126.28-13.16-193.64 22.29z" fill="#eee"/>
  </g>
  <g filter="url(#d)">
    <path d="m1164 883.77c-53.7 28.18-97.2 62.15-109 121.52-12.75 64.1-83.48 43.63-103 106-15.18 48.5-34.42 138.59-53.5 176-44.12 86.5-57.53 145.49-44.12 184.77 23.18 67.96 85.37 107.74 145.12 147.73 99.76 66.76 47.16 174.32 164.5 200.01 83.39 18.26 174.68-119.73 260-116.51 93.22 3.52 110.79 100.72 202.72 116.51 94.34 16.2 217.51 30.98 236.96-62.52 12.79-61.45 12.18-58.53 18.32-120.99 4.26-43.47 9.98-48.74 36.5-83.5 56.76-74.41 105.2-67.28 140.36-153.97 33.46-82.49 8.3-165.22-62.67-219.12-42.85-32.54-48.86-35.85-91.69-68.41-35.81-27.21-84.85-65.14-103.5-106-20.32-44.51 5.28-47.65-31.62-79.84-31.32-27.32-62.88-22.06-104.46-20.84-54.67 1.61-77.96 41.13-132.5 45.25-82.91 6.27-133.81-113.06-202.34-66.09-32.45 22.24-36.61-2.76-68.08 20.84-47.27 35.44-45.68-48.3-98-20.84z" fill="#E6E6E6"/>
  </g>
  <g filter="url(#c)">
    <path d="m1225.5 1051.8c-43.7 18.14-67.29 54.79-98.97 78.19-34.88 25.75-57.64 28.07-73.53 68.2-12.35 31.2-28 89.16-43.53 113.23-35.9 55.65-46.81 93.6-35.9 118.88 18.86 43.72 69.46 69.32 118.08 95.04 81.18 42.96 38.37 112.16 133.85 128.69 67.85 11.74 143.76-21.88 213.18-19.81 75.85 2.27 88.52 9.64 163.32 19.81 76.76 10.42 176.98 19.92 192.81-40.23 10.4-39.53 9.91-37.66 14.9-77.84 3.47-27.97 8.12-31.36 29.7-53.72 46.19-47.87 85.6-43.29 114.21-99.06 27.22-53.07 6.75-106.3-51-140.98-34.86-20.94-39.75-23.07-74.6-44.01-29.13-17.51-69.04-41.91-84.22-68.2-16.53-28.64 4.3-30.66-25.73-51.37-25.48-17.58-51.15-14.2-84.98-13.41-44.49 1.04-39.19 10.75-83.56 13.41-67.46 4.04-44.5-26.82-151-51.38-29.27-6.75-77.39-15.18-103 0-38.46 22.8-27.46 6.89-70.03 24.56z" fill="#D8D8D8"/>
  </g>
  <g filter="url(#b)">
    <path d="m1287.2 1132c-32.55 13.82-45.37 37.9-66.07 59.58-33.64 35.22-50.6 21.39-62.44 51.97-9.2 23.78-20.86 67.95-32.43 86.29-26.74 42.41-34.87 71.33-26.74 90.59 14.05 33.32 51.74 52.83 87.97 72.43 60.47 32.73 28.58 85.46 99.71 98.06 50.55 8.95 107.1-16.67 158.82-15.09 56.5 1.72 65.94 7.35 121.67 15.09 57.18 7.95 131.84 15.19 143.63-30.65 7.75-30.13 7.39-28.7 11.11-59.32 2.58-21.31 6.05-23.9 22.12-40.94 34.41-36.48 63.77-32.99 85.08-75.49 20.28-40.44 5.04-81-37.99-107.43-25.97-15.95-29.61-17.58-55.58-33.54-21.7-13.34-51.43-31.93-62.73-51.97-12.32-21.82 3.2-23.36-19.17-39.14-18.98-13.4-38.11-10.82-63.32-10.22-33.14 0.79-29.19 8.19-62.25 10.22-50.25 3.07-33.15-20.44-112.49-39.15-21.8-5.15-57.65-11.58-76.73-0.01-28.65 17.38-20.45 5.26-52.17 18.72z" fill="#C9C9C9"/>
  </g>
  <g filter="url(#a)">
    <path d="m1352.5 1206.5c-20.66 9.73-37.39 21.46-41.94 41.95-4.9 22.13-32.12 15.06-39.63 36.59-5.84 16.75-13.24 47.85-20.58 60.76-16.98 29.86-22.14 50.22-16.98 63.78 8.92 23.46 32.85 37.19 55.84 51 38.38 23.04 18.14 60.17 63.29 69.04 32.09 6.3 67.99-11.73 100.82-10.62 35.86 1.21 41.86 5.17 77.23 10.62 36.3 5.59 83.69 10.69 91.17-21.58 4.92-21.21 4.69-20.21 7.05-41.77 1.64-15 3.84-16.82 14.05-28.82 21.84-25.69 40.48-23.23 54-53.15 12.88-28.48 3.2-57.03-24.11-75.64-16.49-11.23-18.8-12.38-35.28-23.62-13.78-9.39-32.65-22.48-39.83-36.59-7.81-15.36 2.04-16.45-12.16-27.56-12.05-9.43-24.19-7.61-40.19-7.19-21.04 0.55-18.53 5.77-39.52 7.19-31.9 2.17-21.04-14.39-71.4-27.56-13.84-3.62-36.6-8.15-48.71 0-18.19 12.23-12.98 3.69-33.12 13.17z" fill="#C4C4C4"/>
  </g>
  <defs>
    <filter id="g" x="19.88" y="30.84" width="2736" height="2463.5" color-interpolation-filters="sRGB" filterUnits="userSpaceOnUse">
      <feFlood flood-opacity="0" result="BackgroundImageFix"/>
      <feBlend in="SourceGraphic" in2="BackgroundImageFix" result="shape"/>
      <feColorMatrix in="SourceAlpha" result="hardAlpha" values="0"/>
      <feOffset dx="-2" dy="23"/>
      <feGaussianBlur stdDeviation="23"/>
      <feComposite in2="hardAlpha" k2="-1" k3="1" operator="arithmetic"/>
      <feColorMatrix values="0"/>
      <feBlend in2="shape" result="effect1_innerShadow"/>
    </filter>
    <filter id="f" x="459.3" y="455.08" width="2055.7" height="1650" color-interpolation-filters="sRGB" filterUnits="userSpaceOnUse">
      <feFlood flood-opacity="0" result="BackgroundImageFix"/>
      <feBlend in="SourceGraphic" in2="BackgroundImageFix" result="shape"/>
      <feColorMatrix in="SourceAlpha" result="hardAlpha" values="0"/>
      <feOffset dx="-2" dy="23"/>
      <feGaussianBlur stdDeviation="23"/>
      <feComposite in2="hardAlpha" k2="-1" k3="1" operator="arithmetic"/>
      <feColorMatrix values="0"/>
      <feBlend in2="shape" result="effect1_innerShadow"/>
    </filter>
    <filter id="e" x="643.49" y="702.79" width="1608.7" height="1261" color-interpolation-filters="sRGB" filterUnits="userSpaceOnUse">
      <feFlood flood-opacity="0" result="BackgroundImageFix"/>
      <feBlend in="SourceGraphic" in2="BackgroundImageFix" result="shape"/>
      <feColorMatrix in="SourceAlpha" result="hardAlpha" values="0"/>
      <feOffset dx="-2" dy="23"/>
      <feGaussianBlur stdDeviation="23"/>
      <feComposite in2="hardAlpha" k2="-1" k3="1" operator="arithmetic"/>
      <feColorMatrix values="0"/>
      <feBlend in2="shape" result="effect1_innerShadow"/>
    </filter>
    <filter id="d" x="847.39" y="872.79" width="1226.1" height="982" color-interpolation-filters="sRGB" filterUnits="userSpaceOnUse">
      <feFlood flood-opacity="0" result="BackgroundImageFix"/>
      <feBlend in="SourceGraphic" in2="BackgroundImageFix" result="shape"/>
      <feColorMatrix in="SourceAlpha" result="hardAlpha" values="0"/>
      <feOffset dx="-2" dy="23"/>
      <feGaussianBlur stdDeviation="23"/>
      <feComposite in2="hardAlpha" k2="-1" k3="1" operator="arithmetic"/>
      <feColorMatrix values="0"/>
      <feBlend in2="shape" result="effect1_innerShadow"/>
    </filter>
    <filter id="c" x="967.49" y="1018.8" width="998" height="666.01" color-interpolation-filters="sRGB" filterUnits="userSpaceOnUse">
      <feFlood flood-opacity="0" result="BackgroundImageFix"/>
      <feBlend in="SourceGraphic" in2="BackgroundImageFix" result="shape"/>
      <feColorMatrix in="SourceAlpha" result="hardAlpha" values="0"/>
      <feOffset dx="-2" dy="23"/>
      <feGaussianBlur stdDeviation="23"/>
      <feComposite in2="hardAlpha" k2="-1" k3="1" operator="arithmetic"/>
      <feColorMatrix values="0"/>
      <feBlend in2="shape" result="effect1_innerShadow"/>
    </filter>
    <filter id="b" x="1094.5" y="1106.8" width="744" height="513" color-interpolation-filters="sRGB" filterUnits="userSpaceOnUse">
      <feFlood flood-opacity="0" result="BackgroundImageFix"/>
      <feBlend in="SourceGraphic" in2="BackgroundImageFix" result="shape"/>
      <feColorMatrix in="SourceAlpha" result="hardAlpha" values="0"/>
      <feOffset dx="-2" dy="23"/>
      <feGaussianBlur stdDeviation="23"/>
      <feComposite in2="hardAlpha" k2="-1" k3="1" operator="arithmetic"/>
      <feColorMatrix values="0"/>
      <feBlend in2="shape" result="effect1_innerShadow"/>
    </filter>
    <filter id="a" x="1229.5" y="1188.8" width="473" height="368" color-interpolation-filters="sRGB" filterUnits="userSpaceOnUse">
      <feFlood flood-opacity="0" result="BackgroundImageFix"/>
      <feBlend in="SourceGraphic" in2="BackgroundImageFix" result="shape"/>
      <feColorMatrix in="SourceAlpha" result="hardAlpha" values="0"/>
      <feOffset dx="-2" dy="23"/>
      <feGaussianBlur stdDeviation="23"/>
      <feComposite in2="hardAlpha" k2="-1" k3="1" operator="arithmetic"/>
      <feColorMatrix values="0"/>
      <feBlend in2="shape" result="effect1_innerShadow"/>
    </filter>
  </defs>
</svg>
